<?xml version="1.0" standalone="no"?>
 <!DOCTYPE svg PUBLIC "-//W3C//DTD SVG 1.1//EN" 
 "http://www.w3.org/Graphics/SVG/1.1/DTD/svg11.dtd"> 
<svg
  xmlns:svg="http://www.w3.org/2000/svg"
  xmlns="http://www.w3.org/2000/svg"
  xmlns:xlink="http://www.w3.org/1999/xlink"
  version="1.1"
  width="113.3602mm" height="87.1982mm" viewBox="0.0000 0.0000 113.3602 87.1982">
<title>SVG Image created as KoeBlaster-brd.svg date 2024/03/30 01:57:29 </title>
  <desc>Image generated by PCBNEW </desc>
<g style="fill:#000000; fill-opacity:1.0000;stroke:#000000; stroke-opacity:1.0000;
stroke-linecap:round; stroke-linejoin:round;"
 transform="translate(0 0) scale(1 1)">
</g>
<g style="fill:#000000; fill-opacity:0.0; 
stroke:#000000; stroke-width:0.0000; stroke-opacity:1; 
stroke-linecap:round; stroke-linejoin:round;">
</g>
<g style="fill:#585D84; fill-opacity:0.0; 
stroke:#585D84; stroke-width:0.0000; stroke-opacity:1; 
stroke-linecap:round; stroke-linejoin:round;">
</g>
<g style="fill:#585D84; fill-opacity:0.0; 
stroke:#585D84; stroke-width:0.0800; stroke-opacity:1; 
stroke-linecap:round; stroke-linejoin:round;">
<text x="65.5602" y="79.8000"
textLength="0.9971" font-size="0.6667" lengthAdjust="spacingAndGlyphs"
text-anchor="middle" opacity="0">J1</text>
<g class="stroked-text"><desc>J1</desc>
<path d="M65.3935 79.2771
L65.3935 79.6343
" />
<path d="M65.3935 79.6343
L65.3697 79.7057
" />
<path d="M65.3697 79.7057
L65.3221 79.7533
" />
<path d="M65.3221 79.7533
L65.2507 79.7771
" />
<path d="M65.2507 79.7771
L65.2031 79.7771
" />
<path d="M65.8935 79.7771
L65.6078 79.7771
" />
<path d="M65.7507 79.7771
L65.7507 79.2771
" />
<path d="M65.7507 79.2771
L65.7031 79.3486
" />
<path d="M65.7031 79.3486
L65.6554 79.3962
" />
<path d="M65.6554 79.3962
L65.6078 79.4200
" />
</g></g>
<g style="fill:#585D84; fill-opacity:0.0; 
stroke:#585D84; stroke-width:0.1500; stroke-opacity:1; 
stroke-linecap:round; stroke-linejoin:round;">
<g transform="rotate(-82.000000 38.5602 74.3500)">
<text x="38.5602" y="74.7000"
textLength="11.9433" font-size="0.9333" lengthAdjust="spacingAndGlyphs"
text-anchor="middle" opacity="0">SJ2-25103A-SMT-TR</text>
</g>
<g class="stroked-text"><desc>SJ2-25103A-SMT-TR</desc>
<path d="M38.0492 80.0174
L38.0961 79.9230
" />
<path d="M38.0961 79.9230
L38.1193 79.7579
" />
<path d="M38.1193 79.7579
L38.0956 79.6873
" />
<path d="M38.0956 79.6873
L38.0672 79.6496
" />
<path d="M38.0672 79.6496
L38.0058 79.6073
" />
<path d="M38.0058 79.6073
L37.9398 79.5981
" />
<path d="M37.9398 79.5981
L37.8691 79.6218
" />
<path d="M37.8691 79.6218
L37.8315 79.6502
" />
<path d="M37.8315 79.6502
L37.7892 79.7115
" />
<path d="M37.7892 79.7115
L37.7376 79.8389
" />
<path d="M37.7376 79.8389
L37.6954 79.9003
" />
<path d="M37.6954 79.9003
L37.6577 79.9287
" />
<path d="M37.6577 79.9287
L37.5871 79.9524
" />
<path d="M37.5871 79.9524
L37.5210 79.9431
" />
<path d="M37.5210 79.9431
L37.4597 79.9009
" />
<path d="M37.4597 79.9009
L37.4313 79.8632
" />
<path d="M37.4313 79.8632
L37.4076 79.7926
" />
<path d="M37.4076 79.7926
L37.4308 79.6275
" />
<path d="M37.4308 79.6275
L37.4777 79.5331
" />
<path d="M37.5143 79.0333
L38.0094 79.1029
" />
<path d="M38.0094 79.1029
L38.1038 79.1499
" />
<path d="M38.1038 79.1499
L38.1605 79.2252
" />
<path d="M38.1605 79.2252
L38.1796 79.3288
" />
<path d="M38.1796 79.3288
L38.1703 79.3948
" />
<path d="M37.6220 78.7455
L37.5937 78.7079
" />
<path d="M37.5937 78.7079
L37.5699 78.6372
" />
<path d="M37.5699 78.6372
L37.5931 78.4722
" />
<path d="M37.5931 78.4722
L37.6354 78.4108
" />
<path d="M37.6354 78.4108
L37.6731 78.3824
" />
<path d="M37.6731 78.3824
L37.7437 78.3587
" />
<path d="M37.7437 78.3587
L37.8097 78.3680
" />
<path d="M37.8097 78.3680
L37.9041 78.4149
" />
<path d="M37.9041 78.4149
L38.2446 78.8667
" />
<path d="M38.2446 78.8667
L38.3049 78.4376
" />
<path d="M38.0825 78.1034
L38.1568 77.5752
" />
<path d="M37.8354 77.2271
L37.8071 77.1895
" />
<path d="M37.8071 77.1895
L37.7833 77.1188
" />
<path d="M37.7833 77.1188
L37.8065 76.9538
" />
<path d="M37.8065 76.9538
L37.8488 76.8924
" />
<path d="M37.8488 76.8924
L37.8865 76.8640
" />
<path d="M37.8865 76.8640
L37.9571 76.8403
" />
<path d="M37.9571 76.8403
L38.0231 76.8496
" />
<path d="M38.0231 76.8496
L38.1175 76.8965
" />
<path d="M38.1175 76.8965
L38.4580 77.3483
" />
<path d="M38.4580 77.3483
L38.5183 76.9192
" />
<path d="M37.9132 76.1946
L37.8668 76.5247
" />
<path d="M37.8668 76.5247
L38.1923 76.6041
" />
<path d="M38.1923 76.6041
L38.1639 76.5664
" />
<path d="M38.1639 76.5664
L38.1402 76.4958
" />
<path d="M38.1402 76.4958
L38.1634 76.3307
" />
<path d="M38.1634 76.3307
L38.2057 76.2693
" />
<path d="M38.2057 76.2693
L38.2433 76.2410
" />
<path d="M38.2433 76.2410
L38.3140 76.2172
" />
<path d="M38.3140 76.2172
L38.4790 76.2404
" />
<path d="M38.4790 76.2404
L38.5404 76.2827
" />
<path d="M38.5404 76.2827
L38.5688 76.3204
" />
<path d="M38.5688 76.3204
L38.5925 76.3910
" />
<path d="M38.5925 76.3910
L38.5693 76.5561
" />
<path d="M38.5693 76.5561
L38.5270 76.6174
" />
<path d="M38.5270 76.6174
L38.4894 76.6458
" />
<path d="M38.7038 75.5988
L38.6482 75.9949
" />
<path d="M38.6760 75.7969
L37.9828 75.6994
" />
<path d="M37.9828 75.6994
L38.0726 75.7794
" />
<path d="M38.0726 75.7794
L38.1293 75.8547
" />
<path d="M38.1293 75.8547
L38.1530 75.9253
" />
<path d="M38.0710 75.0723
L38.0802 75.0063
" />
<path d="M38.0802 75.0063
L38.1225 74.9449
" />
<path d="M38.1225 74.9449
L38.1602 74.9165
" />
<path d="M38.1602 74.9165
L38.2308 74.8928
" />
<path d="M38.2308 74.8928
L38.3675 74.8783
" />
<path d="M38.3675 74.8783
L38.5325 74.9015
" />
<path d="M38.5325 74.9015
L38.6599 74.9531
" />
<path d="M38.6599 74.9531
L38.7213 74.9954
" />
<path d="M38.7213 74.9954
L38.7497 75.0330
" />
<path d="M38.7497 75.0330
L38.7734 75.1037
" />
<path d="M38.7734 75.1037
L38.7641 75.1697
" />
<path d="M38.7641 75.1697
L38.7219 75.2311
" />
<path d="M38.7219 75.2311
L38.6842 75.2594
" />
<path d="M38.6842 75.2594
L38.6135 75.2832
" />
<path d="M38.6135 75.2832
L38.4769 75.2976
" />
<path d="M38.4769 75.2976
L38.3118 75.2744
" />
<path d="M38.3118 75.2744
L38.1844 75.2229
" />
<path d="M38.1844 75.2229
L38.1231 75.1806
" />
<path d="M38.1231 75.1806
L38.0947 75.1429
" />
<path d="M38.0947 75.1429
L38.0710 75.0723
" />
<path d="M38.1359 74.6101
L38.1962 74.1810
" />
<path d="M38.1962 74.1810
L38.4278 74.4492
" />
<path d="M38.4278 74.4492
L38.4417 74.3502
" />
<path d="M38.4417 74.3502
L38.4840 74.2888
" />
<path d="M38.4840 74.2888
L38.5217 74.2604
" />
<path d="M38.5217 74.2604
L38.5923 74.2367
" />
<path d="M38.5923 74.2367
L38.7574 74.2599
" />
<path d="M38.7574 74.2599
L38.8187 74.3022
" />
<path d="M38.8187 74.3022
L38.8471 74.3398
" />
<path d="M38.8471 74.3398
L38.8708 74.4105
" />
<path d="M38.8708 74.4105
L38.8430 74.6085
" />
<path d="M38.8430 74.6085
L38.8007 74.6699
" />
<path d="M38.8007 74.6699
L38.7631 74.6983
" />
<path d="M38.7285 73.9865
L38.7748 73.6565
" />
<path d="M38.9172 74.0804
L38.2565 73.7519
" />
<path d="M38.2565 73.7519
L38.9822 73.6183
" />
<path d="M38.7506 73.3501
L38.8248 72.8220
" />
<path d="M39.0976 72.5573
L39.1445 72.4630
" />
<path d="M39.1445 72.4630
L39.1677 72.2979
" />
<path d="M39.1677 72.2979
L39.1440 72.2273
" />
<path d="M39.1440 72.2273
L39.1156 72.1896
" />
<path d="M39.1156 72.1896
L39.0543 72.1473
" />
<path d="M39.0543 72.1473
L38.9882 72.1380
" />
<path d="M38.9882 72.1380
L38.9176 72.1618
" />
<path d="M38.9176 72.1618
L38.8799 72.1901
" />
<path d="M38.8799 72.1901
L38.8377 72.2515
" />
<path d="M38.8377 72.2515
L38.7861 72.3789
" />
<path d="M38.7861 72.3789
L38.7438 72.4403
" />
<path d="M38.7438 72.4403
L38.7062 72.4687
" />
<path d="M38.7062 72.4687
L38.6355 72.4924
" />
<path d="M38.6355 72.4924
L38.5695 72.4831
" />
<path d="M38.5695 72.4831
L38.5081 72.4408
" />
<path d="M38.5081 72.4408
L38.4797 72.4032
" />
<path d="M38.4797 72.4032
L38.4560 72.3325
" />
<path d="M38.4560 72.3325
L38.4792 72.1675
" />
<path d="M38.4792 72.1675
L38.5261 72.0731
" />
<path d="M39.2280 71.8688
L38.5349 71.7714
" />
<path d="M38.5349 71.7714
L39.0625 71.6099
" />
<path d="M39.0625 71.6099
L38.5998 71.3093
" />
<path d="M38.5998 71.3093
L39.2930 71.4067
" />
<path d="M38.6323 71.0782
L38.6880 70.6821
" />
<path d="M39.3533 70.9776
L38.6601 70.8801
" />
<path d="M39.1495 70.5113
L39.2238 69.9832
" />
<path d="M38.8271 69.6918
L38.8828 69.2957
" />
<path d="M39.5481 69.5912
L38.8550 69.4938
" />
<path d="M39.6641 68.7660
L39.3016 68.9506
" />
<path d="M39.6085 69.1621
L38.9153 69.0646
" />
<path d="M38.9153 69.0646
L38.9524 68.8006
" />
<path d="M38.9524 68.8006
L38.9947 68.7392
" />
<path d="M38.9947 68.7392
L39.0323 68.7108
" />
<path d="M39.0323 68.7108
L39.1030 68.6871
" />
<path d="M39.1030 68.6871
L39.2020 68.7010
" />
<path d="M39.2020 68.7010
L39.2634 68.7433
" />
<path d="M39.2634 68.7433
L39.2917 68.7809
" />
<path d="M39.2917 68.7809
L39.3155 68.8516
" />
<path d="M39.3155 68.8516
L39.2784 69.1157
" />
</g><g transform="rotate(-87.000000 50.3602 75.7500)">
<text x="50.3602" y="76.1000"
textLength="11.9433" font-size="0.9333" lengthAdjust="spacingAndGlyphs"
text-anchor="middle" opacity="0">SJ2-25103A-SMT-TR</text>
</g>
<g class="stroked-text"><desc>SJ2-25103A-SMT-TR</desc>
<path d="M50.3451 81.4403
L50.3836 81.3422
" />
<path d="M50.3836 81.3422
L50.3923 81.1758
" />
<path d="M50.3923 81.1758
L50.3625 81.1075
" />
<path d="M50.3625 81.1075
L50.3310 81.0724
" />
<path d="M50.3310 81.0724
L50.2661 81.0357
" />
<path d="M50.2661 81.0357
L50.1996 81.0322
" />
<path d="M50.1996 81.0322
L50.1312 81.0620
" />
<path d="M50.1312 81.0620
L50.0962 81.0935
" />
<path d="M50.0962 81.0935
L50.0594 81.1583
" />
<path d="M50.0594 81.1583
L50.0192 81.2897
" />
<path d="M50.0192 81.2897
L49.9824 81.3546
" />
<path d="M49.9824 81.3546
L49.9474 81.3861
" />
<path d="M49.9474 81.3861
L49.8790 81.4159
" />
<path d="M49.8790 81.4159
L49.8125 81.4124
" />
<path d="M49.8125 81.4124
L49.7476 81.3757
" />
<path d="M49.7476 81.3757
L49.7161 81.3406
" />
<path d="M49.7161 81.3406
L49.6863 81.2723
" />
<path d="M49.6863 81.2723
L49.6950 81.1059
" />
<path d="M49.6950 81.1059
L49.7335 81.0077
" />
<path d="M49.7264 80.5067
L50.2257 80.5329
" />
<path d="M50.2257 80.5329
L50.3239 80.5714
" />
<path d="M50.3239 80.5714
L50.3869 80.6414
" />
<path d="M50.3869 80.6414
L50.4150 80.7430
" />
<path d="M50.4150 80.7430
L50.4115 80.8096
" />
<path d="M49.8087 80.2106
L49.7772 80.1756
" />
<path d="M49.7772 80.1756
L49.7474 80.1072
" />
<path d="M49.7474 80.1072
L49.7561 79.9408
" />
<path d="M49.7561 79.9408
L49.7929 79.8760
" />
<path d="M49.7929 79.8760
L49.8279 79.8444
" />
<path d="M49.8279 79.8444
L49.8962 79.8146
" />
<path d="M49.8962 79.8146
L49.9628 79.8181
" />
<path d="M49.9628 79.8181
L50.0609 79.8566
" />
<path d="M50.0609 79.8566
L50.4394 80.2770
" />
<path d="M50.4394 80.2770
L50.4621 79.8443
" />
<path d="M50.2115 79.5307
L50.2394 78.9981
" />
<path d="M49.8889 78.6794
L49.8574 78.6443
" />
<path d="M49.8574 78.6443
L49.8276 78.5760
" />
<path d="M49.8276 78.5760
L49.8363 78.4096
" />
<path d="M49.8363 78.4096
L49.8731 78.3447
" />
<path d="M49.8731 78.3447
L49.9081 78.3132
" />
<path d="M49.9081 78.3132
L49.9765 78.2834
" />
<path d="M49.9765 78.2834
L50.0430 78.2869
" />
<path d="M50.0430 78.2869
L50.1411 78.3254
" />
<path d="M50.1411 78.3254
L50.5197 78.7458
" />
<path d="M50.5197 78.7458
L50.5423 78.3130
" />
<path d="M49.8764 77.6439
L49.8590 77.9768
" />
<path d="M49.8590 77.9768
L50.1901 78.0276
" />
<path d="M50.1901 78.0276
L50.1586 77.9925
" />
<path d="M50.1586 77.9925
L50.1288 77.9242
" />
<path d="M50.1288 77.9242
L50.1375 77.7578
" />
<path d="M50.1375 77.7578
L50.1743 77.6929
" />
<path d="M50.1743 77.6929
L50.2093 77.6614
" />
<path d="M50.2093 77.6614
L50.2776 77.6316
" />
<path d="M50.2776 77.6316
L50.4441 77.6403
" />
<path d="M50.4441 77.6403
L50.5089 77.6771
" />
<path d="M50.5089 77.6771
L50.5405 77.7121
" />
<path d="M50.5405 77.7121
L50.5703 77.7804
" />
<path d="M50.5703 77.7804
L50.5615 77.9469
" />
<path d="M50.5615 77.9469
L50.5248 78.0117
" />
<path d="M50.5248 78.0117
L50.4897 78.0433
" />
<path d="M50.6121 76.9815
L50.5912 77.3810
" />
<path d="M50.6017 77.1813
L49.9026 77.1446
" />
<path d="M49.9026 77.1446
L49.9990 77.2164
" />
<path d="M49.9990 77.2164
L50.0621 77.2865
" />
<path d="M50.0621 77.2865
L50.0919 77.3548
" />
<path d="M49.9358 76.5122
L49.9393 76.4456
" />
<path d="M49.9393 76.4456
L49.9760 76.3808
" />
<path d="M49.9760 76.3808
L50.0111 76.3492
" />
<path d="M50.0111 76.3492
L50.0794 76.3194
" />
<path d="M50.0794 76.3194
L50.2143 76.2931
" />
<path d="M50.2143 76.2931
L50.3807 76.3018
" />
<path d="M50.3807 76.3018
L50.5121 76.3421
" />
<path d="M50.5121 76.3421
L50.5770 76.3789
" />
<path d="M50.5770 76.3789
L50.6085 76.4139
" />
<path d="M50.6085 76.4139
L50.6383 76.4822
" />
<path d="M50.6383 76.4822
L50.6348 76.5488
" />
<path d="M50.6348 76.5488
L50.5980 76.6136
" />
<path d="M50.5980 76.6136
L50.5630 76.6452
" />
<path d="M50.5630 76.6452
L50.4947 76.6750
" />
<path d="M50.4947 76.6750
L50.3598 76.7013
" />
<path d="M50.3598 76.7013
L50.1933 76.6926
" />
<path d="M50.1933 76.6926
L50.0619 76.6523
" />
<path d="M50.0619 76.6523
L49.9971 76.6155
" />
<path d="M49.9971 76.6155
L49.9656 76.5805
" />
<path d="M49.9656 76.5805
L49.9358 76.5122
" />
<path d="M49.9602 76.0461
L49.9829 75.6134
" />
<path d="M49.9829 75.6134
L50.2370 75.8604
" />
<path d="M50.2370 75.8604
L50.2422 75.7605
" />
<path d="M50.2422 75.7605
L50.2790 75.6957
" />
<path d="M50.2790 75.6957
L50.3140 75.6641
" />
<path d="M50.3140 75.6641
L50.3823 75.6343
" />
<path d="M50.3823 75.6343
L50.5488 75.6431
" />
<path d="M50.5488 75.6431
L50.6136 75.6798
" />
<path d="M50.6136 75.6798
L50.6451 75.7149
" />
<path d="M50.6451 75.7149
L50.6749 75.7832
" />
<path d="M50.6749 75.7832
L50.6645 75.9829
" />
<path d="M50.6645 75.9829
L50.6277 76.0477
" />
<path d="M50.6277 76.0477
L50.5927 76.0793
" />
<path d="M50.4961 75.3733
L50.5136 75.0404
" />
<path d="M50.6924 75.4503
L50.0055 75.1807
" />
<path d="M50.0055 75.1807
L50.7168 74.9843
" />
<path d="M50.4627 74.7373
L50.4906 74.2047
" />
<path d="M50.7393 73.9173
L50.7779 73.8192
" />
<path d="M50.7779 73.8192
L50.7866 73.6528
" />
<path d="M50.7866 73.6528
L50.7568 73.5845
" />
<path d="M50.7568 73.5845
L50.7252 73.5494
" />
<path d="M50.7252 73.5494
L50.6604 73.5126
" />
<path d="M50.6604 73.5126
L50.5938 73.5092
" />
<path d="M50.5938 73.5092
L50.5255 73.5390
" />
<path d="M50.5255 73.5390
L50.4905 73.5705
" />
<path d="M50.4905 73.5705
L50.4537 73.6353
" />
<path d="M50.4537 73.6353
L50.4134 73.7667
" />
<path d="M50.4134 73.7667
L50.3767 73.8316
" />
<path d="M50.3767 73.8316
L50.3416 73.8631
" />
<path d="M50.3416 73.8631
L50.2733 73.8929
" />
<path d="M50.2733 73.8929
L50.2067 73.8894
" />
<path d="M50.2067 73.8894
L50.1419 73.8526
" />
<path d="M50.1419 73.8526
L50.1104 73.8176
" />
<path d="M50.1104 73.8176
L50.0806 73.7493
" />
<path d="M50.0806 73.7493
L50.0893 73.5828
" />
<path d="M50.0893 73.5828
L50.1278 73.4847
" />
<path d="M50.8093 73.2200
L50.1102 73.1834
" />
<path d="M50.1102 73.1834
L50.6217 72.9766
" />
<path d="M50.6217 72.9766
L50.1346 72.7174
" />
<path d="M50.1346 72.7174
L50.8337 72.7540
" />
<path d="M50.1469 72.4844
L50.1678 72.0849
" />
<path d="M50.8564 72.3213
L50.1573 72.2846
" />
<path d="M50.6127 71.8746
L50.6407 71.3420
" />
<path d="M50.2201 71.0863
L50.2411 70.6868
" />
<path d="M50.9296 70.9232
L50.2306 70.8865
" />
<path d="M50.9732 70.0910
L50.6282 70.3066
" />
<path d="M50.9523 70.4904
L50.2533 70.4538
" />
<path d="M50.2533 70.4538
L50.2672 70.1875
" />
<path d="M50.2672 70.1875
L50.3040 70.1227
" />
<path d="M50.3040 70.1227
L50.3390 70.0911
" />
<path d="M50.3390 70.0911
L50.4074 70.0613
" />
<path d="M50.4074 70.0613
L50.5072 70.0666
" />
<path d="M50.5072 70.0666
L50.5720 70.1033
" />
<path d="M50.5720 70.1033
L50.6036 70.1384
" />
<path d="M50.6036 70.1384
L50.6334 70.2067
" />
<path d="M50.6334 70.2067
L50.6194 70.4730
" />
</g><g transform="rotate(90.000000 69.3602 11.8000)">
<text x="69.3602" y="12.1500"
textLength="5.5100" font-size="0.9333" lengthAdjust="spacingAndGlyphs"
text-anchor="middle" opacity="0">SFH 4547</text>
</g>
<g class="stroked-text"><desc>SFH 4547</desc>
<path d="M69.0775 9.3333
L69.0442 9.4333
" />
<path d="M69.0442 9.4333
L69.0442 9.6000
" />
<path d="M69.0442 9.6000
L69.0775 9.6667
" />
<path d="M69.0775 9.6667
L69.1108 9.7000
" />
<path d="M69.1108 9.7000
L69.1775 9.7333
" />
<path d="M69.1775 9.7333
L69.2442 9.7333
" />
<path d="M69.2442 9.7333
L69.3108 9.7000
" />
<path d="M69.3108 9.7000
L69.3442 9.6667
" />
<path d="M69.3442 9.6667
L69.3775 9.6000
" />
<path d="M69.3775 9.6000
L69.4108 9.4667
" />
<path d="M69.4108 9.4667
L69.4442 9.4000
" />
<path d="M69.4442 9.4000
L69.4775 9.3667
" />
<path d="M69.4775 9.3667
L69.5442 9.3333
" />
<path d="M69.5442 9.3333
L69.6108 9.3333
" />
<path d="M69.6108 9.3333
L69.6775 9.3667
" />
<path d="M69.6775 9.3667
L69.7108 9.4000
" />
<path d="M69.7108 9.4000
L69.7442 9.4667
" />
<path d="M69.7442 9.4667
L69.7442 9.6333
" />
<path d="M69.7442 9.6333
L69.7108 9.7333
" />
<path d="M69.4108 10.2667
L69.4108 10.0333
" />
<path d="M69.0442 10.0333
L69.7442 10.0333
" />
<path d="M69.7442 10.0333
L69.7442 10.3667
" />
<path d="M69.0442 10.6333
L69.7442 10.6333
" />
<path d="M69.4108 10.6333
L69.4108 11.0333
" />
<path d="M69.0442 11.0333
L69.7442 11.0333
" />
<path d="M69.5108 12.2000
L69.0442 12.2000
" />
<path d="M69.7775 12.0333
L69.2775 11.8667
" />
<path d="M69.2775 11.8667
L69.2775 12.3000
" />
<path d="M69.7442 12.9000
L69.7442 12.5667
" />
<path d="M69.7442 12.5667
L69.4108 12.5333
" />
<path d="M69.4108 12.5333
L69.4442 12.5667
" />
<path d="M69.4442 12.5667
L69.4775 12.6333
" />
<path d="M69.4775 12.6333
L69.4775 12.8000
" />
<path d="M69.4775 12.8000
L69.4442 12.8667
" />
<path d="M69.4442 12.8667
L69.4108 12.9000
" />
<path d="M69.4108 12.9000
L69.3442 12.9333
" />
<path d="M69.3442 12.9333
L69.1775 12.9333
" />
<path d="M69.1775 12.9333
L69.1108 12.9000
" />
<path d="M69.1108 12.9000
L69.0775 12.8667
" />
<path d="M69.0775 12.8667
L69.0442 12.8000
" />
<path d="M69.0442 12.8000
L69.0442 12.6333
" />
<path d="M69.0442 12.6333
L69.0775 12.5667
" />
<path d="M69.0775 12.5667
L69.1108 12.5333
" />
<path d="M69.5108 13.5333
L69.0442 13.5333
" />
<path d="M69.7775 13.3667
L69.2775 13.2000
" />
<path d="M69.2775 13.2000
L69.2775 13.6333
" />
<path d="M69.7442 13.8333
L69.7442 14.3000
" />
<path d="M69.7442 14.3000
L69.0442 14.0000
" />
</g><g transform="rotate(-13.000000 102.7602 41.4000)">
<text x="102.7602" y="41.7500"
textLength="5.5100" font-size="0.9333" lengthAdjust="spacingAndGlyphs"
text-anchor="middle" opacity="0">SFH 4547</text>
</g>
<g class="stroked-text"><desc>SFH 4547</desc>
<path d="M100.4203 42.2303
L100.5253 42.2403
" />
<path d="M100.5253 42.2403
L100.6877 42.2028
" />
<path d="M100.6877 42.2028
L100.7451 42.1553
" />
<path d="M100.7451 42.1553
L100.7701 42.1154
" />
<path d="M100.7701 42.1154
L100.7876 42.0429
" />
<path d="M100.7876 42.0429
L100.7726 41.9780
" />
<path d="M100.7726 41.9780
L100.7251 41.9205
" />
<path d="M100.7251 41.9205
L100.6852 41.8955
" />
<path d="M100.6852 41.8955
L100.6127 41.8780
" />
<path d="M100.6127 41.8780
L100.4753 41.8755
" />
<path d="M100.4753 41.8755
L100.4028 41.8581
" />
<path d="M100.4028 41.8581
L100.3628 41.8331
" />
<path d="M100.3628 41.8331
L100.3154 41.7756
" />
<path d="M100.3154 41.7756
L100.3004 41.7107
" />
<path d="M100.3004 41.7107
L100.3179 41.6382
" />
<path d="M100.3179 41.6382
L100.3428 41.5982
" />
<path d="M100.3428 41.5982
L100.4003 41.5508
" />
<path d="M100.4003 41.5508
L100.5627 41.5133
" />
<path d="M100.5627 41.5133
L100.6676 41.5233
" />
<path d="M101.2548 41.6956
L101.0274 41.7481
" />
<path d="M101.1099 42.1053
L100.9524 41.4233
" />
<path d="M100.9524 41.4233
L101.2772 41.3483
" />
<path d="M101.6945 41.9704
L101.5371 41.2883
" />
<path d="M101.6120 41.6131
L102.0018 41.5231
" />
<path d="M102.0843 41.8804
L101.9268 41.1983
" />
<path d="M103.1161 41.1632
L103.2210 41.6180
" />
<path d="M102.8937 40.9409
L102.8438 41.4656
" />
<path d="M102.8438 41.4656
L103.2660 41.3681
" />
<path d="M103.7456 40.7784
L103.4208 40.8534
" />
<path d="M103.4208 40.8534
L103.4633 41.1857
" />
<path d="M103.4633 41.1857
L103.4883 41.1457
" />
<path d="M103.4883 41.1457
L103.5458 41.0982
" />
<path d="M103.5458 41.0982
L103.7082 41.0608
" />
<path d="M103.7082 41.0608
L103.7806 41.0782
" />
<path d="M103.7806 41.0782
L103.8206 41.1032
" />
<path d="M103.8206 41.1032
L103.8681 41.1607
" />
<path d="M103.8681 41.1607
L103.9056 41.3231
" />
<path d="M103.9056 41.3231
L103.8881 41.3955
" />
<path d="M103.8881 41.3955
L103.8631 41.4355
" />
<path d="M103.8631 41.4355
L103.8057 41.4830
" />
<path d="M103.8057 41.4830
L103.6433 41.5205
" />
<path d="M103.6433 41.5205
L103.5708 41.5030
" />
<path d="M103.5708 41.5030
L103.5308 41.4780
" />
<path d="M104.4152 40.8633
L104.5202 41.3180
" />
<path d="M104.1928 40.6410
L104.1429 41.1656
" />
<path d="M104.1429 41.1656
L104.5651 41.0682
" />
<path d="M104.6550 40.5685
L105.1098 40.4635
" />
<path d="M105.1098 40.4635
L104.9749 41.2130
" />
</g><g transform="rotate(90.000000 39.3602 11.2000)">
<text x="39.3602" y="11.5500"
textLength="5.5100" font-size="0.9333" lengthAdjust="spacingAndGlyphs"
text-anchor="middle" opacity="0">SFH 4547</text>
</g>
<g class="stroked-text"><desc>SFH 4547</desc>
<path d="M39.0775 8.7333
L39.0442 8.8333
" />
<path d="M39.0442 8.8333
L39.0442 9.0000
" />
<path d="M39.0442 9.0000
L39.0775 9.0667
" />
<path d="M39.0775 9.0667
L39.1108 9.1000
" />
<path d="M39.1108 9.1000
L39.1775 9.1333
" />
<path d="M39.1775 9.1333
L39.2442 9.1333
" />
<path d="M39.2442 9.1333
L39.3108 9.1000
" />
<path d="M39.3108 9.1000
L39.3442 9.0667
" />
<path d="M39.3442 9.0667
L39.3775 9.0000
" />
<path d="M39.3775 9.0000
L39.4108 8.8667
" />
<path d="M39.4108 8.8667
L39.4442 8.8000
" />
<path d="M39.4442 8.8000
L39.4775 8.7667
" />
<path d="M39.4775 8.7667
L39.5442 8.7333
" />
<path d="M39.5442 8.7333
L39.6108 8.7333
" />
<path d="M39.6108 8.7333
L39.6775 8.7667
" />
<path d="M39.6775 8.7667
L39.7108 8.8000
" />
<path d="M39.7108 8.8000
L39.7442 8.8667
" />
<path d="M39.7442 8.8667
L39.7442 9.0333
" />
<path d="M39.7442 9.0333
L39.7108 9.1333
" />
<path d="M39.4108 9.6667
L39.4108 9.4333
" />
<path d="M39.0442 9.4333
L39.7442 9.4333
" />
<path d="M39.7442 9.4333
L39.7442 9.7667
" />
<path d="M39.0442 10.0333
L39.7442 10.0333
" />
<path d="M39.4108 10.0333
L39.4108 10.4333
" />
<path d="M39.0442 10.4333
L39.7442 10.4333
" />
<path d="M39.5108 11.6000
L39.0442 11.6000
" />
<path d="M39.7775 11.4333
L39.2775 11.2667
" />
<path d="M39.2775 11.2667
L39.2775 11.7000
" />
<path d="M39.7442 12.3000
L39.7442 11.9667
" />
<path d="M39.7442 11.9667
L39.4108 11.9333
" />
<path d="M39.4108 11.9333
L39.4442 11.9667
" />
<path d="M39.4442 11.9667
L39.4775 12.0333
" />
<path d="M39.4775 12.0333
L39.4775 12.2000
" />
<path d="M39.4775 12.2000
L39.4442 12.2667
" />
<path d="M39.4442 12.2667
L39.4108 12.3000
" />
<path d="M39.4108 12.3000
L39.3442 12.3333
" />
<path d="M39.3442 12.3333
L39.1775 12.3333
" />
<path d="M39.1775 12.3333
L39.1108 12.3000
" />
<path d="M39.1108 12.3000
L39.0775 12.2667
" />
<path d="M39.0775 12.2667
L39.0442 12.2000
" />
<path d="M39.0442 12.2000
L39.0442 12.0333
" />
<path d="M39.0442 12.0333
L39.0775 11.9667
" />
<path d="M39.0775 11.9667
L39.1108 11.9333
" />
<path d="M39.5108 12.9333
L39.0442 12.9333
" />
<path d="M39.7775 12.7667
L39.2775 12.6000
" />
<path d="M39.2775 12.6000
L39.2775 13.0333
" />
<path d="M39.7442 13.2333
L39.7442 13.7000
" />
<path d="M39.7442 13.7000
L39.0442 13.4000
" />
</g></g>
<g style="fill:#585D84; fill-opacity:0.0; 
stroke:#585D84; stroke-width:0.0800; stroke-opacity:1; 
stroke-linecap:round; stroke-linejoin:round;">
<text x="79.4102" y="77.3500"
textLength="1.0924" font-size="0.6667" lengthAdjust="spacingAndGlyphs"
text-anchor="middle" opacity="0">S1</text>
<g class="stroked-text"><desc>S1</desc>
<path d="M79.0292 77.3033
L79.1007 77.3271
" />
<path d="M79.1007 77.3271
L79.2197 77.3271
" />
<path d="M79.2197 77.3271
L79.2673 77.3033
" />
<path d="M79.2673 77.3033
L79.2912 77.2795
" />
<path d="M79.2912 77.2795
L79.3150 77.2319
" />
<path d="M79.3150 77.2319
L79.3150 77.1843
" />
<path d="M79.3150 77.1843
L79.2912 77.1367
" />
<path d="M79.2912 77.1367
L79.2673 77.1129
" />
<path d="M79.2673 77.1129
L79.2197 77.0891
" />
<path d="M79.2197 77.0891
L79.1245 77.0652
" />
<path d="M79.1245 77.0652
L79.0769 77.0414
" />
<path d="M79.0769 77.0414
L79.0531 77.0176
" />
<path d="M79.0531 77.0176
L79.0292 76.9700
" />
<path d="M79.0292 76.9700
L79.0292 76.9224
" />
<path d="M79.0292 76.9224
L79.0531 76.8748
" />
<path d="M79.0531 76.8748
L79.0769 76.8510
" />
<path d="M79.0769 76.8510
L79.1245 76.8271
" />
<path d="M79.1245 76.8271
L79.2435 76.8271
" />
<path d="M79.2435 76.8271
L79.3150 76.8510
" />
<path d="M79.7912 77.3271
L79.5054 77.3271
" />
<path d="M79.6483 77.3271
L79.6483 76.8271
" />
<path d="M79.6483 76.8271
L79.6007 76.8986
" />
<path d="M79.6007 76.8986
L79.5531 76.9462
" />
<path d="M79.5531 76.9462
L79.5054 76.9700
" />
</g></g>
<g style="fill:#585D84; fill-opacity:0.0; 
stroke:#585D84; stroke-width:0.1500; stroke-opacity:1; 
stroke-linecap:round; stroke-linejoin:round;">
<text x="60.5602" y="17.5500"
textLength="8.9767" font-size="0.9333" lengthAdjust="spacingAndGlyphs"
text-anchor="middle" opacity="0">SK68xx_ec3210r</text>
<g class="stroked-text"><desc>SK68xx_ec3210r</desc>
<path d="M56.3602 17.4827
L56.4602 17.5160
" />
<path d="M56.4602 17.5160
L56.6269 17.5160
" />
<path d="M56.6269 17.5160
L56.6935 17.4827
" />
<path d="M56.6935 17.4827
L56.7269 17.4494
" />
<path d="M56.7269 17.4494
L56.7602 17.3827
" />
<path d="M56.7602 17.3827
L56.7602 17.3160
" />
<path d="M56.7602 17.3160
L56.7269 17.2494
" />
<path d="M56.7269 17.2494
L56.6935 17.2160
" />
<path d="M56.6935 17.2160
L56.6269 17.1827
" />
<path d="M56.6269 17.1827
L56.4935 17.1494
" />
<path d="M56.4935 17.1494
L56.4269 17.1160
" />
<path d="M56.4269 17.1160
L56.3935 17.0827
" />
<path d="M56.3935 17.0827
L56.3602 17.0160
" />
<path d="M56.3602 17.0160
L56.3602 16.9494
" />
<path d="M56.3602 16.9494
L56.3935 16.8827
" />
<path d="M56.3935 16.8827
L56.4269 16.8494
" />
<path d="M56.4269 16.8494
L56.4935 16.8160
" />
<path d="M56.4935 16.8160
L56.6602 16.8160
" />
<path d="M56.6602 16.8160
L56.7602 16.8494
" />
<path d="M57.0602 17.5160
L57.0602 16.8160
" />
<path d="M57.4602 17.5160
L57.1602 17.1160
" />
<path d="M57.4602 16.8160
L57.0602 17.2160
" />
<path d="M58.0602 16.8160
L57.9269 16.8160
" />
<path d="M57.9269 16.8160
L57.8602 16.8494
" />
<path d="M57.8602 16.8494
L57.8269 16.8827
" />
<path d="M57.8269 16.8827
L57.7602 16.9827
" />
<path d="M57.7602 16.9827
L57.7269 17.1160
" />
<path d="M57.7269 17.1160
L57.7269 17.3827
" />
<path d="M57.7269 17.3827
L57.7602 17.4494
" />
<path d="M57.7602 17.4494
L57.7935 17.4827
" />
<path d="M57.7935 17.4827
L57.8602 17.5160
" />
<path d="M57.8602 17.5160
L57.9935 17.5160
" />
<path d="M57.9935 17.5160
L58.0602 17.4827
" />
<path d="M58.0602 17.4827
L58.0935 17.4494
" />
<path d="M58.0935 17.4494
L58.1269 17.3827
" />
<path d="M58.1269 17.3827
L58.1269 17.2160
" />
<path d="M58.1269 17.2160
L58.0935 17.1494
" />
<path d="M58.0935 17.1494
L58.0602 17.1160
" />
<path d="M58.0602 17.1160
L57.9935 17.0827
" />
<path d="M57.9935 17.0827
L57.8602 17.0827
" />
<path d="M57.8602 17.0827
L57.7935 17.1160
" />
<path d="M57.7935 17.1160
L57.7602 17.1494
" />
<path d="M57.7602 17.1494
L57.7269 17.2160
" />
<path d="M58.5269 17.1160
L58.4602 17.0827
" />
<path d="M58.4602 17.0827
L58.4269 17.0494
" />
<path d="M58.4269 17.0494
L58.3935 16.9827
" />
<path d="M58.3935 16.9827
L58.3935 16.9494
" />
<path d="M58.3935 16.9494
L58.4269 16.8827
" />
<path d="M58.4269 16.8827
L58.4602 16.8494
" />
<path d="M58.4602 16.8494
L58.5269 16.8160
" />
<path d="M58.5269 16.8160
L58.6602 16.8160
" />
<path d="M58.6602 16.8160
L58.7269 16.8494
" />
<path d="M58.7269 16.8494
L58.7602 16.8827
" />
<path d="M58.7602 16.8827
L58.7935 16.9494
" />
<path d="M58.7935 16.9494
L58.7935 16.9827
" />
<path d="M58.7935 16.9827
L58.7602 17.0494
" />
<path d="M58.7602 17.0494
L58.7269 17.0827
" />
<path d="M58.7269 17.0827
L58.6602 17.1160
" />
<path d="M58.6602 17.1160
L58.5269 17.1160
" />
<path d="M58.5269 17.1160
L58.4602 17.1494
" />
<path d="M58.4602 17.1494
L58.4269 17.1827
" />
<path d="M58.4269 17.1827
L58.3935 17.2494
" />
<path d="M58.3935 17.2494
L58.3935 17.3827
" />
<path d="M58.3935 17.3827
L58.4269 17.4494
" />
<path d="M58.4269 17.4494
L58.4602 17.4827
" />
<path d="M58.4602 17.4827
L58.5269 17.5160
" />
<path d="M58.5269 17.5160
L58.6602 17.5160
" />
<path d="M58.6602 17.5160
L58.7269 17.4827
" />
<path d="M58.7269 17.4827
L58.7602 17.4494
" />
<path d="M58.7602 17.4494
L58.7935 17.3827
" />
<path d="M58.7935 17.3827
L58.7935 17.2494
" />
<path d="M58.7935 17.2494
L58.7602 17.1827
" />
<path d="M58.7602 17.1827
L58.7269 17.1494
" />
<path d="M58.7269 17.1494
L58.6602 17.1160
" />
<path d="M59.0269 17.5160
L59.3935 17.0494
" />
<path d="M59.0269 17.0494
L59.3935 17.5160
" />
<path d="M59.5935 17.5160
L59.9602 17.0494
" />
<path d="M59.5935 17.0494
L59.9602 17.5160
" />
<path d="M60.0602 17.5827
L60.5935 17.5827
" />
<path d="M61.0269 17.4827
L60.9602 17.5160
" />
<path d="M60.9602 17.5160
L60.8269 17.5160
" />
<path d="M60.8269 17.5160
L60.7602 17.4827
" />
<path d="M60.7602 17.4827
L60.7269 17.4160
" />
<path d="M60.7269 17.4160
L60.7269 17.1494
" />
<path d="M60.7269 17.1494
L60.7602 17.0827
" />
<path d="M60.7602 17.0827
L60.8269 17.0494
" />
<path d="M60.8269 17.0494
L60.9602 17.0494
" />
<path d="M60.9602 17.0494
L61.0269 17.0827
" />
<path d="M61.0269 17.0827
L61.0602 17.1494
" />
<path d="M61.0602 17.1494
L61.0602 17.2160
" />
<path d="M61.0602 17.2160
L60.7269 17.2827
" />
<path d="M61.6602 17.4827
L61.5935 17.5160
" />
<path d="M61.5935 17.5160
L61.4602 17.5160
" />
<path d="M61.4602 17.5160
L61.3935 17.4827
" />
<path d="M61.3935 17.4827
L61.3602 17.4494
" />
<path d="M61.3602 17.4494
L61.3269 17.3827
" />
<path d="M61.3269 17.3827
L61.3269 17.1827
" />
<path d="M61.3269 17.1827
L61.3602 17.1160
" />
<path d="M61.3602 17.1160
L61.3935 17.0827
" />
<path d="M61.3935 17.0827
L61.4602 17.0494
" />
<path d="M61.4602 17.0494
L61.5935 17.0494
" />
<path d="M61.5935 17.0494
L61.6602 17.0827
" />
<path d="M61.8935 16.8160
L62.3269 16.8160
" />
<path d="M62.3269 16.8160
L62.0935 17.0827
" />
<path d="M62.0935 17.0827
L62.1935 17.0827
" />
<path d="M62.1935 17.0827
L62.2602 17.1160
" />
<path d="M62.2602 17.1160
L62.2935 17.1494
" />
<path d="M62.2935 17.1494
L62.3269 17.2160
" />
<path d="M62.3269 17.2160
L62.3269 17.3827
" />
<path d="M62.3269 17.3827
L62.2935 17.4494
" />
<path d="M62.2935 17.4494
L62.2602 17.4827
" />
<path d="M62.2602 17.4827
L62.1935 17.5160
" />
<path d="M62.1935 17.5160
L61.9935 17.5160
" />
<path d="M61.9935 17.5160
L61.9269 17.4827
" />
<path d="M61.9269 17.4827
L61.8935 17.4494
" />
<path d="M62.5935 16.8827
L62.6269 16.8494
" />
<path d="M62.6269 16.8494
L62.6935 16.8160
" />
<path d="M62.6935 16.8160
L62.8602 16.8160
" />
<path d="M62.8602 16.8160
L62.9269 16.8494
" />
<path d="M62.9269 16.8494
L62.9602 16.8827
" />
<path d="M62.9602 16.8827
L62.9935 16.9494
" />
<path d="M62.9935 16.9494
L62.9935 17.0160
" />
<path d="M62.9935 17.0160
L62.9602 17.1160
" />
<path d="M62.9602 17.1160
L62.5602 17.5160
" />
<path d="M62.5602 17.5160
L62.9935 17.5160
" />
<path d="M63.6602 17.5160
L63.2602 17.5160
" />
<path d="M63.4602 17.5160
L63.4602 16.8160
" />
<path d="M63.4602 16.8160
L63.3935 16.9160
" />
<path d="M63.3935 16.9160
L63.3269 16.9827
" />
<path d="M63.3269 16.9827
L63.2602 17.0160
" />
<path d="M64.0935 16.8160
L64.1602 16.8160
" />
<path d="M64.1602 16.8160
L64.2269 16.8494
" />
<path d="M64.2269 16.8494
L64.2602 16.8827
" />
<path d="M64.2602 16.8827
L64.2935 16.9494
" />
<path d="M64.2935 16.9494
L64.3269 17.0827
" />
<path d="M64.3269 17.0827
L64.3269 17.2494
" />
<path d="M64.3269 17.2494
L64.2935 17.3827
" />
<path d="M64.2935 17.3827
L64.2602 17.4494
" />
<path d="M64.2602 17.4494
L64.2269 17.4827
" />
<path d="M64.2269 17.4827
L64.1602 17.5160
" />
<path d="M64.1602 17.5160
L64.0935 17.5160
" />
<path d="M64.0935 17.5160
L64.0269 17.4827
" />
<path d="M64.0269 17.4827
L63.9935 17.4494
" />
<path d="M63.9935 17.4494
L63.9602 17.3827
" />
<path d="M63.9602 17.3827
L63.9269 17.2494
" />
<path d="M63.9269 17.2494
L63.9269 17.0827
" />
<path d="M63.9269 17.0827
L63.9602 16.9494
" />
<path d="M63.9602 16.9494
L63.9935 16.8827
" />
<path d="M63.9935 16.8827
L64.0269 16.8494
" />
<path d="M64.0269 16.8494
L64.0935 16.8160
" />
<path d="M64.6269 17.5160
L64.6269 17.0494
" />
<path d="M64.6269 17.1827
L64.6602 17.1160
" />
<path d="M64.6602 17.1160
L64.6935 17.0827
" />
<path d="M64.6935 17.0827
L64.7602 17.0494
" />
<path d="M64.7602 17.0494
L64.8269 17.0494
" />
</g><g transform="rotate(13.000000 21.9602 41.8000)">
<text x="21.9602" y="42.1500"
textLength="5.5100" font-size="0.9333" lengthAdjust="spacingAndGlyphs"
text-anchor="middle" opacity="0">SFH 4547</text>
</g>
<g class="stroked-text"><desc>SFH 4547</desc>
<path d="M19.4932 41.5206
L19.5831 41.5755
" />
<path d="M19.5831 41.5755
L19.7455 41.6130
" />
<path d="M19.7455 41.6130
L19.8180 41.5956
" />
<path d="M19.8180 41.5956
L19.8579 41.5706
" />
<path d="M19.8579 41.5706
L19.9054 41.5131
" />
<path d="M19.9054 41.5131
L19.9204 41.4482
" />
<path d="M19.9204 41.4482
L19.9029 41.3757
" />
<path d="M19.9029 41.3757
L19.8779 41.3357
" />
<path d="M19.8779 41.3357
L19.8205 41.2883
" />
<path d="M19.8205 41.2883
L19.6981 41.2258
" />
<path d="M19.6981 41.2258
L19.6406 41.1783
" />
<path d="M19.6406 41.1783
L19.6156 41.1383
" />
<path d="M19.6156 41.1383
L19.5981 41.0659
" />
<path d="M19.5981 41.0659
L19.6131 41.0009
" />
<path d="M19.6131 41.0009
L19.6606 40.9435
" />
<path d="M19.6606 40.9435
L19.7006 40.9185
" />
<path d="M19.7006 40.9185
L19.7730 40.9010
" />
<path d="M19.7730 40.9010
L19.9354 40.9385
" />
<path d="M19.9354 40.9385
L20.0254 40.9935
" />
<path d="M20.4776 41.4057
L20.2502 41.3532
" />
<path d="M20.1677 41.7105
L20.3252 41.0285
" />
<path d="M20.3252 41.0285
L20.6500 41.1034
" />
<path d="M20.7523 41.8455
L20.9098 41.1634
" />
<path d="M20.8348 41.4882
L21.2246 41.5782
" />
<path d="M21.1421 41.9355
L21.2996 41.2534
" />
<path d="M22.3838 41.7432
L22.2789 42.1979
" />
<path d="M22.2814 41.4459
L22.0066 41.8956
" />
<path d="M22.0066 41.8956
L22.4288 41.9931
" />
<path d="M23.1184 41.6733
L22.7936 41.5983
" />
<path d="M22.7936 41.5983
L22.6861 41.9156
" />
<path d="M22.6861 41.9156
L22.7261 41.8906
" />
<path d="M22.7261 41.8906
L22.7986 41.8732
" />
<path d="M22.7986 41.8732
L22.9610 41.9107
" />
<path d="M22.9610 41.9107
L23.0184 41.9581
" />
<path d="M23.0184 41.9581
L23.0434 41.9981
" />
<path d="M23.0434 41.9981
L23.0609 42.0706
" />
<path d="M23.0609 42.0706
L23.0234 42.2330
" />
<path d="M23.0234 42.2330
L22.9759 42.2904
" />
<path d="M22.9759 42.2904
L22.9359 42.3154
" />
<path d="M22.9359 42.3154
L22.8635 42.3329
" />
<path d="M22.8635 42.3329
L22.7011 42.2954
" />
<path d="M22.7011 42.2954
L22.6436 42.2479
" />
<path d="M22.6436 42.2479
L22.6186 42.2079
" />
<path d="M23.6830 42.0431
L23.5780 42.4978
" />
<path d="M23.5806 41.7458
L23.3057 42.1955
" />
<path d="M23.3057 42.1955
L23.7279 42.2930
" />
<path d="M24.0278 41.8833
L24.4825 41.9883
" />
<path d="M24.4825 41.9883
L24.0327 42.6028
" />
</g></g>
<g style="fill:#585D84; fill-opacity:0.0; 
stroke:#585D84; stroke-width:0.1000; stroke-opacity:1; 
stroke-linecap:round; stroke-linejoin:round;">
<path d="M61.5602 83.0000
L69.5602 83.0000
" />
<path d="M69.5602 83.0000
L69.5602 76.4000
" />
<path d="M69.5602 76.4000
L61.5602 76.4000
" />
<path d="M61.5602 76.4000
L61.5602 83.0000
" />
</g>
<g style="fill:#585D84; fill-opacity:0.0; 
stroke:#585D84; stroke-width:0.1270; stroke-opacity:1; 
stroke-linecap:round; stroke-linejoin:round;">
<path d="M41.6021 81.1583
L41.1070 81.0887
" />
<path d="M41.1070 81.0887
L37.1459 80.5321
" />
<path d="M37.1459 80.5321
L36.6508 80.4625
" />
<path d="M36.6508 80.4625
L37.9729 71.0549
" />
<path d="M37.9729 71.0549
L42.9243 71.7508
" />
<path d="M42.9243 71.7508
L41.6021 81.1583
" />
<path d="M37.1459 80.5321
L36.7980 83.0077
" />
<path d="M36.7980 83.0077
L40.7590 83.5644
" />
<path d="M40.7590 83.5644
L41.1070 81.0887
" />
</g>
<g style="fill:#585D84; fill-opacity:0.0; 
stroke:#585D84; stroke-width:0.3000; stroke-opacity:1; 
stroke-linecap:round; stroke-linejoin:round;">
<circle cx="41.1120" cy="78.4518" r="0.1500" /> 
</g>
<g style="fill:#585D84; fill-opacity:0.0; 
stroke:#585D84; stroke-width:0.1270; stroke-opacity:1; 
stroke-linecap:round; stroke-linejoin:round;">
<path d="M53.9214 82.1251
L53.4221 82.0990
" />
<path d="M53.4221 82.0990
L49.4276 81.8896
" />
<path d="M49.4276 81.8896
L48.9283 81.8634
" />
<path d="M48.9283 81.8634
L49.4255 72.3765
" />
<path d="M49.4255 72.3765
L54.4186 72.6381
" />
<path d="M54.4186 72.6381
L53.9214 82.1251
" />
<path d="M49.4276 81.8896
L49.2967 84.3862
" />
<path d="M49.2967 84.3862
L53.2913 84.5955
" />
<path d="M53.2913 84.5955
L53.4221 82.0990
" />
</g>
<g style="fill:#585D84; fill-opacity:0.0; 
stroke:#585D84; stroke-width:0.3000; stroke-opacity:1; 
stroke-linecap:round; stroke-linejoin:round;">
<circle cx="53.1973" cy="79.4716" r="0.1500" /> 
</g>
<g style="fill:#585D84; fill-opacity:0.0; 
stroke:#585D84; stroke-width:0.1000; stroke-opacity:1; 
stroke-linecap:round; stroke-linejoin:round;">
<path d="M78.3302 12.5500
L78.3302 6.4500
" />
<path d="M78.3302 12.5500
L73.3302 12.5500
" />
</g>
<g style="fill:#585D84; fill-opacity:1.0000; 
stroke:#585D84; stroke-width:0.0000; stroke-opacity:1; 
stroke-linecap:round; stroke-linejoin:round;">
<circle cx="77.1002" cy="12.5500" r="0.0500" /> 
</g>
<g style="fill:#585D84; fill-opacity:1.0000; 
stroke:#585D84; stroke-width:0.1000; stroke-opacity:1; 
stroke-linecap:round; stroke-linejoin:round;">
</g>
<g style="fill:#585D84; fill-opacity:0.0; 
stroke:#585D84; stroke-width:0.1000; stroke-opacity:1; 
stroke-linecap:round; stroke-linejoin:round;">
<path d="M77.1002 12.5500
L77.1002 18.9000
" />
<path d="M77.1002 18.9000
L77.1002 12.5500
" />
</g>
<g style="fill:#585D84; fill-opacity:1.0000; 
stroke:#585D84; stroke-width:0.0000; stroke-opacity:1; 
stroke-linecap:round; stroke-linejoin:round;">
<circle cx="77.1002" cy="18.9000" r="0.0500" /> 
<circle cx="74.5602" cy="12.5500" r="0.0500" /> 
</g>
<g style="fill:#585D84; fill-opacity:1.0000; 
stroke:#585D84; stroke-width:0.1000; stroke-opacity:1; 
stroke-linecap:round; stroke-linejoin:round;">
</g>
<g style="fill:#585D84; fill-opacity:0.0; 
stroke:#585D84; stroke-width:0.1000; stroke-opacity:1; 
stroke-linecap:round; stroke-linejoin:round;">
<path d="M74.5602 12.5500
L74.5602 18.9000
" />
<path d="M74.5602 18.9000
L74.5602 12.5500
" />
</g>
<g style="fill:#585D84; fill-opacity:1.0000; 
stroke:#585D84; stroke-width:0.0000; stroke-opacity:1; 
stroke-linecap:round; stroke-linejoin:round;">
<circle cx="74.5602" cy="18.9000" r="0.0500" /> 
</g>
<g style="fill:#585D84; fill-opacity:1.0000; 
stroke:#585D84; stroke-width:0.1000; stroke-opacity:1; 
stroke-linecap:round; stroke-linejoin:round;">
</g>
<g style="fill:#585D84; fill-opacity:0.0; 
stroke:#585D84; stroke-width:0.1000; stroke-opacity:1; 
stroke-linecap:round; stroke-linejoin:round;">
<path d="M73.3302 11.5500
L73.3302 12.5500
" />
<path d="M73.3302 12.5500
L73.3302 6.4500
" />
<path d="M73.3302 12.5500
L72.9302 12.5500
" />
<path d="M72.9302 11.5500
L73.3302 11.5500
" />
<path d="M72.9302 12.5500
L72.9302 11.5500
" />
<path d="M78.3302 6.4500 A2.5000 2.5000 0.0 0 0 73.3302 6.4500" />
<path d="M101.5206 50.3163
L107.4643 48.9441
" />
<path d="M101.5206 50.3163
L100.3959 45.4445
" />
</g>
<g style="fill:#585D84; fill-opacity:1.0000; 
stroke:#585D84; stroke-width:0.0000; stroke-opacity:1; 
stroke-linecap:round; stroke-linejoin:round;">
<circle cx="101.2439" cy="49.1178" r="0.0500" /> 
</g>
<g style="fill:#585D84; fill-opacity:1.0000; 
stroke:#585D84; stroke-width:0.1000; stroke-opacity:1; 
stroke-linecap:round; stroke-linejoin:round;">
</g>
<g style="fill:#585D84; fill-opacity:0.0; 
stroke:#585D84; stroke-width:0.1000; stroke-opacity:1; 
stroke-linecap:round; stroke-linejoin:round;">
<path d="M101.2439 49.1178
L97.5316 49.9749
" />
<path d="M97.5316 49.9749
L101.2439 49.1178
" />
</g>
<g style="fill:#585D84; fill-opacity:1.0000; 
stroke:#585D84; stroke-width:0.0000; stroke-opacity:1; 
stroke-linecap:round; stroke-linejoin:round;">
<circle cx="97.5316" cy="49.9749" r="0.0500" /> 
<circle cx="100.6726" cy="46.6429" r="0.0500" /> 
</g>
<g style="fill:#585D84; fill-opacity:1.0000; 
stroke:#585D84; stroke-width:0.1000; stroke-opacity:1; 
stroke-linecap:round; stroke-linejoin:round;">
</g>
<g style="fill:#585D84; fill-opacity:0.0; 
stroke:#585D84; stroke-width:0.1000; stroke-opacity:1; 
stroke-linecap:round; stroke-linejoin:round;">
<path d="M100.6726 46.6429
L96.9602 47.5000
" />
<path d="M96.9602 47.5000
L100.6726 46.6429
" />
</g>
<g style="fill:#585D84; fill-opacity:1.0000; 
stroke:#585D84; stroke-width:0.0000; stroke-opacity:1; 
stroke-linecap:round; stroke-linejoin:round;">
<circle cx="96.9602" cy="47.5000" r="0.0500" /> 
</g>
<g style="fill:#585D84; fill-opacity:1.0000; 
stroke:#585D84; stroke-width:0.1000; stroke-opacity:1; 
stroke-linecap:round; stroke-linejoin:round;">
</g>
<g style="fill:#585D84; fill-opacity:0.0; 
stroke:#585D84; stroke-width:0.1000; stroke-opacity:1; 
stroke-linecap:round; stroke-linejoin:round;">
<path d="M101.3702 45.2195
L100.3959 45.4445
" />
<path d="M100.3959 45.4445
L106.3395 44.0723
" />
<path d="M100.3959 45.4445
L100.3059 45.0547
" />
<path d="M101.2802 44.8298
L101.3702 45.2195
" />
<path d="M100.3059 45.0547
L101.2802 44.8298
" />
<path d="M107.4643 48.9441 A2.5000 2.5000 0.0 1 0 106.3395 44.0723" />
<path d="M48.3302 12.5500
L48.3302 6.4500
" />
<path d="M48.3302 12.5500
L43.3302 12.5500
" />
</g>
<g style="fill:#585D84; fill-opacity:1.0000; 
stroke:#585D84; stroke-width:0.0000; stroke-opacity:1; 
stroke-linecap:round; stroke-linejoin:round;">
<circle cx="47.1002" cy="12.5500" r="0.0500" /> 
</g>
<g style="fill:#585D84; fill-opacity:1.0000; 
stroke:#585D84; stroke-width:0.1000; stroke-opacity:1; 
stroke-linecap:round; stroke-linejoin:round;">
</g>
<g style="fill:#585D84; fill-opacity:0.0; 
stroke:#585D84; stroke-width:0.1000; stroke-opacity:1; 
stroke-linecap:round; stroke-linejoin:round;">
<path d="M47.1002 12.5500
L47.1002 18.9000
" />
<path d="M47.1002 18.9000
L47.1002 12.5500
" />
</g>
<g style="fill:#585D84; fill-opacity:1.0000; 
stroke:#585D84; stroke-width:0.0000; stroke-opacity:1; 
stroke-linecap:round; stroke-linejoin:round;">
<circle cx="47.1002" cy="18.9000" r="0.0500" /> 
<circle cx="44.5602" cy="12.5500" r="0.0500" /> 
</g>
<g style="fill:#585D84; fill-opacity:1.0000; 
stroke:#585D84; stroke-width:0.1000; stroke-opacity:1; 
stroke-linecap:round; stroke-linejoin:round;">
</g>
<g style="fill:#585D84; fill-opacity:0.0; 
stroke:#585D84; stroke-width:0.1000; stroke-opacity:1; 
stroke-linecap:round; stroke-linejoin:round;">
<path d="M44.5602 12.5500
L44.5602 18.9000
" />
<path d="M44.5602 18.9000
L44.5602 12.5500
" />
</g>
<g style="fill:#585D84; fill-opacity:1.0000; 
stroke:#585D84; stroke-width:0.0000; stroke-opacity:1; 
stroke-linecap:round; stroke-linejoin:round;">
<circle cx="44.5602" cy="18.9000" r="0.0500" /> 
</g>
<g style="fill:#585D84; fill-opacity:1.0000; 
stroke:#585D84; stroke-width:0.1000; stroke-opacity:1; 
stroke-linecap:round; stroke-linejoin:round;">
</g>
<g style="fill:#585D84; fill-opacity:0.0; 
stroke:#585D84; stroke-width:0.1000; stroke-opacity:1; 
stroke-linecap:round; stroke-linejoin:round;">
<path d="M43.3302 11.5500
L43.3302 12.5500
" />
<path d="M43.3302 12.5500
L43.3302 6.4500
" />
<path d="M43.3302 12.5500
L42.9302 12.5500
" />
<path d="M42.9302 11.5500
L43.3302 11.5500
" />
<path d="M42.9302 12.5500
L42.9302 11.5500
" />
<path d="M48.3302 6.4500 A2.5000 2.5000 0.0 0 0 43.3302 6.4500" />
</g>
<g style="fill:#585D84; fill-opacity:0.0; 
stroke:#585D84; stroke-width:0.2000; stroke-opacity:1; 
stroke-linecap:round; stroke-linejoin:round;">
<path d="M77.0602 79.1500
L77.0602 76.6500
" />
<path d="M77.0602 76.6500
L80.0602 76.6500
" />
<path d="M77.7102 79.8500
L77.7102 79.1500
" />
<path d="M79.4102 79.8500
L77.7102 79.8500
" />
<path d="M79.4102 79.1500
L79.4102 79.8500
" />
<path d="M80.0602 79.1500
L77.0602 79.1500
" />
<path d="M80.0602 76.6500
L80.0602 79.1500
" />
</g>
<g style="fill:#585D84; fill-opacity:0.0; 
stroke:#585D84; stroke-width:0.1000; stroke-opacity:1; 
stroke-linecap:round; stroke-linejoin:round;">
<path d="M24.2245 45.9445
L18.2809 44.5723
" />
<path d="M24.2245 45.9445
L23.0998 50.8163
" />
</g>
<g style="fill:#585D84; fill-opacity:1.0000; 
stroke:#585D84; stroke-width:0.0000; stroke-opacity:1; 
stroke-linecap:round; stroke-linejoin:round;">
<circle cx="23.9478" cy="47.1429" r="0.0500" /> 
</g>
<g style="fill:#585D84; fill-opacity:1.0000; 
stroke:#585D84; stroke-width:0.1000; stroke-opacity:1; 
stroke-linecap:round; stroke-linejoin:round;">
</g>
<g style="fill:#585D84; fill-opacity:0.0; 
stroke:#585D84; stroke-width:0.1000; stroke-opacity:1; 
stroke-linecap:round; stroke-linejoin:round;">
<path d="M23.9478 47.1429
L27.6602 48.0000
" />
<path d="M27.6602 48.0000
L23.9478 47.1429
" />
</g>
<g style="fill:#585D84; fill-opacity:1.0000; 
stroke:#585D84; stroke-width:0.0000; stroke-opacity:1; 
stroke-linecap:round; stroke-linejoin:round;">
<circle cx="27.6602" cy="48.0000" r="0.0500" /> 
<circle cx="23.3765" cy="49.6178" r="0.0500" /> 
</g>
<g style="fill:#585D84; fill-opacity:1.0000; 
stroke:#585D84; stroke-width:0.1000; stroke-opacity:1; 
stroke-linecap:round; stroke-linejoin:round;">
</g>
<g style="fill:#585D84; fill-opacity:0.0; 
stroke:#585D84; stroke-width:0.1000; stroke-opacity:1; 
stroke-linecap:round; stroke-linejoin:round;">
<path d="M23.3765 49.6178
L27.0888 50.4749
" />
<path d="M27.0888 50.4749
L23.3765 49.6178
" />
</g>
<g style="fill:#585D84; fill-opacity:1.0000; 
stroke:#585D84; stroke-width:0.0000; stroke-opacity:1; 
stroke-linecap:round; stroke-linejoin:round;">
<circle cx="27.0888" cy="50.4749" r="0.0500" /> 
</g>
<g style="fill:#585D84; fill-opacity:1.0000; 
stroke:#585D84; stroke-width:0.1000; stroke-opacity:1; 
stroke-linecap:round; stroke-linejoin:round;">
</g>
<g style="fill:#585D84; fill-opacity:0.0; 
stroke:#585D84; stroke-width:0.1000; stroke-opacity:1; 
stroke-linecap:round; stroke-linejoin:round;">
<path d="M22.1254 50.5914
L23.0998 50.8163
" />
<path d="M23.0998 50.8163
L17.1561 49.4441
" />
<path d="M23.0998 50.8163
L23.0098 51.2061
" />
<path d="M22.0354 50.9811
L22.1254 50.5914
" />
<path d="M23.0098 51.2061
L22.0354 50.9811
" />
<path d="M18.2809 44.5723 A2.5000 2.5000 0.0 0 0 17.1561 49.4441" />
<g >
</g>
<g >
</g>
<g >
</g>
<g >
</g>
<g >
</g>
<g >
</g>
<g >
</g>
<g >
</g>
<g >
</g>
<g >
</g>
<g >
</g>
<g >
</g>
<g >
</g>
<g >
</g>
<g >
</g>
<g >
</g>
<g >
</g>
<g >
</g>
<g >
</g>
<g >
</g>
<g >
</g>
<g >
</g>
<g >
</g>
<g >
</g>
<g >
</g>
<g >
</g>
<g >
</g>
<g >
</g>
<g >
</g>
<g >
</g>
<g >
</g>
<g >
</g>
<g >
</g>
<g >
</g>
<g >
</g>
<g >
</g>
<g >
</g>
<g >
</g>
<g >
</g>
<g >
</g>
<g >
</g>
<g >
</g>
<g >
</g>
<g >
</g>
<g >
</g>
<g >
</g>
<g >
</g>
<g >
</g>
<g >
</g>
<g >
</g>
<g >
</g>
<g >
</g>
<g >
</g>
<g >
</g>
<g >
</g>
<g >
</g>
<g >
</g>
<g >
</g>
<g >
</g>
<g >
</g>
<g >
</g>
<g >
</g>
<g >
</g>
</g>
<g style="fill:#000000; fill-opacity:0.0; 
stroke:#000000; stroke-width:0.1000; stroke-opacity:1; 
stroke-linecap:round; stroke-linejoin:round;">
</g>
<g style="fill:#D0D2CD; fill-opacity:0.0; 
stroke:#D0D2CD; stroke-width:0.1000; stroke-opacity:1; 
stroke-linecap:round; stroke-linejoin:round;">
</g>
<g style="fill:#D0D2CD; fill-opacity:0.0; 
stroke:#D0D2CD; stroke-width:0.1500; stroke-opacity:1; 
stroke-linecap:round; stroke-linejoin:round;">
<path d="M25.7290 46.8353 A1.5000 1.5000 0.0 0 0 24.6312 45.0428" />
<path d="M23.0938 51.5550 A1.5000 1.5000 0.0 0 0 24.8989 50.4321" />
<path d="M99.9892 44.5428 A1.5000 1.5000 0.0 0 0 98.8914 46.3353" />
<path d="M99.7215 49.9321 A1.5000 1.5000 0.0 0 0 101.5266 51.0550" />
<path d="M95.0602 79.4000
L87.5602 79.4000
" />
<path d="M16.0602 35.9000
L16.0602 42.4000
" />
<path d="M16.0602 18.4000
L16.0602 34.4000
" />
<path d="M70.5602 82.4000 A1.0000 1.0000 0.0 0 0 71.5602 81.4000" />
<path d="M108.5602 26.4000 A1.0000 1.0000 0.0 0 0 107.5602 25.4000" />
<path d="M108.5602 49.4000
L108.5602 61.9000
" />
<path d="M50.0602 6.4000 A1.0000 1.0000 0.0 0 0 49.0602 7.4000" />
<path d="M25.5602 65.9000
L25.5602 76.9000
" />
<path d="M79.0602 14.9000
L79.0602 7.4000
" />
<path d="M108.5602 26.4000
L108.5602 34.4000
" />
<path d="M72.5602 7.4000 A1.0000 1.0000 0.0 0 0 71.5602 6.4000" />
</g>
<g style="fill:#D0D2CD; fill-opacity:0.0; 
stroke:#D0D2CD; stroke-width:0.1000; stroke-opacity:1; 
stroke-linecap:round; stroke-linejoin:round;">
<path d="M27.8102 40.9000
L27.8102 42.9000
" />
</g>
<g style="fill:#D0D2CD; fill-opacity:0.0; 
stroke:#D0D2CD; stroke-width:0.1500; stroke-opacity:1; 
stroke-linecap:round; stroke-linejoin:round;">
<path d="M71.5602 6.4000
L50.0602 6.4000
" />
<path d="M95.0602 79.4000 A1.0000 1.0000 0.0 0 0 96.0602 78.4000" />
</g>
<g style="fill:#D0D2CD; fill-opacity:0.0; 
stroke:#D0D2CD; stroke-width:0.1000; stroke-opacity:1; 
stroke-linecap:round; stroke-linejoin:round;">
<path d="M36.3102 40.9000
L36.3102 42.9000
" />
</g>
<g style="fill:#D0D2CD; fill-opacity:0.0; 
stroke:#D0D2CD; stroke-width:0.1500; stroke-opacity:1; 
stroke-linecap:round; stroke-linejoin:round;">
<path d="M72.5602 14.9000 A1.5000 1.5000 0.0 0 0 74.0602 16.4000" />
<path d="M34.0602 11.4000
L23.0602 11.4000
" />
<path d="M71.5602 80.4000
L71.5602 81.4000
" />
<path d="M16.0602 49.9000
L16.0602 61.9000
" />
<path d="M16.0602 42.4000
L16.0602 42.9000
" />
<path d="M46.0602 81.9000
L57.5602 82.4000
" />
<path d="M33.5602 77.9000
L35.0602 77.9000
" />
<path d="M42.5602 14.9000 A1.5000 1.5000 0.0 0 0 44.0602 16.4000" />
<path d="M107.5602 62.9000
L99.0602 62.9000
" />
<path d="M49.0602 14.9000
L49.0602 7.4000
" />
<path d="M72.5602 79.4000 A1.0000 1.0000 0.0 0 0 71.5602 80.4000" />
</g>
<g style="fill:#D0D2CD; fill-opacity:0.0; 
stroke:#D0D2CD; stroke-width:0.1000; stroke-opacity:1; 
stroke-linecap:round; stroke-linejoin:round;">
<circle cx="34.5602" cy="70.9000" r="1.7500" /> 
</g>
<g style="fill:#D0D2CD; fill-opacity:0.0; 
stroke:#D0D2CD; stroke-width:0.1500; stroke-opacity:1; 
stroke-linecap:round; stroke-linejoin:round;">
<path d="M108.5602 49.4000
L101.5266 51.0550
" />
<path d="M35.0602 77.9000
L35.0602 80.4000
" />
<path d="M86.5602 7.4000
L86.5602 10.4000
" />
<path d="M94.5602 22.4000 A3.0000 3.0000 0.0 0 0 97.5602 25.4000" />
<path d="M74.0602 16.4000
L77.5602 16.4000
" />
<path d="M36.0602 6.4000 A1.0000 1.0000 0.0 0 0 35.0602 7.4000" />
</g>
<g style="fill:#D0D2CD; fill-opacity:0.0; 
stroke:#D0D2CD; stroke-width:0.1000; stroke-opacity:1; 
stroke-linecap:round; stroke-linejoin:round;">
<path d="M27.8102 42.9000 A4.2500 4.2500 0.0 0 0 36.3102 42.9000" />
</g>
<g style="fill:#D0D2CD; fill-opacity:0.0; 
stroke:#D0D2CD; stroke-width:0.1500; stroke-opacity:1; 
stroke-linecap:round; stroke-linejoin:round;">
<path d="M25.5602 76.9000 A1.0000 1.0000 0.0 0 0 26.1130 77.7944" />
<path d="M108.5602 34.4000
L106.0602 34.4000
" />
<path d="M42.5602 7.4000 A1.0000 1.0000 0.0 0 0 41.5602 6.4000" />
<path d="M108.5602 35.9000
L108.5602 42.4000
" />
<path d="M41.5602 6.4000
L36.0602 6.4000
" />
<path d="M16.0602 34.4000
L19.0602 34.4000
" />
<path d="M86.0602 79.4000
L72.5602 79.4000
" />
<path d="M19.0602 34.4000
L19.0602 35.9000
" />
<path d="M33.5602 77.9000
L33.5602 80.2000
" />
<path d="M72.5602 7.4000
L72.5602 14.9000
" />
</g>
<g style="fill:#D0D2CD; fill-opacity:0.0; 
stroke:#D0D2CD; stroke-width:0.1000; stroke-opacity:1; 
stroke-linecap:round; stroke-linejoin:round;">
<path d="M36.3102 40.9000 A4.2500 4.2500 0.0 0 0 27.8102 40.9000" />
</g>
<g style="fill:#D0D2CD; fill-opacity:0.0; 
stroke:#D0D2CD; stroke-width:0.1500; stroke-opacity:1; 
stroke-linecap:round; stroke-linejoin:round;">
<path d="M106.0602 35.9000
L108.5602 35.9000
" />
<path d="M99.0602 62.9000 A3.0000 3.0000 0.0 0 0 96.0602 65.9000" />
<path d="M16.0602 49.9000
L23.0938 51.5550
" />
<path d="M17.0602 62.9000
L22.5602 62.9000
" />
<path d="M16.0602 42.9000
L24.6312 45.0428
" />
<path d="M97.5602 25.4000
L107.5602 25.4000
" />
<path d="M35.0602 7.4000
L35.0602 10.4000
" />
<path d="M16.0602 61.9000 A1.0000 1.0000 0.0 0 0 17.0602 62.9000" />
<path d="M96.0602 65.9000
L96.0602 78.4000
" />
<path d="M106.0602 34.4000
L106.0602 35.9000
" />
<path d="M47.5602 16.4000 A1.5000 1.5000 0.0 0 0 49.0602 14.9000" />
<path d="M94.5602 12.4000
L94.5602 22.4000
" />
<path d="M107.5602 62.9000 A1.0000 1.0000 0.0 0 0 108.5602 61.9000" />
<path d="M87.5602 77.4000
L86.0602 77.4000
" />
<path d="M34.0602 11.4000 A1.0000 1.0000 0.0 0 0 35.0602 10.4000" />
<path d="M94.5602 12.4000 A1.0000 1.0000 0.0 0 0 93.5602 11.4000" />
<path d="M87.5602 11.4000
L93.5602 11.4000
" />
<path d="M42.5602 7.4000
L42.5602 14.9000
" />
<path d="M23.0602 11.4000
L16.0602 18.4000
" />
<path d="M19.0602 35.9000
L16.0602 35.9000
" />
<path d="M86.5602 7.4000 A1.0000 1.0000 0.0 0 0 85.5602 6.4000" />
<path d="M86.0602 77.4000
L86.0602 79.4000
" />
<path d="M35.0602 80.4000
L46.0602 81.9000
" />
<path d="M80.0602 6.4000 A1.0000 1.0000 0.0 0 0 79.0602 7.4000" />
<path d="M86.5602 10.4000 A1.0000 1.0000 0.0 0 0 87.5602 11.4000" />
<path d="M77.5602 16.4000 A1.5000 1.5000 0.0 0 0 79.0602 14.9000" />
<path d="M80.0602 6.4000
L85.5602 6.4000
" />
<path d="M24.8989 50.4321
L25.7290 46.8353
" />
<path d="M70.5602 82.4000
L57.5602 82.4000
" />
<path d="M87.5602 77.4000
L87.5602 79.4000
" />
<path d="M33.5602 80.2000
L26.1130 77.7944
" />
<path d="M44.0602 16.4000
L47.5602 16.4000
" />
<path d="M25.5602 65.9000 A3.0000 3.0000 0.0 0 0 22.5602 62.9000" />
<path d="M108.5602 42.4000
L99.9892 44.5428
" />
<path d="M99.7215 49.9321
L98.8914 46.3353
" />
<g >
</g>
<g >
</g>
<g >
</g>
<g >
</g>
<g >
</g>
<g >
</g>
<g >
</g>
<g >
</g>
<g >
</g>
<g >
</g>
<g >
</g>
<g >
</g>
<g >
</g>
<g >
</g>
<g >
</g>
<g >
</g>
<g >
</g>
<g >
</g>
<g >
</g>
<g >
</g>
<g >
</g>
<g >
</g>
<g >
</g>
<g >
</g>
<g >
</g>
<g >
</g>
<g >
</g>
<g >
</g>
<g >
</g>
<g >
</g>
<g >
</g>
<g >
</g>
<g >
</g>
<g >
</g>
<g >
</g>
<g >
</g>
<g >
</g>
<g >
</g>
<g >
</g>
<g >
</g>
<g >
</g>
<g >
</g>
<g >
</g>
<g >
</g>
<g >
</g>
<g >
</g>
<g >
</g>
<g >
</g>
<g >
</g>
<g >
</g>
<g >
</g>
<g >
</g>
<g >
</g>
<g >
</g>
<g >
</g>
<g >
</g>
<g >
</g>
<g >
</g>
<g >
</g>
<g >
</g>
<g >
</g>
<g >
</g>
<g >
</g>
</g> 
</svg>
