<?xml version="1.0" standalone="no"?>
 <!DOCTYPE svg PUBLIC "-//W3C//DTD SVG 1.1//EN" 
 "http://www.w3.org/Graphics/SVG/1.1/DTD/svg11.dtd"> 
<svg
  xmlns:svg="http://www.w3.org/2000/svg"
  xmlns="http://www.w3.org/2000/svg"
  xmlns:xlink="http://www.w3.org/1999/xlink"
  version="1.1"
  width="113.3602mm" height="91.5416mm" viewBox="0.0000 0.0000 113.3602 91.5416">
<title>SVG Image created as KoeBlaster-brd.svg date 2024/03/27 02:12:24 </title>
  <desc>Image generated by PCBNEW </desc>
<g style="fill:#000000; fill-opacity:1.0000;stroke:#000000; stroke-opacity:1.0000;
stroke-linecap:round; stroke-linejoin:round;"
 transform="translate(0 0) scale(1 1)">
</g>
<g style="fill:#000000; fill-opacity:0.0; 
stroke:#000000; stroke-width:0.0000; stroke-opacity:1; 
stroke-linecap:round; stroke-linejoin:round;">
</g>
<g style="fill:#000000; fill-opacity:0.0; 
stroke:#000000; stroke-width:0.2540; stroke-opacity:1; 
stroke-linecap:round; stroke-linejoin:round;">
<text x="65.5602" y="79.9200"
textLength="2.6851" font-size="1.6933" lengthAdjust="spacingAndGlyphs"
text-anchor="middle" opacity="0">J1</text>
<g class="stroked-text"><desc>J1</desc>
<path d="M65.1369 78.5893
L65.1369 79.4965
" />
<path d="M65.1369 79.4965
L65.0764 79.6779
" />
<path d="M65.0764 79.6779
L64.9554 79.7988
" />
<path d="M64.9554 79.7988
L64.7740 79.8593
" />
<path d="M64.7740 79.8593
L64.6531 79.8593
" />
<path d="M66.4069 79.8593
L65.6812 79.8593
" />
<path d="M66.0440 79.8593
L66.0440 78.5893
" />
<path d="M66.0440 78.5893
L65.9231 78.7707
" />
<path d="M65.9231 78.7707
L65.8021 78.8917
" />
<path d="M65.8021 78.8917
L65.6812 78.9522
" />
</g></g>
<g style="fill:#000000; fill-opacity:0.0; 
stroke:#000000; stroke-width:0.1500; stroke-opacity:1; 
stroke-linecap:round; stroke-linejoin:round;">
<g transform="rotate(90.000000 69.3602 11.8000)">
<text x="69.3602" y="12.3000"
textLength="7.5833" font-size="1.3333" lengthAdjust="spacingAndGlyphs"
text-anchor="middle" opacity="0">IR 940nm</text>
</g>
<g class="stroked-text"><desc>IR 940nm</desc>
<path d="M68.9054 8.3714
L69.9054 8.3714
" />
<path d="M68.9054 9.4190
L69.3816 9.0857
" />
<path d="M68.9054 8.8476
L69.9054 8.8476
" />
<path d="M69.9054 8.8476
L69.9054 9.2286
" />
<path d="M69.9054 9.2286
L69.8578 9.3238
" />
<path d="M69.8578 9.3238
L69.8101 9.3714
" />
<path d="M69.8101 9.3714
L69.7149 9.4190
" />
<path d="M69.7149 9.4190
L69.5720 9.4190
" />
<path d="M69.5720 9.4190
L69.4768 9.3714
" />
<path d="M69.4768 9.3714
L69.4292 9.3238
" />
<path d="M69.4292 9.3238
L69.3816 9.2286
" />
<path d="M69.3816 9.2286
L69.3816 8.8476
" />
<path d="M68.9054 10.6571
L68.9054 10.8476
" />
<path d="M68.9054 10.8476
L68.9530 10.9429
" />
<path d="M68.9530 10.9429
L69.0006 10.9905
" />
<path d="M69.0006 10.9905
L69.1435 11.0857
" />
<path d="M69.1435 11.0857
L69.3340 11.1333
" />
<path d="M69.3340 11.1333
L69.7149 11.1333
" />
<path d="M69.7149 11.1333
L69.8101 11.0857
" />
<path d="M69.8101 11.0857
L69.8578 11.0381
" />
<path d="M69.8578 11.0381
L69.9054 10.9429
" />
<path d="M69.9054 10.9429
L69.9054 10.7524
" />
<path d="M69.9054 10.7524
L69.8578 10.6571
" />
<path d="M69.8578 10.6571
L69.8101 10.6095
" />
<path d="M69.8101 10.6095
L69.7149 10.5619
" />
<path d="M69.7149 10.5619
L69.4768 10.5619
" />
<path d="M69.4768 10.5619
L69.3816 10.6095
" />
<path d="M69.3816 10.6095
L69.3340 10.6571
" />
<path d="M69.3340 10.6571
L69.2863 10.7524
" />
<path d="M69.2863 10.7524
L69.2863 10.9429
" />
<path d="M69.2863 10.9429
L69.3340 11.0381
" />
<path d="M69.3340 11.0381
L69.3816 11.0857
" />
<path d="M69.3816 11.0857
L69.4768 11.1333
" />
<path d="M69.5720 11.9905
L68.9054 11.9905
" />
<path d="M69.9530 11.7524
L69.2387 11.5143
" />
<path d="M69.2387 11.5143
L69.2387 12.1333
" />
<path d="M69.9054 12.7048
L69.9054 12.8000
" />
<path d="M69.9054 12.8000
L69.8578 12.8952
" />
<path d="M69.8578 12.8952
L69.8101 12.9429
" />
<path d="M69.8101 12.9429
L69.7149 12.9905
" />
<path d="M69.7149 12.9905
L69.5244 13.0381
" />
<path d="M69.5244 13.0381
L69.2863 13.0381
" />
<path d="M69.2863 13.0381
L69.0959 12.9905
" />
<path d="M69.0959 12.9905
L69.0006 12.9429
" />
<path d="M69.0006 12.9429
L68.9530 12.8952
" />
<path d="M68.9530 12.8952
L68.9054 12.8000
" />
<path d="M68.9054 12.8000
L68.9054 12.7048
" />
<path d="M68.9054 12.7048
L68.9530 12.6095
" />
<path d="M68.9530 12.6095
L69.0006 12.5619
" />
<path d="M69.0006 12.5619
L69.0959 12.5143
" />
<path d="M69.0959 12.5143
L69.2863 12.4667
" />
<path d="M69.2863 12.4667
L69.5244 12.4667
" />
<path d="M69.5244 12.4667
L69.7149 12.5143
" />
<path d="M69.7149 12.5143
L69.8101 12.5619
" />
<path d="M69.8101 12.5619
L69.8578 12.6095
" />
<path d="M69.8578 12.6095
L69.9054 12.7048
" />
<path d="M69.5720 13.4667
L68.9054 13.4667
" />
<path d="M69.4768 13.4667
L69.5244 13.5143
" />
<path d="M69.5244 13.5143
L69.5720 13.6095
" />
<path d="M69.5720 13.6095
L69.5720 13.7524
" />
<path d="M69.5720 13.7524
L69.5244 13.8476
" />
<path d="M69.5244 13.8476
L69.4292 13.8952
" />
<path d="M69.4292 13.8952
L68.9054 13.8952
" />
<path d="M68.9054 14.3714
L69.5720 14.3714
" />
<path d="M69.4768 14.3714
L69.5244 14.4190
" />
<path d="M69.5244 14.4190
L69.5720 14.5143
" />
<path d="M69.5720 14.5143
L69.5720 14.6571
" />
<path d="M69.5720 14.6571
L69.5244 14.7524
" />
<path d="M69.5244 14.7524
L69.4292 14.8000
" />
<path d="M69.4292 14.8000
L68.9054 14.8000
" />
<path d="M69.4292 14.8000
L69.5244 14.8476
" />
<path d="M69.5244 14.8476
L69.5720 14.9429
" />
<path d="M69.5720 14.9429
L69.5720 15.0857
" />
<path d="M69.5720 15.0857
L69.5244 15.1810
" />
<path d="M69.5244 15.1810
L69.4292 15.2286
" />
<path d="M69.4292 15.2286
L68.9054 15.2286
" />
</g><g transform="rotate(-13.000000 100.9602 54.2000)">
<text x="100.9602" y="54.7000"
textLength="7.5833" font-size="1.3333" lengthAdjust="spacingAndGlyphs"
text-anchor="middle" opacity="0">IR 940nm</text>
</g>
<g class="stroked-text"><desc>IR 940nm</desc>
<path d="M97.7218 55.4144
L97.4969 54.4401
" />
<path d="M98.7426 55.1788
L98.3107 54.7898
" />
<path d="M98.1858 55.3073
L97.9608 54.3329
" />
<path d="M97.9608 54.3329
L98.3320 54.2472
" />
<path d="M98.3320 54.2472
L98.4355 54.2722
" />
<path d="M98.4355 54.2722
L98.4927 54.3079
" />
<path d="M98.4927 54.3079
L98.5605 54.3900
" />
<path d="M98.5605 54.3900
L98.5926 54.5292
" />
<path d="M98.5926 54.5292
L98.5676 54.6327
" />
<path d="M98.5676 54.6327
L98.5320 54.6898
" />
<path d="M98.5320 54.6898
L98.4499 54.7576
" />
<path d="M98.4499 54.7576
L98.0787 54.8433
" />
<path d="M99.9489 54.9002
L100.1345 54.8574
" />
<path d="M100.1345 54.8574
L100.2166 54.7896
" />
<path d="M100.2166 54.7896
L100.2523 54.7325
" />
<path d="M100.2523 54.7325
L100.3130 54.5718
" />
<path d="M100.3130 54.5718
L100.3165 54.3755
" />
<path d="M100.3165 54.3755
L100.2308 54.0044
" />
<path d="M100.2308 54.0044
L100.1630 53.9223
" />
<path d="M100.1630 53.9223
L100.1059 53.8866
" />
<path d="M100.1059 53.8866
L100.0024 53.8616
" />
<path d="M100.0024 53.8616
L99.8168 53.9045
" />
<path d="M99.8168 53.9045
L99.7347 53.9723
" />
<path d="M99.7347 53.9723
L99.6990 54.0294
" />
<path d="M99.6990 54.0294
L99.6740 54.1329
" />
<path d="M99.6740 54.1329
L99.7276 54.3649
" />
<path d="M99.7276 54.3649
L99.7954 54.4470
" />
<path d="M99.7954 54.4470
L99.8525 54.4827
" />
<path d="M99.8525 54.4827
L99.9560 54.5076
" />
<path d="M99.9560 54.5076
L100.1416 54.4648
" />
<path d="M100.1416 54.4648
L100.2237 54.3970
" />
<path d="M100.2237 54.3970
L100.2594 54.3399
" />
<path d="M100.2594 54.3399
L100.2844 54.2363
" />
<path d="M101.0981 53.9507
L101.2481 54.6003
" />
<path d="M100.7805 53.6331
L100.7091 54.3826
" />
<path d="M100.7091 54.3826
L101.3123 54.2434
" />
<path d="M101.7191 53.4653
L101.8119 53.4438
" />
<path d="M101.8119 53.4438
L101.9154 53.4688
" />
<path d="M101.9154 53.4688
L101.9726 53.5045
" />
<path d="M101.9726 53.5045
L102.0404 53.5866
" />
<path d="M102.0404 53.5866
L102.1296 53.7615
" />
<path d="M102.1296 53.7615
L102.1832 53.9935
" />
<path d="M102.1832 53.9935
L102.1796 54.1898
" />
<path d="M102.1796 54.1898
L102.1547 54.2933
" />
<path d="M102.1547 54.2933
L102.1190 54.3504
" />
<path d="M102.1190 54.3504
L102.0369 54.4182
" />
<path d="M102.0369 54.4182
L101.9441 54.4396
" />
<path d="M101.9441 54.4396
L101.8406 54.4147
" />
<path d="M101.8406 54.4147
L101.7835 54.3790
" />
<path d="M101.7835 54.3790
L101.7156 54.2969
" />
<path d="M101.7156 54.2969
L101.6264 54.1220
" />
<path d="M101.6264 54.1220
L101.5728 53.8900
" />
<path d="M101.5728 53.8900
L101.5764 53.6937
" />
<path d="M101.5764 53.6937
L101.6014 53.5902
" />
<path d="M101.6014 53.5902
L101.6371 53.5331
" />
<path d="M101.6371 53.5331
L101.7191 53.4653
" />
<path d="M102.5365 53.6187
L102.6865 54.2682
" />
<path d="M102.5579 53.7115
L102.5936 53.6544
" />
<path d="M102.5936 53.6544
L102.6757 53.5865
" />
<path d="M102.6757 53.5865
L102.8149 53.5544
" />
<path d="M102.8149 53.5544
L102.9184 53.5794
" />
<path d="M102.9184 53.5794
L102.9862 53.6615
" />
<path d="M102.9862 53.6615
L103.1041 54.1718
" />
<path d="M103.5680 54.0647
L103.4181 53.4151
" />
<path d="M103.4395 53.5079
L103.4752 53.4508
" />
<path d="M103.4752 53.4508
L103.5573 53.3830
" />
<path d="M103.5573 53.3830
L103.6965 53.3509
" />
<path d="M103.6965 53.3509
L103.8000 53.3758
" />
<path d="M103.8000 53.3758
L103.8678 53.4579
" />
<path d="M103.8678 53.4579
L103.9856 53.9683
" />
<path d="M103.8678 53.4579
L103.8928 53.3544
" />
<path d="M103.8928 53.3544
L103.9749 53.2866
" />
<path d="M103.9749 53.2866
L104.1140 53.2545
" />
<path d="M104.1140 53.2545
L104.2176 53.2794
" />
<path d="M104.2176 53.2794
L104.2854 53.3615
" />
<path d="M104.2854 53.3615
L104.4032 53.8719
" />
</g><g transform="rotate(90.000000 39.3602 11.2000)">
<text x="39.3602" y="11.7000"
textLength="7.5833" font-size="1.3333" lengthAdjust="spacingAndGlyphs"
text-anchor="middle" opacity="0">IR 940nm</text>
</g>
<g class="stroked-text"><desc>IR 940nm</desc>
<path d="M38.9054 7.7714
L39.9054 7.7714
" />
<path d="M38.9054 8.8190
L39.3816 8.4857
" />
<path d="M38.9054 8.2476
L39.9054 8.2476
" />
<path d="M39.9054 8.2476
L39.9054 8.6286
" />
<path d="M39.9054 8.6286
L39.8578 8.7238
" />
<path d="M39.8578 8.7238
L39.8101 8.7714
" />
<path d="M39.8101 8.7714
L39.7149 8.8190
" />
<path d="M39.7149 8.8190
L39.5720 8.8190
" />
<path d="M39.5720 8.8190
L39.4768 8.7714
" />
<path d="M39.4768 8.7714
L39.4292 8.7238
" />
<path d="M39.4292 8.7238
L39.3816 8.6286
" />
<path d="M39.3816 8.6286
L39.3816 8.2476
" />
<path d="M38.9054 10.0571
L38.9054 10.2476
" />
<path d="M38.9054 10.2476
L38.9530 10.3429
" />
<path d="M38.9530 10.3429
L39.0006 10.3905
" />
<path d="M39.0006 10.3905
L39.1435 10.4857
" />
<path d="M39.1435 10.4857
L39.3340 10.5333
" />
<path d="M39.3340 10.5333
L39.7149 10.5333
" />
<path d="M39.7149 10.5333
L39.8101 10.4857
" />
<path d="M39.8101 10.4857
L39.8578 10.4381
" />
<path d="M39.8578 10.4381
L39.9054 10.3429
" />
<path d="M39.9054 10.3429
L39.9054 10.1524
" />
<path d="M39.9054 10.1524
L39.8578 10.0571
" />
<path d="M39.8578 10.0571
L39.8101 10.0095
" />
<path d="M39.8101 10.0095
L39.7149 9.9619
" />
<path d="M39.7149 9.9619
L39.4768 9.9619
" />
<path d="M39.4768 9.9619
L39.3816 10.0095
" />
<path d="M39.3816 10.0095
L39.3340 10.0571
" />
<path d="M39.3340 10.0571
L39.2863 10.1524
" />
<path d="M39.2863 10.1524
L39.2863 10.3429
" />
<path d="M39.2863 10.3429
L39.3340 10.4381
" />
<path d="M39.3340 10.4381
L39.3816 10.4857
" />
<path d="M39.3816 10.4857
L39.4768 10.5333
" />
<path d="M39.5720 11.3905
L38.9054 11.3905
" />
<path d="M39.9530 11.1524
L39.2387 10.9143
" />
<path d="M39.2387 10.9143
L39.2387 11.5333
" />
<path d="M39.9054 12.1048
L39.9054 12.2000
" />
<path d="M39.9054 12.2000
L39.8578 12.2952
" />
<path d="M39.8578 12.2952
L39.8101 12.3429
" />
<path d="M39.8101 12.3429
L39.7149 12.3905
" />
<path d="M39.7149 12.3905
L39.5244 12.4381
" />
<path d="M39.5244 12.4381
L39.2863 12.4381
" />
<path d="M39.2863 12.4381
L39.0959 12.3905
" />
<path d="M39.0959 12.3905
L39.0006 12.3429
" />
<path d="M39.0006 12.3429
L38.9530 12.2952
" />
<path d="M38.9530 12.2952
L38.9054 12.2000
" />
<path d="M38.9054 12.2000
L38.9054 12.1048
" />
<path d="M38.9054 12.1048
L38.9530 12.0095
" />
<path d="M38.9530 12.0095
L39.0006 11.9619
" />
<path d="M39.0006 11.9619
L39.0959 11.9143
" />
<path d="M39.0959 11.9143
L39.2863 11.8667
" />
<path d="M39.2863 11.8667
L39.5244 11.8667
" />
<path d="M39.5244 11.8667
L39.7149 11.9143
" />
<path d="M39.7149 11.9143
L39.8101 11.9619
" />
<path d="M39.8101 11.9619
L39.8578 12.0095
" />
<path d="M39.8578 12.0095
L39.9054 12.1048
" />
<path d="M39.5720 12.8667
L38.9054 12.8667
" />
<path d="M39.4768 12.8667
L39.5244 12.9143
" />
<path d="M39.5244 12.9143
L39.5720 13.0095
" />
<path d="M39.5720 13.0095
L39.5720 13.1524
" />
<path d="M39.5720 13.1524
L39.5244 13.2476
" />
<path d="M39.5244 13.2476
L39.4292 13.2952
" />
<path d="M39.4292 13.2952
L38.9054 13.2952
" />
<path d="M38.9054 13.7714
L39.5720 13.7714
" />
<path d="M39.4768 13.7714
L39.5244 13.8190
" />
<path d="M39.5244 13.8190
L39.5720 13.9143
" />
<path d="M39.5720 13.9143
L39.5720 14.0571
" />
<path d="M39.5720 14.0571
L39.5244 14.1524
" />
<path d="M39.5244 14.1524
L39.4292 14.2000
" />
<path d="M39.4292 14.2000
L38.9054 14.2000
" />
<path d="M39.4292 14.2000
L39.5244 14.2476
" />
<path d="M39.5244 14.2476
L39.5720 14.3429
" />
<path d="M39.5720 14.3429
L39.5720 14.4857
" />
<path d="M39.5720 14.4857
L39.5244 14.5810
" />
<path d="M39.5244 14.5810
L39.4292 14.6286
" />
<path d="M39.4292 14.6286
L38.9054 14.6286
" />
</g></g>
<g style="fill:#000000; fill-opacity:0.0; 
stroke:#000000; stroke-width:0.2540; stroke-opacity:1; 
stroke-linecap:round; stroke-linejoin:round;">
<text x="78.5602" y="74.8350"
textLength="2.9270" font-size="1.6933" lengthAdjust="spacingAndGlyphs"
text-anchor="middle" opacity="0">S1</text>
<g class="stroked-text"><desc>S1</desc>
<path d="M77.5926 74.7138
L77.7740 74.7743
" />
<path d="M77.7740 74.7743
L78.0764 74.7743
" />
<path d="M78.0764 74.7743
L78.1973 74.7138
" />
<path d="M78.1973 74.7138
L78.2578 74.6534
" />
<path d="M78.2578 74.6534
L78.3183 74.5324
" />
<path d="M78.3183 74.5324
L78.3183 74.4115
" />
<path d="M78.3183 74.4115
L78.2578 74.2905
" />
<path d="M78.2578 74.2905
L78.1973 74.2300
" />
<path d="M78.1973 74.2300
L78.0764 74.1696
" />
<path d="M78.0764 74.1696
L77.8345 74.1091
" />
<path d="M77.8345 74.1091
L77.7135 74.0486
" />
<path d="M77.7135 74.0486
L77.6531 73.9881
" />
<path d="M77.6531 73.9881
L77.5926 73.8672
" />
<path d="M77.5926 73.8672
L77.5926 73.7462
" />
<path d="M77.5926 73.7462
L77.6531 73.6253
" />
<path d="M77.6531 73.6253
L77.7135 73.5648
" />
<path d="M77.7135 73.5648
L77.8345 73.5043
" />
<path d="M77.8345 73.5043
L78.1369 73.5043
" />
<path d="M78.1369 73.5043
L78.3183 73.5648
" />
<path d="M79.5278 74.7743
L78.8021 74.7743
" />
<path d="M79.1650 74.7743
L79.1650 73.5043
" />
<path d="M79.1650 73.5043
L79.0440 73.6857
" />
<path d="M79.0440 73.6857
L78.9231 73.8067
" />
<path d="M78.9231 73.8067
L78.8021 73.8672
" />
</g></g>
<g style="fill:#000000; fill-opacity:0.0; 
stroke:#000000; stroke-width:0.1500; stroke-opacity:1; 
stroke-linecap:round; stroke-linejoin:round;">
<text x="60.5602" y="23.1000"
textLength="12.6310" font-size="1.3333" lengthAdjust="spacingAndGlyphs"
text-anchor="middle" opacity="0">SK68xx_ec3210r</text>
<g class="stroked-text"><desc>SK68xx_ec3210r</desc>
<path d="M54.5602 23.0072
L54.7031 23.0548
" />
<path d="M54.7031 23.0548
L54.9412 23.0548
" />
<path d="M54.9412 23.0548
L55.0364 23.0072
" />
<path d="M55.0364 23.0072
L55.0840 22.9596
" />
<path d="M55.0840 22.9596
L55.1316 22.8643
" />
<path d="M55.1316 22.8643
L55.1316 22.7691
" />
<path d="M55.1316 22.7691
L55.0840 22.6739
" />
<path d="M55.0840 22.6739
L55.0364 22.6262
" />
<path d="M55.0364 22.6262
L54.9412 22.5786
" />
<path d="M54.9412 22.5786
L54.7507 22.5310
" />
<path d="M54.7507 22.5310
L54.6554 22.4834
" />
<path d="M54.6554 22.4834
L54.6078 22.4358
" />
<path d="M54.6078 22.4358
L54.5602 22.3405
" />
<path d="M54.5602 22.3405
L54.5602 22.2453
" />
<path d="M54.5602 22.2453
L54.6078 22.1501
" />
<path d="M54.6078 22.1501
L54.6554 22.1024
" />
<path d="M54.6554 22.1024
L54.7507 22.0548
" />
<path d="M54.7507 22.0548
L54.9888 22.0548
" />
<path d="M54.9888 22.0548
L55.1316 22.1024
" />
<path d="M55.5602 23.0548
L55.5602 22.0548
" />
<path d="M56.1316 23.0548
L55.7031 22.4834
" />
<path d="M56.1316 22.0548
L55.5602 22.6262
" />
<path d="M56.9888 22.0548
L56.7983 22.0548
" />
<path d="M56.7983 22.0548
L56.7031 22.1024
" />
<path d="M56.7031 22.1024
L56.6554 22.1501
" />
<path d="M56.6554 22.1501
L56.5602 22.2929
" />
<path d="M56.5602 22.2929
L56.5126 22.4834
" />
<path d="M56.5126 22.4834
L56.5126 22.8643
" />
<path d="M56.5126 22.8643
L56.5602 22.9596
" />
<path d="M56.5602 22.9596
L56.6078 23.0072
" />
<path d="M56.6078 23.0072
L56.7031 23.0548
" />
<path d="M56.7031 23.0548
L56.8935 23.0548
" />
<path d="M56.8935 23.0548
L56.9888 23.0072
" />
<path d="M56.9888 23.0072
L57.0364 22.9596
" />
<path d="M57.0364 22.9596
L57.0840 22.8643
" />
<path d="M57.0840 22.8643
L57.0840 22.6262
" />
<path d="M57.0840 22.6262
L57.0364 22.5310
" />
<path d="M57.0364 22.5310
L56.9888 22.4834
" />
<path d="M56.9888 22.4834
L56.8935 22.4358
" />
<path d="M56.8935 22.4358
L56.7031 22.4358
" />
<path d="M56.7031 22.4358
L56.6078 22.4834
" />
<path d="M56.6078 22.4834
L56.5602 22.5310
" />
<path d="M56.5602 22.5310
L56.5126 22.6262
" />
<path d="M57.6554 22.4834
L57.5602 22.4358
" />
<path d="M57.5602 22.4358
L57.5126 22.3882
" />
<path d="M57.5126 22.3882
L57.4650 22.2929
" />
<path d="M57.4650 22.2929
L57.4650 22.2453
" />
<path d="M57.4650 22.2453
L57.5126 22.1501
" />
<path d="M57.5126 22.1501
L57.5602 22.1024
" />
<path d="M57.5602 22.1024
L57.6554 22.0548
" />
<path d="M57.6554 22.0548
L57.8459 22.0548
" />
<path d="M57.8459 22.0548
L57.9412 22.1024
" />
<path d="M57.9412 22.1024
L57.9888 22.1501
" />
<path d="M57.9888 22.1501
L58.0364 22.2453
" />
<path d="M58.0364 22.2453
L58.0364 22.2929
" />
<path d="M58.0364 22.2929
L57.9888 22.3882
" />
<path d="M57.9888 22.3882
L57.9412 22.4358
" />
<path d="M57.9412 22.4358
L57.8459 22.4834
" />
<path d="M57.8459 22.4834
L57.6554 22.4834
" />
<path d="M57.6554 22.4834
L57.5602 22.5310
" />
<path d="M57.5602 22.5310
L57.5126 22.5786
" />
<path d="M57.5126 22.5786
L57.4650 22.6739
" />
<path d="M57.4650 22.6739
L57.4650 22.8643
" />
<path d="M57.4650 22.8643
L57.5126 22.9596
" />
<path d="M57.5126 22.9596
L57.5602 23.0072
" />
<path d="M57.5602 23.0072
L57.6554 23.0548
" />
<path d="M57.6554 23.0548
L57.8459 23.0548
" />
<path d="M57.8459 23.0548
L57.9412 23.0072
" />
<path d="M57.9412 23.0072
L57.9888 22.9596
" />
<path d="M57.9888 22.9596
L58.0364 22.8643
" />
<path d="M58.0364 22.8643
L58.0364 22.6739
" />
<path d="M58.0364 22.6739
L57.9888 22.5786
" />
<path d="M57.9888 22.5786
L57.9412 22.5310
" />
<path d="M57.9412 22.5310
L57.8459 22.4834
" />
<path d="M58.3697 23.0548
L58.8935 22.3882
" />
<path d="M58.3697 22.3882
L58.8935 23.0548
" />
<path d="M59.1792 23.0548
L59.7031 22.3882
" />
<path d="M59.1792 22.3882
L59.7031 23.0548
" />
<path d="M59.8459 23.1501
L60.6078 23.1501
" />
<path d="M61.2269 23.0072
L61.1316 23.0548
" />
<path d="M61.1316 23.0548
L60.9412 23.0548
" />
<path d="M60.9412 23.0548
L60.8459 23.0072
" />
<path d="M60.8459 23.0072
L60.7983 22.9120
" />
<path d="M60.7983 22.9120
L60.7983 22.5310
" />
<path d="M60.7983 22.5310
L60.8459 22.4358
" />
<path d="M60.8459 22.4358
L60.9412 22.3882
" />
<path d="M60.9412 22.3882
L61.1316 22.3882
" />
<path d="M61.1316 22.3882
L61.2269 22.4358
" />
<path d="M61.2269 22.4358
L61.2745 22.5310
" />
<path d="M61.2745 22.5310
L61.2745 22.6262
" />
<path d="M61.2745 22.6262
L60.7983 22.7215
" />
<path d="M62.1316 23.0072
L62.0364 23.0548
" />
<path d="M62.0364 23.0548
L61.8459 23.0548
" />
<path d="M61.8459 23.0548
L61.7507 23.0072
" />
<path d="M61.7507 23.0072
L61.7031 22.9596
" />
<path d="M61.7031 22.9596
L61.6554 22.8643
" />
<path d="M61.6554 22.8643
L61.6554 22.5786
" />
<path d="M61.6554 22.5786
L61.7031 22.4834
" />
<path d="M61.7031 22.4834
L61.7507 22.4358
" />
<path d="M61.7507 22.4358
L61.8459 22.3882
" />
<path d="M61.8459 22.3882
L62.0364 22.3882
" />
<path d="M62.0364 22.3882
L62.1316 22.4358
" />
<path d="M62.4650 22.0548
L63.0840 22.0548
" />
<path d="M63.0840 22.0548
L62.7507 22.4358
" />
<path d="M62.7507 22.4358
L62.8935 22.4358
" />
<path d="M62.8935 22.4358
L62.9888 22.4834
" />
<path d="M62.9888 22.4834
L63.0364 22.5310
" />
<path d="M63.0364 22.5310
L63.0840 22.6262
" />
<path d="M63.0840 22.6262
L63.0840 22.8643
" />
<path d="M63.0840 22.8643
L63.0364 22.9596
" />
<path d="M63.0364 22.9596
L62.9888 23.0072
" />
<path d="M62.9888 23.0072
L62.8935 23.0548
" />
<path d="M62.8935 23.0548
L62.6078 23.0548
" />
<path d="M62.6078 23.0548
L62.5126 23.0072
" />
<path d="M62.5126 23.0072
L62.4650 22.9596
" />
<path d="M63.4650 22.1501
L63.5126 22.1024
" />
<path d="M63.5126 22.1024
L63.6078 22.0548
" />
<path d="M63.6078 22.0548
L63.8459 22.0548
" />
<path d="M63.8459 22.0548
L63.9412 22.1024
" />
<path d="M63.9412 22.1024
L63.9888 22.1501
" />
<path d="M63.9888 22.1501
L64.0364 22.2453
" />
<path d="M64.0364 22.2453
L64.0364 22.3405
" />
<path d="M64.0364 22.3405
L63.9888 22.4834
" />
<path d="M63.9888 22.4834
L63.4173 23.0548
" />
<path d="M63.4173 23.0548
L64.0364 23.0548
" />
<path d="M64.9888 23.0548
L64.4173 23.0548
" />
<path d="M64.7031 23.0548
L64.7031 22.0548
" />
<path d="M64.7031 22.0548
L64.6078 22.1977
" />
<path d="M64.6078 22.1977
L64.5126 22.2929
" />
<path d="M64.5126 22.2929
L64.4173 22.3405
" />
<path d="M65.6078 22.0548
L65.7031 22.0548
" />
<path d="M65.7031 22.0548
L65.7983 22.1024
" />
<path d="M65.7983 22.1024
L65.8459 22.1501
" />
<path d="M65.8459 22.1501
L65.8935 22.2453
" />
<path d="M65.8935 22.2453
L65.9412 22.4358
" />
<path d="M65.9412 22.4358
L65.9412 22.6739
" />
<path d="M65.9412 22.6739
L65.8935 22.8643
" />
<path d="M65.8935 22.8643
L65.8459 22.9596
" />
<path d="M65.8459 22.9596
L65.7983 23.0072
" />
<path d="M65.7983 23.0072
L65.7031 23.0548
" />
<path d="M65.7031 23.0548
L65.6078 23.0548
" />
<path d="M65.6078 23.0548
L65.5126 23.0072
" />
<path d="M65.5126 23.0072
L65.4650 22.9596
" />
<path d="M65.4650 22.9596
L65.4173 22.8643
" />
<path d="M65.4173 22.8643
L65.3697 22.6739
" />
<path d="M65.3697 22.6739
L65.3697 22.4358
" />
<path d="M65.3697 22.4358
L65.4173 22.2453
" />
<path d="M65.4173 22.2453
L65.4650 22.1501
" />
<path d="M65.4650 22.1501
L65.5126 22.1024
" />
<path d="M65.5126 22.1024
L65.6078 22.0548
" />
<path d="M66.3697 23.0548
L66.3697 22.3882
" />
<path d="M66.3697 22.5786
L66.4173 22.4834
" />
<path d="M66.4173 22.4834
L66.4650 22.4358
" />
<path d="M66.4650 22.4358
L66.5602 22.3882
" />
<path d="M66.5602 22.3882
L66.6554 22.3882
" />
</g><g transform="rotate(13.000000 23.3602 55.0000)">
<text x="23.3602" y="55.5000"
textLength="7.5833" font-size="1.3333" lengthAdjust="spacingAndGlyphs"
text-anchor="middle" opacity="0">IR 940nm</text>
</g>
<g class="stroked-text"><desc>IR 940nm</desc>
<path d="M19.9172 54.6719
L20.1421 53.6975
" />
<path d="M20.9380 54.9076
L20.7203 54.3686
" />
<path d="M20.3812 54.7790
L20.6061 53.8046
" />
<path d="M20.6061 53.8046
L20.9773 53.8903
" />
<path d="M20.9773 53.8903
L21.0594 53.9582
" />
<path d="M21.0594 53.9582
L21.0951 54.0153
" />
<path d="M21.0951 54.0153
L21.1201 54.1188
" />
<path d="M21.1201 54.1188
L21.0879 54.2580
" />
<path d="M21.0879 54.2580
L21.0201 54.3401
" />
<path d="M21.0201 54.3401
L20.9630 54.3758
" />
<path d="M20.9630 54.3758
L20.8595 54.4007
" />
<path d="M20.8595 54.4007
L20.4883 54.3150
" />
<path d="M22.1443 55.1861
L22.3299 55.2289
" />
<path d="M22.3299 55.2289
L22.4334 55.2039
" />
<path d="M22.4334 55.2039
L22.4905 55.1683
" />
<path d="M22.4905 55.1683
L22.6155 55.0505
" />
<path d="M22.6155 55.0505
L22.7047 54.8756
" />
<path d="M22.7047 54.8756
L22.7904 54.5044
" />
<path d="M22.7904 54.5044
L22.7654 54.4009
" />
<path d="M22.7654 54.4009
L22.7298 54.3438
" />
<path d="M22.7298 54.3438
L22.6477 54.2760
" />
<path d="M22.6477 54.2760
L22.4621 54.2331
" />
<path d="M22.4621 54.2331
L22.3586 54.2581
" />
<path d="M22.3586 54.2581
L22.3015 54.2938
" />
<path d="M22.3015 54.2938
L22.2336 54.3759
" />
<path d="M22.2336 54.3759
L22.1801 54.6079
" />
<path d="M22.1801 54.6079
L22.2050 54.7114
" />
<path d="M22.2050 54.7114
L22.2407 54.7685
" />
<path d="M22.2407 54.7685
L22.3228 54.8363
" />
<path d="M22.3228 54.8363
L22.5084 54.8792
" />
<path d="M22.5084 54.8792
L22.6119 54.8542
" />
<path d="M22.6119 54.8542
L22.6690 54.8185
" />
<path d="M22.6690 54.8185
L22.7369 54.7364
" />
<path d="M23.5935 54.8364
L23.4435 55.4860
" />
<path d="M23.4472 54.4117
L23.0545 55.0541
" />
<path d="M23.0545 55.0541
L23.6577 55.1934
" />
<path d="M24.3644 54.6723
L24.4572 54.6937
" />
<path d="M24.4572 54.6937
L24.5393 54.7616
" />
<path d="M24.5393 54.7616
L24.5750 54.8187
" />
<path d="M24.5750 54.8187
L24.6000 54.9222
" />
<path d="M24.6000 54.9222
L24.6035 55.1185
" />
<path d="M24.6035 55.1185
L24.5499 55.3505
" />
<path d="M24.5499 55.3505
L24.4607 55.5254
" />
<path d="M24.4607 55.5254
L24.3929 55.6075
" />
<path d="M24.3929 55.6075
L24.3358 55.6431
" />
<path d="M24.3358 55.6431
L24.2323 55.6681
" />
<path d="M24.2323 55.6681
L24.1395 55.6467
" />
<path d="M24.1395 55.6467
L24.0574 55.5789
" />
<path d="M24.0574 55.5789
L24.0217 55.5218
" />
<path d="M24.0217 55.5218
L23.9967 55.4182
" />
<path d="M23.9967 55.4182
L23.9932 55.2219
" />
<path d="M23.9932 55.2219
L24.0467 54.9899
" />
<path d="M24.0467 54.9899
L24.1360 54.8151
" />
<path d="M24.1360 54.8151
L24.2038 54.7330
" />
<path d="M24.2038 54.7330
L24.2609 54.6973
" />
<path d="M24.2609 54.6973
L24.3644 54.6723
" />
<path d="M25.0318 55.1685
L24.8818 55.8181
" />
<path d="M25.0104 55.2613
L25.0675 55.2256
" />
<path d="M25.0675 55.2256
L25.1710 55.2006
" />
<path d="M25.1710 55.2006
L25.3102 55.2328
" />
<path d="M25.3102 55.2328
L25.3923 55.3006
" />
<path d="M25.3923 55.3006
L25.4173 55.4041
" />
<path d="M25.4173 55.4041
L25.2994 55.9145
" />
<path d="M25.7634 56.0216
L25.9134 55.3720
" />
<path d="M25.8920 55.4648
L25.9491 55.4291
" />
<path d="M25.9491 55.4291
L26.0526 55.4042
" />
<path d="M26.0526 55.4042
L26.1918 55.4363
" />
<path d="M26.1918 55.4363
L26.2739 55.5041
" />
<path d="M26.2739 55.5041
L26.2988 55.6076
" />
<path d="M26.2988 55.6076
L26.1810 56.1180
" />
<path d="M26.2988 55.6076
L26.3667 55.5255
" />
<path d="M26.3667 55.5255
L26.4702 55.5006
" />
<path d="M26.4702 55.5006
L26.6094 55.5327
" />
<path d="M26.6094 55.5327
L26.6914 55.6005
" />
<path d="M26.6914 55.6005
L26.7164 55.7040
" />
<path d="M26.7164 55.7040
L26.5986 56.2144
" />
</g></g>
<g style="fill:#000000; fill-opacity:0.0; 
stroke:#000000; stroke-width:0.1000; stroke-opacity:1; 
stroke-linecap:round; stroke-linejoin:round;">
<path d="M61.5602 83.0000
L69.5602 83.0000
" />
<path d="M69.5602 83.0000
L69.5602 76.4000
" />
<path d="M69.5602 76.4000
L61.5602 76.4000
" />
<path d="M61.5602 76.4000
L61.5602 83.0000
" />
<path d="M78.3302 12.5500
L78.3302 6.4500
" />
<path d="M78.3302 12.5500
L73.3302 12.5500
" />
</g>
<g style="fill:#000000; fill-opacity:1.0000; 
stroke:#000000; stroke-width:0.0000; stroke-opacity:1; 
stroke-linecap:round; stroke-linejoin:round;">
<circle cx="77.1002" cy="12.5500" r="0.0500" /> 
</g>
<g style="fill:#000000; fill-opacity:1.0000; 
stroke:#000000; stroke-width:0.1000; stroke-opacity:1; 
stroke-linecap:round; stroke-linejoin:round;">
</g>
<g style="fill:#000000; fill-opacity:0.0; 
stroke:#000000; stroke-width:0.1000; stroke-opacity:1; 
stroke-linecap:round; stroke-linejoin:round;">
<path d="M77.1002 12.5500
L77.1002 18.9000
" />
<path d="M77.1002 18.9000
L77.1002 12.5500
" />
</g>
<g style="fill:#000000; fill-opacity:1.0000; 
stroke:#000000; stroke-width:0.0000; stroke-opacity:1; 
stroke-linecap:round; stroke-linejoin:round;">
<circle cx="77.1002" cy="18.9000" r="0.0500" /> 
<circle cx="74.5602" cy="12.5500" r="0.0500" /> 
</g>
<g style="fill:#000000; fill-opacity:1.0000; 
stroke:#000000; stroke-width:0.1000; stroke-opacity:1; 
stroke-linecap:round; stroke-linejoin:round;">
</g>
<g style="fill:#000000; fill-opacity:0.0; 
stroke:#000000; stroke-width:0.1000; stroke-opacity:1; 
stroke-linecap:round; stroke-linejoin:round;">
<path d="M74.5602 12.5500
L74.5602 18.9000
" />
<path d="M74.5602 18.9000
L74.5602 12.5500
" />
</g>
<g style="fill:#000000; fill-opacity:1.0000; 
stroke:#000000; stroke-width:0.0000; stroke-opacity:1; 
stroke-linecap:round; stroke-linejoin:round;">
<circle cx="74.5602" cy="18.9000" r="0.0500" /> 
</g>
<g style="fill:#000000; fill-opacity:1.0000; 
stroke:#000000; stroke-width:0.1000; stroke-opacity:1; 
stroke-linecap:round; stroke-linejoin:round;">
</g>
<g style="fill:#000000; fill-opacity:0.0; 
stroke:#000000; stroke-width:0.1000; stroke-opacity:1; 
stroke-linecap:round; stroke-linejoin:round;">
<path d="M73.3302 11.5500
L73.3302 12.5500
" />
<path d="M73.3302 12.5500
L73.3302 6.4500
" />
<path d="M73.3302 12.5500
L72.9302 12.5500
" />
<path d="M72.9302 11.5500
L73.3302 11.5500
" />
<path d="M72.9302 12.5500
L72.9302 11.5500
" />
<path d="M78.3302 6.4500 A2.5000 2.5000 0.0 0 0 73.3302 6.4500" />
<path d="M101.5206 50.3163
L107.4643 48.9441
" />
<path d="M101.5206 50.3163
L100.3959 45.4445
" />
</g>
<g style="fill:#000000; fill-opacity:1.0000; 
stroke:#000000; stroke-width:0.0000; stroke-opacity:1; 
stroke-linecap:round; stroke-linejoin:round;">
<circle cx="101.2439" cy="49.1178" r="0.0500" /> 
</g>
<g style="fill:#000000; fill-opacity:1.0000; 
stroke:#000000; stroke-width:0.1000; stroke-opacity:1; 
stroke-linecap:round; stroke-linejoin:round;">
</g>
<g style="fill:#000000; fill-opacity:0.0; 
stroke:#000000; stroke-width:0.1000; stroke-opacity:1; 
stroke-linecap:round; stroke-linejoin:round;">
<path d="M101.2439 49.1178
L97.5316 49.9749
" />
<path d="M97.5316 49.9749
L101.2439 49.1178
" />
</g>
<g style="fill:#000000; fill-opacity:1.0000; 
stroke:#000000; stroke-width:0.0000; stroke-opacity:1; 
stroke-linecap:round; stroke-linejoin:round;">
<circle cx="97.5316" cy="49.9749" r="0.0500" /> 
<circle cx="100.6726" cy="46.6429" r="0.0500" /> 
</g>
<g style="fill:#000000; fill-opacity:1.0000; 
stroke:#000000; stroke-width:0.1000; stroke-opacity:1; 
stroke-linecap:round; stroke-linejoin:round;">
</g>
<g style="fill:#000000; fill-opacity:0.0; 
stroke:#000000; stroke-width:0.1000; stroke-opacity:1; 
stroke-linecap:round; stroke-linejoin:round;">
<path d="M100.6726 46.6429
L96.9602 47.5000
" />
<path d="M96.9602 47.5000
L100.6726 46.6429
" />
</g>
<g style="fill:#000000; fill-opacity:1.0000; 
stroke:#000000; stroke-width:0.0000; stroke-opacity:1; 
stroke-linecap:round; stroke-linejoin:round;">
<circle cx="96.9602" cy="47.5000" r="0.0500" /> 
</g>
<g style="fill:#000000; fill-opacity:1.0000; 
stroke:#000000; stroke-width:0.1000; stroke-opacity:1; 
stroke-linecap:round; stroke-linejoin:round;">
</g>
<g style="fill:#000000; fill-opacity:0.0; 
stroke:#000000; stroke-width:0.1000; stroke-opacity:1; 
stroke-linecap:round; stroke-linejoin:round;">
<path d="M101.3702 45.2195
L100.3959 45.4445
" />
<path d="M100.3959 45.4445
L106.3395 44.0723
" />
<path d="M100.3959 45.4445
L100.3059 45.0547
" />
<path d="M101.2802 44.8298
L101.3702 45.2195
" />
<path d="M100.3059 45.0547
L101.2802 44.8298
" />
<path d="M107.4643 48.9441 A2.5000 2.5000 0.0 1 0 106.3395 44.0723" />
<path d="M48.3302 12.5500
L48.3302 6.4500
" />
<path d="M48.3302 12.5500
L43.3302 12.5500
" />
</g>
<g style="fill:#000000; fill-opacity:1.0000; 
stroke:#000000; stroke-width:0.0000; stroke-opacity:1; 
stroke-linecap:round; stroke-linejoin:round;">
<circle cx="47.1002" cy="12.5500" r="0.0500" /> 
</g>
<g style="fill:#000000; fill-opacity:1.0000; 
stroke:#000000; stroke-width:0.1000; stroke-opacity:1; 
stroke-linecap:round; stroke-linejoin:round;">
</g>
<g style="fill:#000000; fill-opacity:0.0; 
stroke:#000000; stroke-width:0.1000; stroke-opacity:1; 
stroke-linecap:round; stroke-linejoin:round;">
<path d="M47.1002 12.5500
L47.1002 18.9000
" />
<path d="M47.1002 18.9000
L47.1002 12.5500
" />
</g>
<g style="fill:#000000; fill-opacity:1.0000; 
stroke:#000000; stroke-width:0.0000; stroke-opacity:1; 
stroke-linecap:round; stroke-linejoin:round;">
<circle cx="47.1002" cy="18.9000" r="0.0500" /> 
<circle cx="44.5602" cy="12.5500" r="0.0500" /> 
</g>
<g style="fill:#000000; fill-opacity:1.0000; 
stroke:#000000; stroke-width:0.1000; stroke-opacity:1; 
stroke-linecap:round; stroke-linejoin:round;">
</g>
<g style="fill:#000000; fill-opacity:0.0; 
stroke:#000000; stroke-width:0.1000; stroke-opacity:1; 
stroke-linecap:round; stroke-linejoin:round;">
<path d="M44.5602 12.5500
L44.5602 18.9000
" />
<path d="M44.5602 18.9000
L44.5602 12.5500
" />
</g>
<g style="fill:#000000; fill-opacity:1.0000; 
stroke:#000000; stroke-width:0.0000; stroke-opacity:1; 
stroke-linecap:round; stroke-linejoin:round;">
<circle cx="44.5602" cy="18.9000" r="0.0500" /> 
</g>
<g style="fill:#000000; fill-opacity:1.0000; 
stroke:#000000; stroke-width:0.1000; stroke-opacity:1; 
stroke-linecap:round; stroke-linejoin:round;">
</g>
<g style="fill:#000000; fill-opacity:0.0; 
stroke:#000000; stroke-width:0.1000; stroke-opacity:1; 
stroke-linecap:round; stroke-linejoin:round;">
<path d="M43.3302 11.5500
L43.3302 12.5500
" />
<path d="M43.3302 12.5500
L43.3302 6.4500
" />
<path d="M43.3302 12.5500
L42.9302 12.5500
" />
<path d="M42.9302 11.5500
L43.3302 11.5500
" />
<path d="M42.9302 12.5500
L42.9302 11.5500
" />
<path d="M48.3302 6.4500 A2.5000 2.5000 0.0 0 0 43.3302 6.4500" />
</g>
<g style="fill:#000000; fill-opacity:0.0; 
stroke:#000000; stroke-width:0.2000; stroke-opacity:1; 
stroke-linecap:round; stroke-linejoin:round;">
<path d="M80.0602 76.6500
L80.0602 79.1500
" />
<path d="M80.0602 79.1500
L77.0602 79.1500
" />
<path d="M79.4102 79.1500
L79.4102 79.8500
" />
<path d="M79.4102 79.8500
L77.7102 79.8500
" />
<path d="M77.7102 79.8500
L77.7102 79.1500
" />
<path d="M77.0602 76.6500
L80.0602 76.6500
" />
<path d="M77.0602 79.1500
L77.0602 76.6500
" />
</g>
<g style="fill:#000000; fill-opacity:0.0; 
stroke:#000000; stroke-width:0.1000; stroke-opacity:1; 
stroke-linecap:round; stroke-linejoin:round;">
<path d="M24.2245 45.9445
L18.2809 44.5723
" />
<path d="M24.2245 45.9445
L23.0998 50.8163
" />
</g>
<g style="fill:#000000; fill-opacity:1.0000; 
stroke:#000000; stroke-width:0.0000; stroke-opacity:1; 
stroke-linecap:round; stroke-linejoin:round;">
<circle cx="23.9478" cy="47.1429" r="0.0500" /> 
</g>
<g style="fill:#000000; fill-opacity:1.0000; 
stroke:#000000; stroke-width:0.1000; stroke-opacity:1; 
stroke-linecap:round; stroke-linejoin:round;">
</g>
<g style="fill:#000000; fill-opacity:0.0; 
stroke:#000000; stroke-width:0.1000; stroke-opacity:1; 
stroke-linecap:round; stroke-linejoin:round;">
<path d="M23.9478 47.1429
L27.6602 48.0000
" />
<path d="M27.6602 48.0000
L23.9478 47.1429
" />
</g>
<g style="fill:#000000; fill-opacity:1.0000; 
stroke:#000000; stroke-width:0.0000; stroke-opacity:1; 
stroke-linecap:round; stroke-linejoin:round;">
<circle cx="27.6602" cy="48.0000" r="0.0500" /> 
<circle cx="23.3765" cy="49.6178" r="0.0500" /> 
</g>
<g style="fill:#000000; fill-opacity:1.0000; 
stroke:#000000; stroke-width:0.1000; stroke-opacity:1; 
stroke-linecap:round; stroke-linejoin:round;">
</g>
<g style="fill:#000000; fill-opacity:0.0; 
stroke:#000000; stroke-width:0.1000; stroke-opacity:1; 
stroke-linecap:round; stroke-linejoin:round;">
<path d="M23.3765 49.6178
L27.0888 50.4749
" />
<path d="M27.0888 50.4749
L23.3765 49.6178
" />
</g>
<g style="fill:#000000; fill-opacity:1.0000; 
stroke:#000000; stroke-width:0.0000; stroke-opacity:1; 
stroke-linecap:round; stroke-linejoin:round;">
<circle cx="27.0888" cy="50.4749" r="0.0500" /> 
</g>
<g style="fill:#000000; fill-opacity:1.0000; 
stroke:#000000; stroke-width:0.1000; stroke-opacity:1; 
stroke-linecap:round; stroke-linejoin:round;">
</g>
<g style="fill:#000000; fill-opacity:0.0; 
stroke:#000000; stroke-width:0.1000; stroke-opacity:1; 
stroke-linecap:round; stroke-linejoin:round;">
<path d="M22.1254 50.5914
L23.0998 50.8163
" />
<path d="M23.0998 50.8163
L17.1561 49.4441
" />
<path d="M23.0998 50.8163
L23.0098 51.2061
" />
<path d="M22.0354 50.9811
L22.1254 50.5914
" />
<path d="M23.0098 51.2061
L22.0354 50.9811
" />
<path d="M18.2809 44.5723 A2.5000 2.5000 0.0 0 0 17.1561 49.4441" />
<g >
</g>
<g >
</g>
<g >
</g>
<g >
</g>
<g >
</g>
<g >
</g>
<g >
</g>
<g >
</g>
<g >
</g>
<g >
</g>
<g >
</g>
<g >
</g>
<g >
</g>
<g >
</g>
<g >
</g>
<g >
</g>
<g >
</g>
<g >
</g>
<g >
</g>
<g >
</g>
<g >
</g>
<g >
</g>
<g >
</g>
<g >
</g>
<g >
</g>
<g >
</g>
<g >
</g>
<g >
</g>
<g >
</g>
<g >
</g>
<g >
</g>
<g >
</g>
<g >
</g>
<g >
</g>
<g >
</g>
<g >
</g>
<g >
</g>
<g >
</g>
<g >
</g>
<g >
</g>
<g >
</g>
<g >
</g>
<g >
</g>
</g>
<g style="fill:#000000; fill-opacity:0.0; 
stroke:#000000; stroke-width:0.1000; stroke-opacity:1; 
stroke-linecap:round; stroke-linejoin:round;">
</g>
<g style="fill:#000000; fill-opacity:0.0; 
stroke:#000000; stroke-width:0.2540; stroke-opacity:1; 
stroke-linecap:round; stroke-linejoin:round;">
<text x="65.5602" y="79.9200"
textLength="2.6851" font-size="1.6933" lengthAdjust="spacingAndGlyphs"
text-anchor="middle" opacity="0">J1</text>
<g class="stroked-text"><desc>J1</desc>
<path d="M65.1369 78.5893
L65.1369 79.4965
" />
<path d="M65.1369 79.4965
L65.0764 79.6779
" />
<path d="M65.0764 79.6779
L64.9554 79.7988
" />
<path d="M64.9554 79.7988
L64.7740 79.8593
" />
<path d="M64.7740 79.8593
L64.6531 79.8593
" />
<path d="M66.4069 79.8593
L65.6812 79.8593
" />
<path d="M66.0440 79.8593
L66.0440 78.5893
" />
<path d="M66.0440 78.5893
L65.9231 78.7707
" />
<path d="M65.9231 78.7707
L65.8021 78.8917
" />
<path d="M65.8021 78.8917
L65.6812 78.9522
" />
</g></g>
<g style="fill:#000000; fill-opacity:0.0; 
stroke:#000000; stroke-width:0.1500; stroke-opacity:1; 
stroke-linecap:round; stroke-linejoin:round;">
<g transform="rotate(90.000000 70.9602 11.8000)">
<text x="70.9602" y="12.3000"
textLength="7.6786" font-size="1.3333" lengthAdjust="spacingAndGlyphs"
text-anchor="middle" opacity="0">D_FRONT1</text>
</g>
<g class="stroked-text"><desc>D_FRONT1</desc>
<path d="M70.5054 8.3238
L71.5054 8.3238
" />
<path d="M71.5054 8.3238
L71.5054 8.5619
" />
<path d="M71.5054 8.5619
L71.4578 8.7048
" />
<path d="M71.4578 8.7048
L71.3625 8.8000
" />
<path d="M71.3625 8.8000
L71.2673 8.8476
" />
<path d="M71.2673 8.8476
L71.0768 8.8952
" />
<path d="M71.0768 8.8952
L70.9340 8.8952
" />
<path d="M70.9340 8.8952
L70.7435 8.8476
" />
<path d="M70.7435 8.8476
L70.6482 8.8000
" />
<path d="M70.6482 8.8000
L70.5530 8.7048
" />
<path d="M70.5530 8.7048
L70.5054 8.5619
" />
<path d="M70.5054 8.5619
L70.5054 8.3238
" />
<path d="M70.4101 9.0857
L70.4101 9.8476
" />
<path d="M71.0292 10.4190
L71.0292 10.0857
" />
<path d="M70.5054 10.0857
L71.5054 10.0857
" />
<path d="M71.5054 10.0857
L71.5054 10.5619
" />
<path d="M70.5054 11.5143
L70.9816 11.1810
" />
<path d="M70.5054 10.9429
L71.5054 10.9429
" />
<path d="M71.5054 10.9429
L71.5054 11.3238
" />
<path d="M71.5054 11.3238
L71.4578 11.4190
" />
<path d="M71.4578 11.4190
L71.4101 11.4667
" />
<path d="M71.4101 11.4667
L71.3149 11.5143
" />
<path d="M71.3149 11.5143
L71.1720 11.5143
" />
<path d="M71.1720 11.5143
L71.0768 11.4667
" />
<path d="M71.0768 11.4667
L71.0292 11.4190
" />
<path d="M71.0292 11.4190
L70.9816 11.3238
" />
<path d="M70.9816 11.3238
L70.9816 10.9429
" />
<path d="M71.5054 12.1333
L71.5054 12.3238
" />
<path d="M71.5054 12.3238
L71.4578 12.4190
" />
<path d="M71.4578 12.4190
L71.3625 12.5143
" />
<path d="M71.3625 12.5143
L71.1720 12.5619
" />
<path d="M71.1720 12.5619
L70.8387 12.5619
" />
<path d="M70.8387 12.5619
L70.6482 12.5143
" />
<path d="M70.6482 12.5143
L70.5530 12.4190
" />
<path d="M70.5530 12.4190
L70.5054 12.3238
" />
<path d="M70.5054 12.3238
L70.5054 12.1333
" />
<path d="M70.5054 12.1333
L70.5530 12.0381
" />
<path d="M70.5530 12.0381
L70.6482 11.9429
" />
<path d="M70.6482 11.9429
L70.8387 11.8952
" />
<path d="M70.8387 11.8952
L71.1720 11.8952
" />
<path d="M71.1720 11.8952
L71.3625 11.9429
" />
<path d="M71.3625 11.9429
L71.4578 12.0381
" />
<path d="M71.4578 12.0381
L71.5054 12.1333
" />
<path d="M70.5054 12.9905
L71.5054 12.9905
" />
<path d="M71.5054 12.9905
L70.5054 13.5619
" />
<path d="M70.5054 13.5619
L71.5054 13.5619
" />
<path d="M71.5054 13.8952
L71.5054 14.4667
" />
<path d="M70.5054 14.1810
L71.5054 14.1810
" />
<path d="M70.5054 15.3238
L70.5054 14.7524
" />
<path d="M70.5054 15.0381
L71.5054 15.0381
" />
<path d="M71.5054 15.0381
L71.3625 14.9429
" />
<path d="M71.3625 14.9429
L71.2673 14.8476
" />
<path d="M71.2673 14.8476
L71.2197 14.7524
" />
</g><g transform="rotate(-13.000000 99.9602 52.8000)">
<text x="99.9602" y="53.3000"
textLength="6.2976" font-size="1.3333" lengthAdjust="spacingAndGlyphs"
text-anchor="middle" opacity="0">D_SIDE1</text>
</g>
<g class="stroked-text"><desc>D_SIDE1</desc>
<path d="M97.3482 53.8698
L97.1232 52.8954
" />
<path d="M97.1232 52.8954
L97.3552 52.8419
" />
<path d="M97.3552 52.8419
L97.5051 52.8561
" />
<path d="M97.5051 52.8561
L97.6194 52.9275
" />
<path d="M97.6194 52.9275
L97.6872 53.0096
" />
<path d="M97.6872 53.0096
L97.7764 53.1845
" />
<path d="M97.7764 53.1845
L97.8086 53.3237
" />
<path d="M97.8086 53.3237
L97.8050 53.5200
" />
<path d="M97.8050 53.5200
L97.7800 53.6235
" />
<path d="M97.7800 53.6235
L97.7087 53.7377
" />
<path d="M97.7087 53.7377
L97.5802 53.8163
" />
<path d="M97.5802 53.8163
L97.3482 53.8698
" />
<path d="M98.1120 53.7912
L98.8544 53.6198
" />
<path d="M99.0078 53.4378
L99.1577 53.4520
" />
<path d="M99.1577 53.4520
L99.3897 53.3985
" />
<path d="M99.3897 53.3985
L99.4718 53.3307
" />
<path d="M99.4718 53.3307
L99.5075 53.2736
" />
<path d="M99.5075 53.2736
L99.5325 53.1700
" />
<path d="M99.5325 53.1700
L99.5111 53.0772
" />
<path d="M99.5111 53.0772
L99.4432 52.9952
" />
<path d="M99.4432 52.9952
L99.3861 52.9595
" />
<path d="M99.3861 52.9595
L99.2826 52.9345
" />
<path d="M99.2826 52.9345
L99.0863 52.9309
" />
<path d="M99.0863 52.9309
L98.9828 52.9060
" />
<path d="M98.9828 52.9060
L98.9257 52.8703
" />
<path d="M98.9257 52.8703
L98.8579 52.7882
" />
<path d="M98.8579 52.7882
L98.8364 52.6954
" />
<path d="M98.8364 52.6954
L98.8614 52.5919
" />
<path d="M98.8614 52.5919
L98.8971 52.5348
" />
<path d="M98.8971 52.5348
L98.9792 52.4670
" />
<path d="M98.9792 52.4670
L99.2112 52.4134
" />
<path d="M99.2112 52.4134
L99.3611 52.4277
" />
<path d="M99.9929 53.2592
L99.7680 52.2849
" />
<path d="M100.4569 53.1521
L100.2319 52.1777
" />
<path d="M100.2319 52.1777
L100.4639 52.1242
" />
<path d="M100.4639 52.1242
L100.6138 52.1384
" />
<path d="M100.6138 52.1384
L100.7281 52.2098
" />
<path d="M100.7281 52.2098
L100.7959 52.2919
" />
<path d="M100.7959 52.2919
L100.8851 52.4668
" />
<path d="M100.8851 52.4668
L100.9173 52.6060
" />
<path d="M100.9173 52.6060
L100.9137 52.8023
" />
<path d="M100.9137 52.8023
L100.8888 52.9058
" />
<path d="M100.8888 52.9058
L100.8174 53.0200
" />
<path d="M100.8174 53.0200
L100.6889 53.0985
" />
<path d="M100.6889 53.0985
L100.4569 53.1521
" />
<path d="M101.3134 52.4168
L101.6382 52.3418
" />
<path d="M101.8953 52.8200
L101.4313 52.9272
" />
<path d="M101.4313 52.9272
L101.2063 51.9528
" />
<path d="M101.2063 51.9528
L101.6703 51.8457
" />
<path d="M102.8232 52.6058
L102.2664 52.7343
" />
<path d="M102.5448 52.6701
L102.3199 51.6957
" />
<path d="M102.3199 51.6957
L102.2592 51.8563
" />
<path d="M102.2592 51.8563
L102.1879 51.9705
" />
<path d="M102.1879 51.9705
L102.1058 52.0384
" />
</g><g transform="rotate(90.000000 41.1602 11.2000)">
<text x="41.1602" y="11.7000"
textLength="7.6786" font-size="1.3333" lengthAdjust="spacingAndGlyphs"
text-anchor="middle" opacity="0">D_FRONT2</text>
</g>
<g class="stroked-text"><desc>D_FRONT2</desc>
<path d="M40.7054 7.7238
L41.7054 7.7238
" />
<path d="M41.7054 7.7238
L41.7054 7.9619
" />
<path d="M41.7054 7.9619
L41.6578 8.1048
" />
<path d="M41.6578 8.1048
L41.5625 8.2000
" />
<path d="M41.5625 8.2000
L41.4673 8.2476
" />
<path d="M41.4673 8.2476
L41.2768 8.2952
" />
<path d="M41.2768 8.2952
L41.1340 8.2952
" />
<path d="M41.1340 8.2952
L40.9435 8.2476
" />
<path d="M40.9435 8.2476
L40.8482 8.2000
" />
<path d="M40.8482 8.2000
L40.7530 8.1048
" />
<path d="M40.7530 8.1048
L40.7054 7.9619
" />
<path d="M40.7054 7.9619
L40.7054 7.7238
" />
<path d="M40.6101 8.4857
L40.6101 9.2476
" />
<path d="M41.2292 9.8190
L41.2292 9.4857
" />
<path d="M40.7054 9.4857
L41.7054 9.4857
" />
<path d="M41.7054 9.4857
L41.7054 9.9619
" />
<path d="M40.7054 10.9143
L41.1816 10.5810
" />
<path d="M40.7054 10.3429
L41.7054 10.3429
" />
<path d="M41.7054 10.3429
L41.7054 10.7238
" />
<path d="M41.7054 10.7238
L41.6578 10.8190
" />
<path d="M41.6578 10.8190
L41.6101 10.8667
" />
<path d="M41.6101 10.8667
L41.5149 10.9143
" />
<path d="M41.5149 10.9143
L41.3720 10.9143
" />
<path d="M41.3720 10.9143
L41.2768 10.8667
" />
<path d="M41.2768 10.8667
L41.2292 10.8190
" />
<path d="M41.2292 10.8190
L41.1816 10.7238
" />
<path d="M41.1816 10.7238
L41.1816 10.3429
" />
<path d="M41.7054 11.5333
L41.7054 11.7238
" />
<path d="M41.7054 11.7238
L41.6578 11.8190
" />
<path d="M41.6578 11.8190
L41.5625 11.9143
" />
<path d="M41.5625 11.9143
L41.3720 11.9619
" />
<path d="M41.3720 11.9619
L41.0387 11.9619
" />
<path d="M41.0387 11.9619
L40.8482 11.9143
" />
<path d="M40.8482 11.9143
L40.7530 11.8190
" />
<path d="M40.7530 11.8190
L40.7054 11.7238
" />
<path d="M40.7054 11.7238
L40.7054 11.5333
" />
<path d="M40.7054 11.5333
L40.7530 11.4381
" />
<path d="M40.7530 11.4381
L40.8482 11.3429
" />
<path d="M40.8482 11.3429
L41.0387 11.2952
" />
<path d="M41.0387 11.2952
L41.3720 11.2952
" />
<path d="M41.3720 11.2952
L41.5625 11.3429
" />
<path d="M41.5625 11.3429
L41.6578 11.4381
" />
<path d="M41.6578 11.4381
L41.7054 11.5333
" />
<path d="M40.7054 12.3905
L41.7054 12.3905
" />
<path d="M41.7054 12.3905
L40.7054 12.9619
" />
<path d="M40.7054 12.9619
L41.7054 12.9619
" />
<path d="M41.7054 13.2952
L41.7054 13.8667
" />
<path d="M40.7054 13.5810
L41.7054 13.5810
" />
<path d="M41.6101 14.1524
L41.6578 14.2000
" />
<path d="M41.6578 14.2000
L41.7054 14.2952
" />
<path d="M41.7054 14.2952
L41.7054 14.5333
" />
<path d="M41.7054 14.5333
L41.6578 14.6286
" />
<path d="M41.6578 14.6286
L41.6101 14.6762
" />
<path d="M41.6101 14.6762
L41.5149 14.7238
" />
<path d="M41.5149 14.7238
L41.4197 14.7238
" />
<path d="M41.4197 14.7238
L41.2768 14.6762
" />
<path d="M41.2768 14.6762
L40.7054 14.1048
" />
<path d="M40.7054 14.1048
L40.7054 14.7238
" />
</g></g>
<g style="fill:#000000; fill-opacity:0.0; 
stroke:#000000; stroke-width:0.2540; stroke-opacity:1; 
stroke-linecap:round; stroke-linejoin:round;">
<text x="78.5602" y="74.8350"
textLength="2.9270" font-size="1.6933" lengthAdjust="spacingAndGlyphs"
text-anchor="middle" opacity="0">S1</text>
<g class="stroked-text"><desc>S1</desc>
<path d="M77.5926 74.7138
L77.7740 74.7743
" />
<path d="M77.7740 74.7743
L78.0764 74.7743
" />
<path d="M78.0764 74.7743
L78.1973 74.7138
" />
<path d="M78.1973 74.7138
L78.2578 74.6534
" />
<path d="M78.2578 74.6534
L78.3183 74.5324
" />
<path d="M78.3183 74.5324
L78.3183 74.4115
" />
<path d="M78.3183 74.4115
L78.2578 74.2905
" />
<path d="M78.2578 74.2905
L78.1973 74.2300
" />
<path d="M78.1973 74.2300
L78.0764 74.1696
" />
<path d="M78.0764 74.1696
L77.8345 74.1091
" />
<path d="M77.8345 74.1091
L77.7135 74.0486
" />
<path d="M77.7135 74.0486
L77.6531 73.9881
" />
<path d="M77.6531 73.9881
L77.5926 73.8672
" />
<path d="M77.5926 73.8672
L77.5926 73.7462
" />
<path d="M77.5926 73.7462
L77.6531 73.6253
" />
<path d="M77.6531 73.6253
L77.7135 73.5648
" />
<path d="M77.7135 73.5648
L77.8345 73.5043
" />
<path d="M77.8345 73.5043
L78.1369 73.5043
" />
<path d="M78.1369 73.5043
L78.3183 73.5648
" />
<path d="M79.5278 74.7743
L78.8021 74.7743
" />
<path d="M79.1650 74.7743
L79.1650 73.5043
" />
<path d="M79.1650 73.5043
L79.0440 73.6857
" />
<path d="M79.0440 73.6857
L78.9231 73.8067
" />
<path d="M78.9231 73.8067
L78.8021 73.8672
" />
</g></g>
<g style="fill:#000000; fill-opacity:0.0; 
stroke:#000000; stroke-width:0.1000; stroke-opacity:1; 
stroke-linecap:round; stroke-linejoin:round;">
<text x="60.5602" y="21.5000"
textLength="2.0524" font-size="1.3333" lengthAdjust="spacingAndGlyphs"
text-anchor="middle" opacity="0">D1</text>
<g class="stroked-text"><desc>D1</desc>
<path d="M59.8221 21.4574
L59.8221 20.4574
" />
<path d="M59.8221 20.4574
L60.0602 20.4574
" />
<path d="M60.0602 20.4574
L60.2031 20.5050
" />
<path d="M60.2031 20.5050
L60.2983 20.6003
" />
<path d="M60.2983 20.6003
L60.3459 20.6955
" />
<path d="M60.3459 20.6955
L60.3935 20.8860
" />
<path d="M60.3935 20.8860
L60.3935 21.0288
" />
<path d="M60.3935 21.0288
L60.3459 21.2193
" />
<path d="M60.3459 21.2193
L60.2983 21.3146
" />
<path d="M60.2983 21.3146
L60.2031 21.4098
" />
<path d="M60.2031 21.4098
L60.0602 21.4574
" />
<path d="M60.0602 21.4574
L59.8221 21.4574
" />
<path d="M61.3459 21.4574
L60.7745 21.4574
" />
<path d="M61.0602 21.4574
L61.0602 20.4574
" />
<path d="M61.0602 20.4574
L60.9650 20.6003
" />
<path d="M60.9650 20.6003
L60.8697 20.6955
" />
<path d="M60.8697 20.6955
L60.7745 20.7431
" />
</g></g>
<g style="fill:#000000; fill-opacity:0.0; 
stroke:#000000; stroke-width:0.1500; stroke-opacity:1; 
stroke-linecap:round; stroke-linejoin:round;">
<g transform="rotate(13.000000 23.7602 53.4000)">
<text x="23.7602" y="53.9000"
textLength="6.2976" font-size="1.3333" lengthAdjust="spacingAndGlyphs"
text-anchor="middle" opacity="0">D_SIDE2</text>
</g>
<g class="stroked-text"><desc>D_SIDE2</desc>
<path d="M20.9436 53.2165
L21.1685 52.2421
" />
<path d="M21.1685 52.2421
L21.4005 52.2957
" />
<path d="M21.4005 52.2957
L21.5290 52.3742
" />
<path d="M21.5290 52.3742
L21.6004 52.4885
" />
<path d="M21.6004 52.4885
L21.6253 52.5920
" />
<path d="M21.6253 52.5920
L21.6289 52.7883
" />
<path d="M21.6289 52.7883
L21.5968 52.9275
" />
<path d="M21.5968 52.9275
L21.5075 53.1023
" />
<path d="M21.5075 53.1023
L21.4397 53.1844
" />
<path d="M21.4397 53.1844
L21.3255 53.2558
" />
<path d="M21.3255 53.2558
L21.1756 53.2701
" />
<path d="M21.1756 53.2701
L20.9436 53.2165
" />
<path d="M21.6645 53.4807
L22.4069 53.6521
" />
<path d="M22.6246 53.5557
L22.7531 53.6343
" />
<path d="M22.7531 53.6343
L22.9851 53.6878
" />
<path d="M22.9851 53.6878
L23.0886 53.6629
" />
<path d="M23.0886 53.6629
L23.1457 53.6272
" />
<path d="M23.1457 53.6272
L23.2136 53.5451
" />
<path d="M23.2136 53.5451
L23.2350 53.4523
" />
<path d="M23.2350 53.4523
L23.2100 53.3488
" />
<path d="M23.2100 53.3488
L23.1743 53.2917
" />
<path d="M23.1743 53.2917
L23.0922 53.2239
" />
<path d="M23.0922 53.2239
L22.9173 53.1346
" />
<path d="M22.9173 53.1346
L22.8353 53.0668
" />
<path d="M22.8353 53.0668
L22.7996 53.0097
" />
<path d="M22.7996 53.0097
L22.7746 52.9062
" />
<path d="M22.7746 52.9062
L22.7960 52.8134
" />
<path d="M22.7960 52.8134
L22.8638 52.7313
" />
<path d="M22.8638 52.7313
L22.9210 52.6956
" />
<path d="M22.9210 52.6956
L23.0245 52.6706
" />
<path d="M23.0245 52.6706
L23.2565 52.7242
" />
<path d="M23.2565 52.7242
L23.3849 52.8027
" />
<path d="M23.5883 53.8271
L23.8132 52.8527
" />
<path d="M24.0523 53.9342
L24.2772 52.9598
" />
<path d="M24.2772 52.9598
L24.5092 53.0134
" />
<path d="M24.5092 53.0134
L24.6377 53.0919
" />
<path d="M24.6377 53.0919
L24.7091 53.2062
" />
<path d="M24.7091 53.2062
L24.7341 53.3097
" />
<path d="M24.7341 53.3097
L24.7376 53.5060
" />
<path d="M24.7376 53.5060
L24.7055 53.6452
" />
<path d="M24.7055 53.6452
L24.6162 53.8201
" />
<path d="M24.6162 53.8201
L24.5484 53.9021
" />
<path d="M24.5484 53.9021
L24.4342 53.9735
" />
<path d="M24.4342 53.9735
L24.2843 53.9878
" />
<path d="M24.2843 53.9878
L24.0523 53.9342
" />
<path d="M25.1445 53.6488
L25.4693 53.7238
" />
<path d="M25.4906 54.2663
L25.0266 54.1592
" />
<path d="M25.0266 54.1592
L25.2516 53.1848
" />
<path d="M25.2516 53.1848
L25.7156 53.2919
" />
<path d="M26.0653 53.4704
L26.1225 53.4347
" />
<path d="M26.1225 53.4347
L26.2260 53.4097
" />
<path d="M26.2260 53.4097
L26.4580 53.4633
" />
<path d="M26.4580 53.4633
L26.5400 53.5311
" />
<path d="M26.5400 53.5311
L26.5757 53.5882
" />
<path d="M26.5757 53.5882
L26.6007 53.6917
" />
<path d="M26.6007 53.6917
L26.5793 53.7845
" />
<path d="M26.5793 53.7845
L26.5007 53.9130
" />
<path d="M26.5007 53.9130
L25.8154 54.3413
" />
<path d="M25.8154 54.3413
L26.4186 54.4805
" />
</g></g>
<g style="fill:#000000; fill-opacity:0.0; 
stroke:#000000; stroke-width:0.2000; stroke-opacity:1; 
stroke-linecap:round; stroke-linejoin:round;">
<path d="M61.5602 82.1500
L61.5602 83.0000
" />
<path d="M61.5602 83.0000
L69.5602 83.0000
" />
<path d="M69.5602 83.0000
L69.5602 82.1500
" />
<path d="M69.5602 79.1500
L69.5602 78.3500
" />
<path d="M61.5602 78.3500
L61.5602 79.1500
" />
</g>
<g style="fill:#000000; fill-opacity:1.0000; 
stroke:#000000; stroke-width:0.0000; stroke-opacity:1; 
stroke-linecap:round; stroke-linejoin:round;">
<circle cx="64.2602" cy="75.1000" r="0.0500" /> 
<circle cx="64.2602" cy="75.2000" r="0.0500" /> 
</g>
<g style="fill:#000000; fill-opacity:0.0; 
stroke:#000000; stroke-width:0.1000; stroke-opacity:1; 
stroke-linecap:round; stroke-linejoin:round;">
<path d="M64.2602 75.1000 A0.0500 0.0500 0.0 0 0 64.2602 75.2000" />
<path d="M64.2602 75.2000 A0.0500 0.0500 0.0 0 0 64.2602 75.1000" />
</g>
<g style="fill:#000000; fill-opacity:0.0; 
stroke:#000000; stroke-width:0.1200; stroke-opacity:1; 
stroke-linecap:round; stroke-linejoin:round;">
<path d="M78.3902 12.6100
L78.3902 6.4500
" />
<path d="M78.3902 12.6100
L73.2702 12.6100
" />
</g>
<g style="fill:#000000; fill-opacity:1.0000; 
stroke:#000000; stroke-width:0.0000; stroke-opacity:1; 
stroke-linecap:round; stroke-linejoin:round;">
<circle cx="77.1002" cy="12.6100" r="0.0600" /> 
</g>
<g style="fill:#000000; fill-opacity:1.0000; 
stroke:#000000; stroke-width:0.1200; stroke-opacity:1; 
stroke-linecap:round; stroke-linejoin:round;">
</g>
<g style="fill:#000000; fill-opacity:0.0; 
stroke:#000000; stroke-width:0.1200; stroke-opacity:1; 
stroke-linecap:round; stroke-linejoin:round;">
<path d="M77.1002 12.6100
L77.1002 17.8200
" />
<path d="M77.1002 17.8200
L77.1002 12.6100
" />
</g>
<g style="fill:#000000; fill-opacity:1.0000; 
stroke:#000000; stroke-width:0.0000; stroke-opacity:1; 
stroke-linecap:round; stroke-linejoin:round;">
<circle cx="77.1002" cy="17.8200" r="0.0600" /> 
<circle cx="74.5602" cy="12.6100" r="0.0600" /> 
</g>
<g style="fill:#000000; fill-opacity:1.0000; 
stroke:#000000; stroke-width:0.1200; stroke-opacity:1; 
stroke-linecap:round; stroke-linejoin:round;">
</g>
<g style="fill:#000000; fill-opacity:0.0; 
stroke:#000000; stroke-width:0.1200; stroke-opacity:1; 
stroke-linecap:round; stroke-linejoin:round;">
<path d="M74.5602 12.6100
L74.5602 17.8200
" />
<path d="M74.5602 17.8200
L74.5602 12.6100
" />
</g>
<g style="fill:#000000; fill-opacity:1.0000; 
stroke:#000000; stroke-width:0.0000; stroke-opacity:1; 
stroke-linecap:round; stroke-linejoin:round;">
<circle cx="74.5602" cy="17.8200" r="0.0600" /> 
</g>
<g style="fill:#000000; fill-opacity:1.0000; 
stroke:#000000; stroke-width:0.1200; stroke-opacity:1; 
stroke-linecap:round; stroke-linejoin:round;">
</g>
<g style="fill:#000000; fill-opacity:0.0; 
stroke:#000000; stroke-width:0.1200; stroke-opacity:1; 
stroke-linecap:round; stroke-linejoin:round;">
<path d="M73.2702 11.4900
L73.2702 12.6100
" />
<path d="M73.2702 12.6100
L73.2702 6.4500
" />
<path d="M73.2702 12.6100
L72.8702 12.6100
" />
<path d="M72.8702 11.4900
L73.2702 11.4900
" />
<path d="M72.8702 12.6100
L72.8702 11.4900
" />
<path d="M78.3902 6.4500 A2.5600 2.5600 0.0 0 0 73.2702 6.4500" />
<path d="M101.4757 50.3883
L107.4778 49.0026
" />
<path d="M101.4757 50.3883
L100.3239 45.3995
" />
</g>
<g style="fill:#000000; fill-opacity:1.0000; 
stroke:#000000; stroke-width:0.0000; stroke-opacity:1; 
stroke-linecap:round; stroke-linejoin:round;">
<circle cx="101.1855" cy="49.1313" r="0.0600" /> 
</g>
<g style="fill:#000000; fill-opacity:1.0000; 
stroke:#000000; stroke-width:0.1200; stroke-opacity:1; 
stroke-linecap:round; stroke-linejoin:round;">
</g>
<g style="fill:#000000; fill-opacity:0.0; 
stroke:#000000; stroke-width:0.1200; stroke-opacity:1; 
stroke-linecap:round; stroke-linejoin:round;">
<path d="M101.1855 49.1313
L98.5839 49.7320
" />
<path d="M98.5839 49.7320
L101.1855 49.1313
" />
</g>
<g style="fill:#000000; fill-opacity:1.0000; 
stroke:#000000; stroke-width:0.0000; stroke-opacity:1; 
stroke-linecap:round; stroke-linejoin:round;">
<circle cx="98.5839" cy="49.7320" r="0.0600" /> 
<circle cx="100.6141" cy="46.6564" r="0.0600" /> 
</g>
<g style="fill:#000000; fill-opacity:1.0000; 
stroke:#000000; stroke-width:0.1200; stroke-opacity:1; 
stroke-linecap:round; stroke-linejoin:round;">
</g>
<g style="fill:#000000; fill-opacity:0.0; 
stroke:#000000; stroke-width:0.1200; stroke-opacity:1; 
stroke-linecap:round; stroke-linejoin:round;">
<path d="M100.6141 46.6564
L98.0125 47.2571
" />
<path d="M98.0125 47.2571
L100.6141 46.6564
" />
</g>
<g style="fill:#000000; fill-opacity:1.0000; 
stroke:#000000; stroke-width:0.0000; stroke-opacity:1; 
stroke-linecap:round; stroke-linejoin:round;">
<circle cx="98.0125" cy="47.2571" r="0.0600" /> 
</g>
<g style="fill:#000000; fill-opacity:1.0000; 
stroke:#000000; stroke-width:0.1200; stroke-opacity:1; 
stroke-linecap:round; stroke-linejoin:round;">
</g>
<g style="fill:#000000; fill-opacity:0.0; 
stroke:#000000; stroke-width:0.1200; stroke-opacity:1; 
stroke-linecap:round; stroke-linejoin:round;">
<path d="M101.4152 45.1476
L100.3239 45.3995
" />
<path d="M100.3239 45.3995
L106.3260 44.0138
" />
<path d="M100.3239 45.3995
L100.2339 45.0097
" />
<path d="M101.3252 44.7578
L101.4152 45.1476
" />
<path d="M100.2339 45.0097
L101.3252 44.7578
" />
<path d="M107.4778 49.0026 A2.5600 2.5600 0.0 1 0 106.3260 44.0138" />
<path d="M48.3902 12.6100
L48.3902 6.4500
" />
<path d="M48.3902 12.6100
L43.2702 12.6100
" />
</g>
<g style="fill:#000000; fill-opacity:1.0000; 
stroke:#000000; stroke-width:0.0000; stroke-opacity:1; 
stroke-linecap:round; stroke-linejoin:round;">
<circle cx="47.1002" cy="12.6100" r="0.0600" /> 
</g>
<g style="fill:#000000; fill-opacity:1.0000; 
stroke:#000000; stroke-width:0.1200; stroke-opacity:1; 
stroke-linecap:round; stroke-linejoin:round;">
</g>
<g style="fill:#000000; fill-opacity:0.0; 
stroke:#000000; stroke-width:0.1200; stroke-opacity:1; 
stroke-linecap:round; stroke-linejoin:round;">
<path d="M47.1002 12.6100
L47.1002 17.8200
" />
<path d="M47.1002 17.8200
L47.1002 12.6100
" />
</g>
<g style="fill:#000000; fill-opacity:1.0000; 
stroke:#000000; stroke-width:0.0000; stroke-opacity:1; 
stroke-linecap:round; stroke-linejoin:round;">
<circle cx="47.1002" cy="17.8200" r="0.0600" /> 
<circle cx="44.5602" cy="12.6100" r="0.0600" /> 
</g>
<g style="fill:#000000; fill-opacity:1.0000; 
stroke:#000000; stroke-width:0.1200; stroke-opacity:1; 
stroke-linecap:round; stroke-linejoin:round;">
</g>
<g style="fill:#000000; fill-opacity:0.0; 
stroke:#000000; stroke-width:0.1200; stroke-opacity:1; 
stroke-linecap:round; stroke-linejoin:round;">
<path d="M44.5602 12.6100
L44.5602 17.8200
" />
<path d="M44.5602 17.8200
L44.5602 12.6100
" />
</g>
<g style="fill:#000000; fill-opacity:1.0000; 
stroke:#000000; stroke-width:0.0000; stroke-opacity:1; 
stroke-linecap:round; stroke-linejoin:round;">
<circle cx="44.5602" cy="17.8200" r="0.0600" /> 
</g>
<g style="fill:#000000; fill-opacity:1.0000; 
stroke:#000000; stroke-width:0.1200; stroke-opacity:1; 
stroke-linecap:round; stroke-linejoin:round;">
</g>
<g style="fill:#000000; fill-opacity:0.0; 
stroke:#000000; stroke-width:0.1200; stroke-opacity:1; 
stroke-linecap:round; stroke-linejoin:round;">
<path d="M43.2702 11.4900
L43.2702 12.6100
" />
<path d="M43.2702 12.6100
L43.2702 6.4500
" />
<path d="M43.2702 12.6100
L42.8702 12.6100
" />
<path d="M42.8702 11.4900
L43.2702 11.4900
" />
<path d="M42.8702 12.6100
L42.8702 11.4900
" />
<path d="M48.3902 6.4500 A2.5600 2.5600 0.0 0 0 43.2702 6.4500" />
</g>
<g style="fill:#000000; fill-opacity:0.0; 
stroke:#000000; stroke-width:0.1000; stroke-opacity:1; 
stroke-linecap:round; stroke-linejoin:round;">
<path d="M80.0602 76.6500
L77.0602 76.6500
" />
<path d="M80.0602 79.1500
L79.4102 79.1500
" />
<path d="M79.4102 79.1500
L79.4102 79.8500
" />
<path d="M79.4102 79.8500
L77.7102 79.8500
" />
<path d="M77.7102 79.1500
L77.0602 79.1500
" />
<path d="M77.7102 79.8500
L77.7102 79.1500
" />
</g>
<g style="fill:#000000; fill-opacity:1.0000; 
stroke:#000000; stroke-width:0.0000; stroke-opacity:1; 
stroke-linecap:round; stroke-linejoin:round;">
<circle cx="76.2152" cy="77.9000" r="0.1000" /> 
<circle cx="76.0152" cy="77.9000" r="0.1000" /> 
</g>
<g style="fill:#000000; fill-opacity:0.0; 
stroke:#000000; stroke-width:0.2000; stroke-opacity:1; 
stroke-linecap:round; stroke-linejoin:round;">
<path d="M76.2152 77.9000 A0.1000 0.1000 0.0 0 0 76.0152 77.9000" />
<path d="M76.0152 77.9000 A0.1000 0.1000 0.0 0 0 76.2152 77.9000" />
</g>
<g style="fill:#000000; fill-opacity:0.0; 
stroke:#000000; stroke-width:0.1000; stroke-opacity:1; 
stroke-linecap:round; stroke-linejoin:round;">
<path d="M61.6602 19.2150
L59.4602 19.2150
" />
<path d="M61.6102 19.6900
L61.3102 19.6900
" />
<path d="M60.6602 19.6900
L60.4602 19.6900
" />
<path d="M59.8102 19.6900
L59.5102 19.6900
" />
<path d="M61.7605 19.1194 A1.2023 1.2023 0.0 0 0 59.3602 19.1150" />
</g>
<g style="fill:#000000; fill-opacity:0.0; 
stroke:#000000; stroke-width:0.1200; stroke-opacity:1; 
stroke-linecap:round; stroke-linejoin:round;">
<path d="M24.2965 45.8995
L18.2944 44.5138
" />
<path d="M24.2965 45.8995
L23.1447 50.8883
" />
</g>
<g style="fill:#000000; fill-opacity:1.0000; 
stroke:#000000; stroke-width:0.0000; stroke-opacity:1; 
stroke-linecap:round; stroke-linejoin:round;">
<circle cx="24.0063" cy="47.1564" r="0.0600" /> 
</g>
<g style="fill:#000000; fill-opacity:1.0000; 
stroke:#000000; stroke-width:0.1200; stroke-opacity:1; 
stroke-linecap:round; stroke-linejoin:round;">
</g>
<g style="fill:#000000; fill-opacity:0.0; 
stroke:#000000; stroke-width:0.1200; stroke-opacity:1; 
stroke-linecap:round; stroke-linejoin:round;">
<path d="M24.0063 47.1564
L26.6079 47.7571
" />
<path d="M26.6079 47.7571
L24.0063 47.1564
" />
</g>
<g style="fill:#000000; fill-opacity:1.0000; 
stroke:#000000; stroke-width:0.0000; stroke-opacity:1; 
stroke-linecap:round; stroke-linejoin:round;">
<circle cx="26.6079" cy="47.7571" r="0.0600" /> 
<circle cx="23.4349" cy="49.6313" r="0.0600" /> 
</g>
<g style="fill:#000000; fill-opacity:1.0000; 
stroke:#000000; stroke-width:0.1200; stroke-opacity:1; 
stroke-linecap:round; stroke-linejoin:round;">
</g>
<g style="fill:#000000; fill-opacity:0.0; 
stroke:#000000; stroke-width:0.1200; stroke-opacity:1; 
stroke-linecap:round; stroke-linejoin:round;">
<path d="M23.4349 49.6313
L26.0365 50.2320
" />
<path d="M26.0365 50.2320
L23.4349 49.6313
" />
</g>
<g style="fill:#000000; fill-opacity:1.0000; 
stroke:#000000; stroke-width:0.0000; stroke-opacity:1; 
stroke-linecap:round; stroke-linejoin:round;">
<circle cx="26.0365" cy="50.2320" r="0.0600" /> 
</g>
<g style="fill:#000000; fill-opacity:1.0000; 
stroke:#000000; stroke-width:0.1200; stroke-opacity:1; 
stroke-linecap:round; stroke-linejoin:round;">
</g>
<g style="fill:#000000; fill-opacity:0.0; 
stroke:#000000; stroke-width:0.1200; stroke-opacity:1; 
stroke-linecap:round; stroke-linejoin:round;">
<path d="M22.0535 50.6363
L23.1447 50.8883
" />
<path d="M23.1447 50.8883
L17.1426 49.5026
" />
<path d="M23.1447 50.8883
L23.0548 51.2780
" />
<path d="M21.9635 51.0261
L22.0535 50.6363
" />
<path d="M23.0548 51.2780
L21.9635 51.0261
" />
<path d="M18.2944 44.5138 A2.5600 2.5600 0.0 0 0 17.1426 49.5026" />
<g >
</g>
<g >
</g>
<g >
</g>
<g >
</g>
<g >
</g>
<g >
</g>
<g >
</g>
<g >
</g>
<g >
</g>
<g >
</g>
<g >
</g>
<g >
</g>
<g >
</g>
<g >
</g>
<g >
</g>
<g >
</g>
<g >
</g>
<g >
</g>
<g >
</g>
<g >
</g>
<g >
</g>
<g >
</g>
<g >
</g>
<g >
</g>
<g >
</g>
<g >
</g>
<g >
</g>
<g >
</g>
<g >
</g>
<g >
</g>
<g >
</g>
<g >
</g>
<g >
</g>
<g >
</g>
<g >
</g>
<g >
</g>
<g >
</g>
<g >
</g>
<g >
</g>
<g >
</g>
<g >
</g>
<g >
</g>
<g >
</g>
</g>
<g style="fill:#000000; fill-opacity:0.0; 
stroke:#000000; stroke-width:0.1200; stroke-opacity:1; 
stroke-linecap:round; stroke-linejoin:round;">
</g>
<g style="fill:#000000; fill-opacity:0.0; 
stroke:#000000; stroke-width:0.1500; stroke-opacity:1; 
stroke-linecap:round; stroke-linejoin:round;">
<path d="M95.0602 79.4000
L87.5602 79.4000
" />
<path d="M16.0602 35.9000
L16.0602 42.4000
" />
<path d="M16.0602 18.4000
L16.0602 34.4000
" />
<path d="M70.5602 82.4000 A1.0000 1.0000 0.0 0 0 71.5602 81.4000" />
<path d="M108.5602 26.4000 A1.0000 1.0000 0.0 0 0 107.5602 25.4000" />
<path d="M108.5602 49.4000
L108.5602 61.9000
" />
<path d="M50.0602 6.4000 A1.0000 1.0000 0.0 0 0 49.0602 7.4000" />
<path d="M25.5602 65.9000
L25.5602 76.9000
" />
<path d="M79.0602 14.9000
L79.0602 7.4000
" />
<path d="M108.5602 26.4000
L108.5602 34.4000
" />
<path d="M72.5602 7.4000 A1.0000 1.0000 0.0 0 0 71.5602 6.4000" />
</g>
<g style="fill:#000000; fill-opacity:0.0; 
stroke:#000000; stroke-width:0.1000; stroke-opacity:1; 
stroke-linecap:round; stroke-linejoin:round;">
<path d="M27.8102 40.9000
L27.8102 42.9000
" />
</g>
<g style="fill:#000000; fill-opacity:0.0; 
stroke:#000000; stroke-width:0.1500; stroke-opacity:1; 
stroke-linecap:round; stroke-linejoin:round;">
<path d="M71.5602 6.4000
L50.0602 6.4000
" />
<path d="M95.0602 79.4000 A1.0000 1.0000 0.0 0 0 96.0602 78.4000" />
</g>
<g style="fill:#000000; fill-opacity:0.0; 
stroke:#000000; stroke-width:0.1000; stroke-opacity:1; 
stroke-linecap:round; stroke-linejoin:round;">
<path d="M36.3102 40.9000
L36.3102 42.9000
" />
</g>
<g style="fill:#000000; fill-opacity:0.0; 
stroke:#000000; stroke-width:0.1500; stroke-opacity:1; 
stroke-linecap:round; stroke-linejoin:round;">
<path d="M72.5602 14.9000 A1.5000 1.5000 0.0 0 0 74.0602 16.4000" />
<path d="M34.0602 11.4000
L23.0602 11.4000
" />
<path d="M71.5602 80.4000
L71.5602 81.4000
" />
<path d="M16.0602 49.9000
L16.0602 61.9000
" />
<path d="M16.0602 42.4000
L16.0602 42.9000
" />
<path d="M46.0602 81.9000
L57.5602 82.4000
" />
<path d="M33.5602 77.9000
L35.0602 77.9000
" />
<path d="M42.5602 14.9000 A1.5000 1.5000 0.0 0 0 44.0602 16.4000" />
<path d="M107.5602 62.9000
L99.0602 62.9000
" />
<path d="M49.0602 14.9000
L49.0602 7.4000
" />
<path d="M72.5602 79.4000 A1.0000 1.0000 0.0 0 0 71.5602 80.4000" />
</g>
<g style="fill:#000000; fill-opacity:0.0; 
stroke:#000000; stroke-width:0.1000; stroke-opacity:1; 
stroke-linecap:round; stroke-linejoin:round;">
<circle cx="34.5602" cy="70.9000" r="1.7500" /> 
</g>
<g style="fill:#000000; fill-opacity:0.0; 
stroke:#000000; stroke-width:0.1500; stroke-opacity:1; 
stroke-linecap:round; stroke-linejoin:round;">
<path d="M108.5602 49.4000
L100.0602 51.4000
" />
<path d="M35.0602 77.9000
L35.0602 80.4000
" />
<path d="M86.5602 7.4000
L86.5602 10.4000
" />
<path d="M94.5602 22.4000 A3.0000 3.0000 0.0 0 0 97.5602 25.4000" />
<path d="M74.0602 16.4000
L77.5602 16.4000
" />
<path d="M36.0602 6.4000 A1.0000 1.0000 0.0 0 0 35.0602 7.4000" />
</g>
<g style="fill:#000000; fill-opacity:0.0; 
stroke:#000000; stroke-width:0.1000; stroke-opacity:1; 
stroke-linecap:round; stroke-linejoin:round;">
<path d="M27.8102 42.9000 A4.2500 4.2500 0.0 0 0 36.3102 42.9000" />
</g>
<g style="fill:#000000; fill-opacity:0.0; 
stroke:#000000; stroke-width:0.1500; stroke-opacity:1; 
stroke-linecap:round; stroke-linejoin:round;">
<path d="M25.5602 76.9000 A1.0000 1.0000 0.0 0 0 26.1130 77.7944" />
<path d="M108.5602 34.4000
L106.0602 34.4000
" />
<path d="M42.5602 7.4000 A1.0000 1.0000 0.0 0 0 41.5602 6.4000" />
<path d="M108.5602 35.9000
L108.5602 42.4000
" />
<path d="M41.5602 6.4000
L36.0602 6.4000
" />
<path d="M16.0602 34.4000
L19.0602 34.4000
" />
<path d="M86.0602 79.4000
L72.5602 79.4000
" />
<path d="M19.0602 34.4000
L19.0602 35.9000
" />
<path d="M33.5602 77.9000
L33.5602 80.4000
" />
<path d="M72.5602 7.4000
L72.5602 14.9000
" />
</g>
<g style="fill:#000000; fill-opacity:0.0; 
stroke:#000000; stroke-width:0.1000; stroke-opacity:1; 
stroke-linecap:round; stroke-linejoin:round;">
<path d="M36.3102 40.9000 A4.2500 4.2500 0.0 0 0 27.8102 40.9000" />
</g>
<g style="fill:#000000; fill-opacity:0.0; 
stroke:#000000; stroke-width:0.1500; stroke-opacity:1; 
stroke-linecap:round; stroke-linejoin:round;">
<path d="M106.0602 35.9000
L108.5602 35.9000
" />
<path d="M99.0602 62.9000 A3.0000 3.0000 0.0 0 0 96.0602 65.9000" />
<path d="M16.0602 49.9000
L24.5602 51.9000
" />
<path d="M17.0602 62.9000
L22.5602 62.9000
" />
<path d="M16.0602 42.9000
L26.0602 45.4000
" />
<path d="M97.5602 25.4000
L107.5602 25.4000
" />
<path d="M35.0602 7.4000
L35.0602 10.4000
" />
<path d="M16.0602 61.9000 A1.0000 1.0000 0.0 0 0 17.0602 62.9000" />
<path d="M96.0602 65.9000
L96.0602 78.4000
" />
<path d="M106.0602 34.4000
L106.0602 35.9000
" />
<path d="M47.5602 16.4000 A1.5000 1.5000 0.0 0 0 49.0602 14.9000" />
<path d="M94.5602 12.4000
L94.5602 22.4000
" />
<path d="M107.5602 62.9000 A1.0000 1.0000 0.0 0 0 108.5602 61.9000" />
<path d="M87.5602 77.4000
L86.0602 77.4000
" />
<path d="M34.0602 11.4000 A1.0000 1.0000 0.0 0 0 35.0602 10.4000" />
<path d="M94.5602 12.4000 A1.0000 1.0000 0.0 0 0 93.5602 11.4000" />
<path d="M87.5602 11.4000
L93.5602 11.4000
" />
<path d="M42.5602 7.4000
L42.5602 14.9000
" />
<path d="M23.0602 11.4000
L16.0602 18.4000
" />
<path d="M19.0602 35.9000
L16.0602 35.9000
" />
<path d="M86.5602 7.4000 A1.0000 1.0000 0.0 0 0 85.5602 6.4000" />
<path d="M86.0602 77.4000
L86.0602 79.4000
" />
<path d="M35.0602 80.4000
L46.0602 81.9000
" />
<path d="M80.0602 6.4000 A1.0000 1.0000 0.0 0 0 79.0602 7.4000" />
<path d="M86.5602 10.4000 A1.0000 1.0000 0.0 0 0 87.5602 11.4000" />
<path d="M77.5602 16.4000 A1.5000 1.5000 0.0 0 0 79.0602 14.9000" />
<path d="M80.0602 6.4000
L85.5602 6.4000
" />
<path d="M24.5602 51.9000
L26.0602 45.4000
" />
<path d="M70.5602 82.4000
L57.5602 82.4000
" />
<path d="M87.5602 77.4000
L87.5602 79.4000
" />
<path d="M33.5602 80.4000
L26.1130 77.7944
" />
<path d="M44.0602 16.4000
L47.5602 16.4000
" />
<path d="M25.5602 65.9000 A3.0000 3.0000 0.0 0 0 22.5602 62.9000" />
<path d="M108.5602 42.4000
L98.5602 44.9000
" />
<path d="M100.0602 51.4000
L98.5602 44.9000
" />
<g >
</g>
<g >
</g>
<g >
</g>
<g >
</g>
<g >
</g>
<g >
</g>
<g >
</g>
<g >
</g>
<g >
</g>
<g >
</g>
<g >
</g>
<g >
</g>
<g >
</g>
<g >
</g>
<g >
</g>
<g >
</g>
<g >
</g>
<g >
</g>
<g >
</g>
<g >
</g>
<g >
</g>
<g >
</g>
<g >
</g>
<g >
</g>
<g >
</g>
<g >
</g>
<g >
</g>
<g >
</g>
<g >
</g>
<g >
</g>
<g >
</g>
<g >
</g>
<g >
</g>
<g >
</g>
<g >
</g>
<g >
</g>
<g >
</g>
<g >
</g>
<g >
</g>
<g >
</g>
<g >
</g>
<g >
</g>
<g >
</g>
</g> 
</svg>
