<?xml version="1.0" standalone="no"?>
 <!DOCTYPE svg PUBLIC "-//W3C//DTD SVG 1.1//EN" 
 "http://www.w3.org/Graphics/SVG/1.1/DTD/svg11.dtd"> 
<svg
  xmlns:svg="http://www.w3.org/2000/svg"
  xmlns="http://www.w3.org/2000/svg"
  xmlns:xlink="http://www.w3.org/1999/xlink"
  version="1.1"
  width="104.1908mm" height="87.1982mm" viewBox="0.0000 0.0000 104.1908 87.1982">
<title>SVG Image created as KoeBlaster-brd.svg date 2024/03/29 00:48:04 </title>
  <desc>Image generated by PCBNEW </desc>
<g style="fill:#000000; fill-opacity:1.0000;stroke:#000000; stroke-opacity:1.0000;
stroke-linecap:round; stroke-linejoin:round;"
 transform="translate(0 0) scale(1 1)">
</g>
<g style="fill:#000000; fill-opacity:0.0; 
stroke:#000000; stroke-width:0.0000; stroke-opacity:1; 
stroke-linecap:round; stroke-linejoin:round;">
</g>
<g style="fill:#585D84; fill-opacity:0.0; 
stroke:#585D84; stroke-width:0.0000; stroke-opacity:1; 
stroke-linecap:round; stroke-linejoin:round;">
</g>
<g style="fill:#585D84; fill-opacity:0.0; 
stroke:#585D84; stroke-width:0.0800; stroke-opacity:1; 
stroke-linecap:round; stroke-linejoin:round;">
<text x="56.3908" y="79.8000"
textLength="0.9971" font-size="0.6667" lengthAdjust="spacingAndGlyphs"
text-anchor="middle" opacity="0">J1</text>
<g class="stroked-text"><desc>J1</desc>
<path d="M56.2241 79.2771
L56.2241 79.6343
" />
<path d="M56.2241 79.6343
L56.2003 79.7057
" />
<path d="M56.2003 79.7057
L56.1527 79.7533
" />
<path d="M56.1527 79.7533
L56.0813 79.7771
" />
<path d="M56.0813 79.7771
L56.0337 79.7771
" />
<path d="M56.7241 79.7771
L56.4384 79.7771
" />
<path d="M56.5813 79.7771
L56.5813 79.2771
" />
<path d="M56.5813 79.2771
L56.5337 79.3486
" />
<path d="M56.5337 79.3486
L56.4860 79.3962
" />
<path d="M56.4860 79.3962
L56.4384 79.4200
" />
</g></g>
<g style="fill:#585D84; fill-opacity:0.0; 
stroke:#585D84; stroke-width:0.1500; stroke-opacity:1; 
stroke-linecap:round; stroke-linejoin:round;">
<g transform="rotate(-82.000000 29.3908 74.3500)">
<text x="29.3908" y="74.7000"
textLength="11.9433" font-size="0.9333" lengthAdjust="spacingAndGlyphs"
text-anchor="middle" opacity="0">SJ2-25103A-SMT-TR</text>
</g>
<g class="stroked-text"><desc>SJ2-25103A-SMT-TR</desc>
<path d="M28.8798 80.0174
L28.9267 79.9230
" />
<path d="M28.9267 79.9230
L28.9499 79.7579
" />
<path d="M28.9499 79.7579
L28.9262 79.6873
" />
<path d="M28.9262 79.6873
L28.8978 79.6496
" />
<path d="M28.8978 79.6496
L28.8364 79.6073
" />
<path d="M28.8364 79.6073
L28.7704 79.5981
" />
<path d="M28.7704 79.5981
L28.6997 79.6218
" />
<path d="M28.6997 79.6218
L28.6621 79.6502
" />
<path d="M28.6621 79.6502
L28.6198 79.7115
" />
<path d="M28.6198 79.7115
L28.5682 79.8389
" />
<path d="M28.5682 79.8389
L28.5260 79.9003
" />
<path d="M28.5260 79.9003
L28.4883 79.9287
" />
<path d="M28.4883 79.9287
L28.4177 79.9524
" />
<path d="M28.4177 79.9524
L28.3516 79.9431
" />
<path d="M28.3516 79.9431
L28.2903 79.9009
" />
<path d="M28.2903 79.9009
L28.2619 79.8632
" />
<path d="M28.2619 79.8632
L28.2382 79.7926
" />
<path d="M28.2382 79.7926
L28.2614 79.6275
" />
<path d="M28.2614 79.6275
L28.3083 79.5331
" />
<path d="M28.3449 79.0333
L28.8400 79.1029
" />
<path d="M28.8400 79.1029
L28.9344 79.1499
" />
<path d="M28.9344 79.1499
L28.9911 79.2252
" />
<path d="M28.9911 79.2252
L29.0102 79.3288
" />
<path d="M29.0102 79.3288
L29.0009 79.3948
" />
<path d="M28.4526 78.7455
L28.4243 78.7079
" />
<path d="M28.4243 78.7079
L28.4005 78.6372
" />
<path d="M28.4005 78.6372
L28.4237 78.4722
" />
<path d="M28.4237 78.4722
L28.4660 78.4108
" />
<path d="M28.4660 78.4108
L28.5037 78.3824
" />
<path d="M28.5037 78.3824
L28.5743 78.3587
" />
<path d="M28.5743 78.3587
L28.6403 78.3680
" />
<path d="M28.6403 78.3680
L28.7347 78.4149
" />
<path d="M28.7347 78.4149
L29.0752 78.8667
" />
<path d="M29.0752 78.8667
L29.1355 78.4376
" />
<path d="M28.9131 78.1034
L28.9874 77.5752
" />
<path d="M28.6660 77.2271
L28.6377 77.1895
" />
<path d="M28.6377 77.1895
L28.6139 77.1188
" />
<path d="M28.6139 77.1188
L28.6371 76.9538
" />
<path d="M28.6371 76.9538
L28.6794 76.8924
" />
<path d="M28.6794 76.8924
L28.7171 76.8640
" />
<path d="M28.7171 76.8640
L28.7877 76.8403
" />
<path d="M28.7877 76.8403
L28.8537 76.8496
" />
<path d="M28.8537 76.8496
L28.9481 76.8965
" />
<path d="M28.9481 76.8965
L29.2886 77.3483
" />
<path d="M29.2886 77.3483
L29.3489 76.9192
" />
<path d="M28.7438 76.1946
L28.6974 76.5247
" />
<path d="M28.6974 76.5247
L29.0229 76.6041
" />
<path d="M29.0229 76.6041
L28.9945 76.5664
" />
<path d="M28.9945 76.5664
L28.9708 76.4958
" />
<path d="M28.9708 76.4958
L28.9940 76.3307
" />
<path d="M28.9940 76.3307
L29.0363 76.2693
" />
<path d="M29.0363 76.2693
L29.0739 76.2410
" />
<path d="M29.0739 76.2410
L29.1446 76.2172
" />
<path d="M29.1446 76.2172
L29.3096 76.2404
" />
<path d="M29.3096 76.2404
L29.3710 76.2827
" />
<path d="M29.3710 76.2827
L29.3994 76.3204
" />
<path d="M29.3994 76.3204
L29.4231 76.3910
" />
<path d="M29.4231 76.3910
L29.3999 76.5561
" />
<path d="M29.3999 76.5561
L29.3576 76.6174
" />
<path d="M29.3576 76.6174
L29.3200 76.6458
" />
<path d="M29.5344 75.5988
L29.4788 75.9949
" />
<path d="M29.5066 75.7969
L28.8134 75.6994
" />
<path d="M28.8134 75.6994
L28.9032 75.7794
" />
<path d="M28.9032 75.7794
L28.9599 75.8547
" />
<path d="M28.9599 75.8547
L28.9836 75.9253
" />
<path d="M28.9016 75.0723
L28.9108 75.0063
" />
<path d="M28.9108 75.0063
L28.9531 74.9449
" />
<path d="M28.9531 74.9449
L28.9908 74.9165
" />
<path d="M28.9908 74.9165
L29.0614 74.8928
" />
<path d="M29.0614 74.8928
L29.1981 74.8783
" />
<path d="M29.1981 74.8783
L29.3631 74.9015
" />
<path d="M29.3631 74.9015
L29.4905 74.9531
" />
<path d="M29.4905 74.9531
L29.5519 74.9954
" />
<path d="M29.5519 74.9954
L29.5803 75.0330
" />
<path d="M29.5803 75.0330
L29.6040 75.1037
" />
<path d="M29.6040 75.1037
L29.5947 75.1697
" />
<path d="M29.5947 75.1697
L29.5525 75.2311
" />
<path d="M29.5525 75.2311
L29.5148 75.2594
" />
<path d="M29.5148 75.2594
L29.4441 75.2832
" />
<path d="M29.4441 75.2832
L29.3075 75.2976
" />
<path d="M29.3075 75.2976
L29.1424 75.2744
" />
<path d="M29.1424 75.2744
L29.0150 75.2229
" />
<path d="M29.0150 75.2229
L28.9537 75.1806
" />
<path d="M28.9537 75.1806
L28.9253 75.1429
" />
<path d="M28.9253 75.1429
L28.9016 75.0723
" />
<path d="M28.9665 74.6101
L29.0268 74.1810
" />
<path d="M29.0268 74.1810
L29.2584 74.4492
" />
<path d="M29.2584 74.4492
L29.2723 74.3502
" />
<path d="M29.2723 74.3502
L29.3146 74.2888
" />
<path d="M29.3146 74.2888
L29.3523 74.2604
" />
<path d="M29.3523 74.2604
L29.4229 74.2367
" />
<path d="M29.4229 74.2367
L29.5880 74.2599
" />
<path d="M29.5880 74.2599
L29.6493 74.3022
" />
<path d="M29.6493 74.3022
L29.6777 74.3398
" />
<path d="M29.6777 74.3398
L29.7014 74.4105
" />
<path d="M29.7014 74.4105
L29.6736 74.6085
" />
<path d="M29.6736 74.6085
L29.6313 74.6699
" />
<path d="M29.6313 74.6699
L29.5937 74.6983
" />
<path d="M29.5591 73.9865
L29.6054 73.6565
" />
<path d="M29.7478 74.0804
L29.0871 73.7519
" />
<path d="M29.0871 73.7519
L29.8128 73.6183
" />
<path d="M29.5812 73.3501
L29.6554 72.8220
" />
<path d="M29.9282 72.5573
L29.9751 72.4630
" />
<path d="M29.9751 72.4630
L29.9983 72.2979
" />
<path d="M29.9983 72.2979
L29.9746 72.2273
" />
<path d="M29.9746 72.2273
L29.9462 72.1896
" />
<path d="M29.9462 72.1896
L29.8849 72.1473
" />
<path d="M29.8849 72.1473
L29.8188 72.1380
" />
<path d="M29.8188 72.1380
L29.7482 72.1618
" />
<path d="M29.7482 72.1618
L29.7105 72.1901
" />
<path d="M29.7105 72.1901
L29.6683 72.2515
" />
<path d="M29.6683 72.2515
L29.6167 72.3789
" />
<path d="M29.6167 72.3789
L29.5744 72.4403
" />
<path d="M29.5744 72.4403
L29.5368 72.4687
" />
<path d="M29.5368 72.4687
L29.4661 72.4924
" />
<path d="M29.4661 72.4924
L29.4001 72.4831
" />
<path d="M29.4001 72.4831
L29.3387 72.4408
" />
<path d="M29.3387 72.4408
L29.3103 72.4032
" />
<path d="M29.3103 72.4032
L29.2866 72.3325
" />
<path d="M29.2866 72.3325
L29.3098 72.1675
" />
<path d="M29.3098 72.1675
L29.3567 72.0731
" />
<path d="M30.0587 71.8688
L29.3655 71.7714
" />
<path d="M29.3655 71.7714
L29.8931 71.6099
" />
<path d="M29.8931 71.6099
L29.4304 71.3093
" />
<path d="M29.4304 71.3093
L30.1236 71.4067
" />
<path d="M29.4629 71.0782
L29.5186 70.6821
" />
<path d="M30.1839 70.9776
L29.4907 70.8801
" />
<path d="M29.9801 70.5113
L30.0544 69.9832
" />
<path d="M29.6577 69.6918
L29.7134 69.2957
" />
<path d="M30.3787 69.5912
L29.6856 69.4938
" />
<path d="M30.4947 68.7660
L30.1322 68.9506
" />
<path d="M30.4391 69.1621
L29.7459 69.0646
" />
<path d="M29.7459 69.0646
L29.7830 68.8006
" />
<path d="M29.7830 68.8006
L29.8253 68.7392
" />
<path d="M29.8253 68.7392
L29.8629 68.7108
" />
<path d="M29.8629 68.7108
L29.9336 68.6871
" />
<path d="M29.9336 68.6871
L30.0326 68.7010
" />
<path d="M30.0326 68.7010
L30.0940 68.7433
" />
<path d="M30.0940 68.7433
L30.1223 68.7809
" />
<path d="M30.1223 68.7809
L30.1461 68.8516
" />
<path d="M30.1461 68.8516
L30.1090 69.1157
" />
</g><g transform="rotate(-87.000000 41.1908 75.7500)">
<text x="41.1908" y="76.1000"
textLength="11.9433" font-size="0.9333" lengthAdjust="spacingAndGlyphs"
text-anchor="middle" opacity="0">SJ2-25103A-SMT-TR</text>
</g>
<g class="stroked-text"><desc>SJ2-25103A-SMT-TR</desc>
<path d="M41.1757 81.4403
L41.2142 81.3422
" />
<path d="M41.2142 81.3422
L41.2229 81.1758
" />
<path d="M41.2229 81.1758
L41.1931 81.1075
" />
<path d="M41.1931 81.1075
L41.1616 81.0724
" />
<path d="M41.1616 81.0724
L41.0967 81.0357
" />
<path d="M41.0967 81.0357
L41.0302 81.0322
" />
<path d="M41.0302 81.0322
L40.9618 81.0620
" />
<path d="M40.9618 81.0620
L40.9268 81.0935
" />
<path d="M40.9268 81.0935
L40.8900 81.1583
" />
<path d="M40.8900 81.1583
L40.8498 81.2897
" />
<path d="M40.8498 81.2897
L40.8130 81.3546
" />
<path d="M40.8130 81.3546
L40.7780 81.3861
" />
<path d="M40.7780 81.3861
L40.7096 81.4159
" />
<path d="M40.7096 81.4159
L40.6431 81.4124
" />
<path d="M40.6431 81.4124
L40.5782 81.3757
" />
<path d="M40.5782 81.3757
L40.5467 81.3406
" />
<path d="M40.5467 81.3406
L40.5169 81.2723
" />
<path d="M40.5169 81.2723
L40.5256 81.1059
" />
<path d="M40.5256 81.1059
L40.5641 81.0077
" />
<path d="M40.5570 80.5067
L41.0563 80.5329
" />
<path d="M41.0563 80.5329
L41.1545 80.5714
" />
<path d="M41.1545 80.5714
L41.2175 80.6414
" />
<path d="M41.2175 80.6414
L41.2456 80.7430
" />
<path d="M41.2456 80.7430
L41.2421 80.8096
" />
<path d="M40.6393 80.2106
L40.6078 80.1756
" />
<path d="M40.6078 80.1756
L40.5780 80.1072
" />
<path d="M40.5780 80.1072
L40.5867 79.9408
" />
<path d="M40.5867 79.9408
L40.6235 79.8760
" />
<path d="M40.6235 79.8760
L40.6585 79.8444
" />
<path d="M40.6585 79.8444
L40.7268 79.8146
" />
<path d="M40.7268 79.8146
L40.7934 79.8181
" />
<path d="M40.7934 79.8181
L40.8915 79.8566
" />
<path d="M40.8915 79.8566
L41.2700 80.2770
" />
<path d="M41.2700 80.2770
L41.2927 79.8443
" />
<path d="M41.0421 79.5307
L41.0700 78.9981
" />
<path d="M40.7195 78.6794
L40.6880 78.6443
" />
<path d="M40.6880 78.6443
L40.6582 78.5760
" />
<path d="M40.6582 78.5760
L40.6669 78.4096
" />
<path d="M40.6669 78.4096
L40.7037 78.3447
" />
<path d="M40.7037 78.3447
L40.7387 78.3132
" />
<path d="M40.7387 78.3132
L40.8071 78.2834
" />
<path d="M40.8071 78.2834
L40.8736 78.2869
" />
<path d="M40.8736 78.2869
L40.9717 78.3254
" />
<path d="M40.9717 78.3254
L41.3503 78.7458
" />
<path d="M41.3503 78.7458
L41.3729 78.3130
" />
<path d="M40.7070 77.6439
L40.6896 77.9768
" />
<path d="M40.6896 77.9768
L41.0207 78.0276
" />
<path d="M41.0207 78.0276
L40.9892 77.9925
" />
<path d="M40.9892 77.9925
L40.9594 77.9242
" />
<path d="M40.9594 77.9242
L40.9681 77.7578
" />
<path d="M40.9681 77.7578
L41.0049 77.6929
" />
<path d="M41.0049 77.6929
L41.0399 77.6614
" />
<path d="M41.0399 77.6614
L41.1082 77.6316
" />
<path d="M41.1082 77.6316
L41.2747 77.6403
" />
<path d="M41.2747 77.6403
L41.3395 77.6771
" />
<path d="M41.3395 77.6771
L41.3711 77.7121
" />
<path d="M41.3711 77.7121
L41.4009 77.7804
" />
<path d="M41.4009 77.7804
L41.3921 77.9469
" />
<path d="M41.3921 77.9469
L41.3554 78.0117
" />
<path d="M41.3554 78.0117
L41.3203 78.0433
" />
<path d="M41.4427 76.9815
L41.4218 77.3810
" />
<path d="M41.4323 77.1813
L40.7332 77.1446
" />
<path d="M40.7332 77.1446
L40.8296 77.2164
" />
<path d="M40.8296 77.2164
L40.8927 77.2865
" />
<path d="M40.8927 77.2865
L40.9225 77.3548
" />
<path d="M40.7664 76.5122
L40.7699 76.4456
" />
<path d="M40.7699 76.4456
L40.8066 76.3808
" />
<path d="M40.8066 76.3808
L40.8417 76.3492
" />
<path d="M40.8417 76.3492
L40.9100 76.3194
" />
<path d="M40.9100 76.3194
L41.0449 76.2931
" />
<path d="M41.0449 76.2931
L41.2113 76.3018
" />
<path d="M41.2113 76.3018
L41.3427 76.3421
" />
<path d="M41.3427 76.3421
L41.4076 76.3789
" />
<path d="M41.4076 76.3789
L41.4391 76.4139
" />
<path d="M41.4391 76.4139
L41.4689 76.4822
" />
<path d="M41.4689 76.4822
L41.4654 76.5488
" />
<path d="M41.4654 76.5488
L41.4286 76.6136
" />
<path d="M41.4286 76.6136
L41.3936 76.6452
" />
<path d="M41.3936 76.6452
L41.3253 76.6750
" />
<path d="M41.3253 76.6750
L41.1904 76.7013
" />
<path d="M41.1904 76.7013
L41.0239 76.6926
" />
<path d="M41.0239 76.6926
L40.8925 76.6523
" />
<path d="M40.8925 76.6523
L40.8277 76.6155
" />
<path d="M40.8277 76.6155
L40.7962 76.5805
" />
<path d="M40.7962 76.5805
L40.7664 76.5122
" />
<path d="M40.7908 76.0461
L40.8135 75.6134
" />
<path d="M40.8135 75.6134
L41.0676 75.8604
" />
<path d="M41.0676 75.8604
L41.0728 75.7605
" />
<path d="M41.0728 75.7605
L41.1096 75.6957
" />
<path d="M41.1096 75.6957
L41.1446 75.6641
" />
<path d="M41.1446 75.6641
L41.2129 75.6343
" />
<path d="M41.2129 75.6343
L41.3794 75.6431
" />
<path d="M41.3794 75.6431
L41.4442 75.6798
" />
<path d="M41.4442 75.6798
L41.4757 75.7149
" />
<path d="M41.4757 75.7149
L41.5055 75.7832
" />
<path d="M41.5055 75.7832
L41.4951 75.9829
" />
<path d="M41.4951 75.9829
L41.4583 76.0477
" />
<path d="M41.4583 76.0477
L41.4233 76.0793
" />
<path d="M41.3267 75.3733
L41.3442 75.0404
" />
<path d="M41.5230 75.4503
L40.8361 75.1807
" />
<path d="M40.8361 75.1807
L41.5474 74.9843
" />
<path d="M41.2933 74.7373
L41.3212 74.2047
" />
<path d="M41.5699 73.9173
L41.6085 73.8192
" />
<path d="M41.6085 73.8192
L41.6172 73.6528
" />
<path d="M41.6172 73.6528
L41.5874 73.5845
" />
<path d="M41.5874 73.5845
L41.5558 73.5494
" />
<path d="M41.5558 73.5494
L41.4910 73.5126
" />
<path d="M41.4910 73.5126
L41.4244 73.5092
" />
<path d="M41.4244 73.5092
L41.3561 73.5390
" />
<path d="M41.3561 73.5390
L41.3211 73.5705
" />
<path d="M41.3211 73.5705
L41.2843 73.6353
" />
<path d="M41.2843 73.6353
L41.2440 73.7667
" />
<path d="M41.2440 73.7667
L41.2073 73.8316
" />
<path d="M41.2073 73.8316
L41.1722 73.8631
" />
<path d="M41.1722 73.8631
L41.1039 73.8929
" />
<path d="M41.1039 73.8929
L41.0373 73.8894
" />
<path d="M41.0373 73.8894
L40.9725 73.8526
" />
<path d="M40.9725 73.8526
L40.9410 73.8176
" />
<path d="M40.9410 73.8176
L40.9112 73.7493
" />
<path d="M40.9112 73.7493
L40.9199 73.5828
" />
<path d="M40.9199 73.5828
L40.9584 73.4847
" />
<path d="M41.6399 73.2200
L40.9408 73.1834
" />
<path d="M40.9408 73.1834
L41.4523 72.9766
" />
<path d="M41.4523 72.9766
L40.9652 72.7174
" />
<path d="M40.9652 72.7174
L41.6643 72.7540
" />
<path d="M40.9775 72.4844
L40.9984 72.0849
" />
<path d="M41.6870 72.3213
L40.9879 72.2846
" />
<path d="M41.4433 71.8746
L41.4712 71.3420
" />
<path d="M41.0507 71.0863
L41.0717 70.6868
" />
<path d="M41.7602 70.9232
L41.0612 70.8865
" />
<path d="M41.8038 70.0910
L41.4588 70.3066
" />
<path d="M41.7829 70.4904
L41.0839 70.4538
" />
<path d="M41.0839 70.4538
L41.0978 70.1875
" />
<path d="M41.0978 70.1875
L41.1346 70.1227
" />
<path d="M41.1346 70.1227
L41.1696 70.0911
" />
<path d="M41.1696 70.0911
L41.2380 70.0613
" />
<path d="M41.2380 70.0613
L41.3378 70.0666
" />
<path d="M41.3378 70.0666
L41.4026 70.1033
" />
<path d="M41.4026 70.1033
L41.4342 70.1384
" />
<path d="M41.4342 70.1384
L41.4640 70.2067
" />
<path d="M41.4640 70.2067
L41.4500 70.4730
" />
</g><g transform="rotate(90.000000 60.1908 11.8000)">
<text x="60.1908" y="12.1500"
textLength="5.5100" font-size="0.9333" lengthAdjust="spacingAndGlyphs"
text-anchor="middle" opacity="0">SFH 4547</text>
</g>
<g class="stroked-text"><desc>SFH 4547</desc>
<path d="M59.9081 9.3333
L59.8748 9.4333
" />
<path d="M59.8748 9.4333
L59.8748 9.6000
" />
<path d="M59.8748 9.6000
L59.9081 9.6667
" />
<path d="M59.9081 9.6667
L59.9414 9.7000
" />
<path d="M59.9414 9.7000
L60.0081 9.7333
" />
<path d="M60.0081 9.7333
L60.0748 9.7333
" />
<path d="M60.0748 9.7333
L60.1414 9.7000
" />
<path d="M60.1414 9.7000
L60.1748 9.6667
" />
<path d="M60.1748 9.6667
L60.2081 9.6000
" />
<path d="M60.2081 9.6000
L60.2414 9.4667
" />
<path d="M60.2414 9.4667
L60.2748 9.4000
" />
<path d="M60.2748 9.4000
L60.3081 9.3667
" />
<path d="M60.3081 9.3667
L60.3748 9.3333
" />
<path d="M60.3748 9.3333
L60.4414 9.3333
" />
<path d="M60.4414 9.3333
L60.5081 9.3667
" />
<path d="M60.5081 9.3667
L60.5414 9.4000
" />
<path d="M60.5414 9.4000
L60.5748 9.4667
" />
<path d="M60.5748 9.4667
L60.5748 9.6333
" />
<path d="M60.5748 9.6333
L60.5414 9.7333
" />
<path d="M60.2414 10.2667
L60.2414 10.0333
" />
<path d="M59.8748 10.0333
L60.5748 10.0333
" />
<path d="M60.5748 10.0333
L60.5748 10.3667
" />
<path d="M59.8748 10.6333
L60.5748 10.6333
" />
<path d="M60.2414 10.6333
L60.2414 11.0333
" />
<path d="M59.8748 11.0333
L60.5748 11.0333
" />
<path d="M60.3414 12.2000
L59.8748 12.2000
" />
<path d="M60.6081 12.0333
L60.1081 11.8667
" />
<path d="M60.1081 11.8667
L60.1081 12.3000
" />
<path d="M60.5748 12.9000
L60.5748 12.5667
" />
<path d="M60.5748 12.5667
L60.2414 12.5333
" />
<path d="M60.2414 12.5333
L60.2748 12.5667
" />
<path d="M60.2748 12.5667
L60.3081 12.6333
" />
<path d="M60.3081 12.6333
L60.3081 12.8000
" />
<path d="M60.3081 12.8000
L60.2748 12.8667
" />
<path d="M60.2748 12.8667
L60.2414 12.9000
" />
<path d="M60.2414 12.9000
L60.1748 12.9333
" />
<path d="M60.1748 12.9333
L60.0081 12.9333
" />
<path d="M60.0081 12.9333
L59.9414 12.9000
" />
<path d="M59.9414 12.9000
L59.9081 12.8667
" />
<path d="M59.9081 12.8667
L59.8748 12.8000
" />
<path d="M59.8748 12.8000
L59.8748 12.6333
" />
<path d="M59.8748 12.6333
L59.9081 12.5667
" />
<path d="M59.9081 12.5667
L59.9414 12.5333
" />
<path d="M60.3414 13.5333
L59.8748 13.5333
" />
<path d="M60.6081 13.3667
L60.1081 13.2000
" />
<path d="M60.1081 13.2000
L60.1081 13.6333
" />
<path d="M60.5748 13.8333
L60.5748 14.3000
" />
<path d="M60.5748 14.3000
L59.8748 14.0000
" />
</g><g transform="rotate(-13.000000 93.5908 41.4000)">
<text x="93.5908" y="41.7500"
textLength="5.5100" font-size="0.9333" lengthAdjust="spacingAndGlyphs"
text-anchor="middle" opacity="0">SFH 4547</text>
</g>
<g class="stroked-text"><desc>SFH 4547</desc>
<path d="M91.2509 42.2303
L91.3559 42.2403
" />
<path d="M91.3559 42.2403
L91.5183 42.2028
" />
<path d="M91.5183 42.2028
L91.5757 42.1553
" />
<path d="M91.5757 42.1553
L91.6007 42.1154
" />
<path d="M91.6007 42.1154
L91.6182 42.0429
" />
<path d="M91.6182 42.0429
L91.6032 41.9780
" />
<path d="M91.6032 41.9780
L91.5557 41.9205
" />
<path d="M91.5557 41.9205
L91.5158 41.8955
" />
<path d="M91.5158 41.8955
L91.4433 41.8780
" />
<path d="M91.4433 41.8780
L91.3059 41.8755
" />
<path d="M91.3059 41.8755
L91.2334 41.8581
" />
<path d="M91.2334 41.8581
L91.1934 41.8331
" />
<path d="M91.1934 41.8331
L91.1460 41.7756
" />
<path d="M91.1460 41.7756
L91.1310 41.7107
" />
<path d="M91.1310 41.7107
L91.1485 41.6382
" />
<path d="M91.1485 41.6382
L91.1734 41.5982
" />
<path d="M91.1734 41.5982
L91.2309 41.5508
" />
<path d="M91.2309 41.5508
L91.3933 41.5133
" />
<path d="M91.3933 41.5133
L91.4982 41.5233
" />
<path d="M92.0854 41.6956
L91.8580 41.7481
" />
<path d="M91.9405 42.1053
L91.7830 41.4233
" />
<path d="M91.7830 41.4233
L92.1078 41.3483
" />
<path d="M92.5251 41.9704
L92.3677 41.2883
" />
<path d="M92.4426 41.6131
L92.8324 41.5231
" />
<path d="M92.9149 41.8804
L92.7574 41.1983
" />
<path d="M93.9467 41.1632
L94.0516 41.6180
" />
<path d="M93.7243 40.9409
L93.6744 41.4656
" />
<path d="M93.6744 41.4656
L94.0966 41.3681
" />
<path d="M94.5762 40.7784
L94.2514 40.8534
" />
<path d="M94.2514 40.8534
L94.2939 41.1857
" />
<path d="M94.2939 41.1857
L94.3189 41.1457
" />
<path d="M94.3189 41.1457
L94.3764 41.0982
" />
<path d="M94.3764 41.0982
L94.5388 41.0608
" />
<path d="M94.5388 41.0608
L94.6112 41.0782
" />
<path d="M94.6112 41.0782
L94.6512 41.1032
" />
<path d="M94.6512 41.1032
L94.6987 41.1607
" />
<path d="M94.6987 41.1607
L94.7362 41.3231
" />
<path d="M94.7362 41.3231
L94.7187 41.3955
" />
<path d="M94.7187 41.3955
L94.6937 41.4355
" />
<path d="M94.6937 41.4355
L94.6363 41.4830
" />
<path d="M94.6363 41.4830
L94.4739 41.5205
" />
<path d="M94.4739 41.5205
L94.4014 41.5030
" />
<path d="M94.4014 41.5030
L94.3614 41.4780
" />
<path d="M95.2458 40.8633
L95.3508 41.3180
" />
<path d="M95.0234 40.6410
L94.9735 41.1656
" />
<path d="M94.9735 41.1656
L95.3957 41.0682
" />
<path d="M95.4856 40.5685
L95.9404 40.4635
" />
<path d="M95.9404 40.4635
L95.8055 41.2130
" />
</g><g transform="rotate(90.000000 30.1908 11.2000)">
<text x="30.1908" y="11.5500"
textLength="5.5100" font-size="0.9333" lengthAdjust="spacingAndGlyphs"
text-anchor="middle" opacity="0">SFH 4547</text>
</g>
<g class="stroked-text"><desc>SFH 4547</desc>
<path d="M29.9081 8.7333
L29.8748 8.8333
" />
<path d="M29.8748 8.8333
L29.8748 9.0000
" />
<path d="M29.8748 9.0000
L29.9081 9.0667
" />
<path d="M29.9081 9.0667
L29.9414 9.1000
" />
<path d="M29.9414 9.1000
L30.0081 9.1333
" />
<path d="M30.0081 9.1333
L30.0748 9.1333
" />
<path d="M30.0748 9.1333
L30.1414 9.1000
" />
<path d="M30.1414 9.1000
L30.1748 9.0667
" />
<path d="M30.1748 9.0667
L30.2081 9.0000
" />
<path d="M30.2081 9.0000
L30.2414 8.8667
" />
<path d="M30.2414 8.8667
L30.2748 8.8000
" />
<path d="M30.2748 8.8000
L30.3081 8.7667
" />
<path d="M30.3081 8.7667
L30.3748 8.7333
" />
<path d="M30.3748 8.7333
L30.4414 8.7333
" />
<path d="M30.4414 8.7333
L30.5081 8.7667
" />
<path d="M30.5081 8.7667
L30.5414 8.8000
" />
<path d="M30.5414 8.8000
L30.5748 8.8667
" />
<path d="M30.5748 8.8667
L30.5748 9.0333
" />
<path d="M30.5748 9.0333
L30.5414 9.1333
" />
<path d="M30.2414 9.6667
L30.2414 9.4333
" />
<path d="M29.8748 9.4333
L30.5748 9.4333
" />
<path d="M30.5748 9.4333
L30.5748 9.7667
" />
<path d="M29.8748 10.0333
L30.5748 10.0333
" />
<path d="M30.2414 10.0333
L30.2414 10.4333
" />
<path d="M29.8748 10.4333
L30.5748 10.4333
" />
<path d="M30.3414 11.6000
L29.8748 11.6000
" />
<path d="M30.6081 11.4333
L30.1081 11.2667
" />
<path d="M30.1081 11.2667
L30.1081 11.7000
" />
<path d="M30.5748 12.3000
L30.5748 11.9667
" />
<path d="M30.5748 11.9667
L30.2414 11.9333
" />
<path d="M30.2414 11.9333
L30.2748 11.9667
" />
<path d="M30.2748 11.9667
L30.3081 12.0333
" />
<path d="M30.3081 12.0333
L30.3081 12.2000
" />
<path d="M30.3081 12.2000
L30.2748 12.2667
" />
<path d="M30.2748 12.2667
L30.2414 12.3000
" />
<path d="M30.2414 12.3000
L30.1748 12.3333
" />
<path d="M30.1748 12.3333
L30.0081 12.3333
" />
<path d="M30.0081 12.3333
L29.9414 12.3000
" />
<path d="M29.9414 12.3000
L29.9081 12.2667
" />
<path d="M29.9081 12.2667
L29.8748 12.2000
" />
<path d="M29.8748 12.2000
L29.8748 12.0333
" />
<path d="M29.8748 12.0333
L29.9081 11.9667
" />
<path d="M29.9081 11.9667
L29.9414 11.9333
" />
<path d="M30.3414 12.9333
L29.8748 12.9333
" />
<path d="M30.6081 12.7667
L30.1081 12.6000
" />
<path d="M30.1081 12.6000
L30.1081 13.0333
" />
<path d="M30.5748 13.2333
L30.5748 13.7000
" />
<path d="M30.5748 13.7000
L29.8748 13.4000
" />
</g></g>
<g style="fill:#585D84; fill-opacity:0.0; 
stroke:#585D84; stroke-width:0.0800; stroke-opacity:1; 
stroke-linecap:round; stroke-linejoin:round;">
<text x="70.2408" y="77.3500"
textLength="1.0924" font-size="0.6667" lengthAdjust="spacingAndGlyphs"
text-anchor="middle" opacity="0">S1</text>
<g class="stroked-text"><desc>S1</desc>
<path d="M69.8598 77.3033
L69.9313 77.3271
" />
<path d="M69.9313 77.3271
L70.0503 77.3271
" />
<path d="M70.0503 77.3271
L70.0979 77.3033
" />
<path d="M70.0979 77.3033
L70.1218 77.2795
" />
<path d="M70.1218 77.2795
L70.1456 77.2319
" />
<path d="M70.1456 77.2319
L70.1456 77.1843
" />
<path d="M70.1456 77.1843
L70.1218 77.1367
" />
<path d="M70.1218 77.1367
L70.0979 77.1129
" />
<path d="M70.0979 77.1129
L70.0503 77.0891
" />
<path d="M70.0503 77.0891
L69.9551 77.0652
" />
<path d="M69.9551 77.0652
L69.9075 77.0414
" />
<path d="M69.9075 77.0414
L69.8837 77.0176
" />
<path d="M69.8837 77.0176
L69.8598 76.9700
" />
<path d="M69.8598 76.9700
L69.8598 76.9224
" />
<path d="M69.8598 76.9224
L69.8837 76.8748
" />
<path d="M69.8837 76.8748
L69.9075 76.8510
" />
<path d="M69.9075 76.8510
L69.9551 76.8271
" />
<path d="M69.9551 76.8271
L70.0741 76.8271
" />
<path d="M70.0741 76.8271
L70.1456 76.8510
" />
<path d="M70.6218 77.3271
L70.3360 77.3271
" />
<path d="M70.4789 77.3271
L70.4789 76.8271
" />
<path d="M70.4789 76.8271
L70.4313 76.8986
" />
<path d="M70.4313 76.8986
L70.3837 76.9462
" />
<path d="M70.3837 76.9462
L70.3360 76.9700
" />
</g></g>
<g style="fill:#585D84; fill-opacity:0.0; 
stroke:#585D84; stroke-width:0.1500; stroke-opacity:1; 
stroke-linecap:round; stroke-linejoin:round;">
<text x="51.3908" y="17.5500"
textLength="8.9767" font-size="0.9333" lengthAdjust="spacingAndGlyphs"
text-anchor="middle" opacity="0">SK68xx_ec3210r</text>
<g class="stroked-text"><desc>SK68xx_ec3210r</desc>
<path d="M47.1908 17.4827
L47.2908 17.5160
" />
<path d="M47.2908 17.5160
L47.4575 17.5160
" />
<path d="M47.4575 17.5160
L47.5241 17.4827
" />
<path d="M47.5241 17.4827
L47.5575 17.4494
" />
<path d="M47.5575 17.4494
L47.5908 17.3827
" />
<path d="M47.5908 17.3827
L47.5908 17.3160
" />
<path d="M47.5908 17.3160
L47.5575 17.2494
" />
<path d="M47.5575 17.2494
L47.5241 17.2160
" />
<path d="M47.5241 17.2160
L47.4575 17.1827
" />
<path d="M47.4575 17.1827
L47.3241 17.1494
" />
<path d="M47.3241 17.1494
L47.2575 17.1160
" />
<path d="M47.2575 17.1160
L47.2241 17.0827
" />
<path d="M47.2241 17.0827
L47.1908 17.0160
" />
<path d="M47.1908 17.0160
L47.1908 16.9494
" />
<path d="M47.1908 16.9494
L47.2241 16.8827
" />
<path d="M47.2241 16.8827
L47.2575 16.8494
" />
<path d="M47.2575 16.8494
L47.3241 16.8160
" />
<path d="M47.3241 16.8160
L47.4908 16.8160
" />
<path d="M47.4908 16.8160
L47.5908 16.8494
" />
<path d="M47.8908 17.5160
L47.8908 16.8160
" />
<path d="M48.2908 17.5160
L47.9908 17.1160
" />
<path d="M48.2908 16.8160
L47.8908 17.2160
" />
<path d="M48.8908 16.8160
L48.7575 16.8160
" />
<path d="M48.7575 16.8160
L48.6908 16.8494
" />
<path d="M48.6908 16.8494
L48.6575 16.8827
" />
<path d="M48.6575 16.8827
L48.5908 16.9827
" />
<path d="M48.5908 16.9827
L48.5575 17.1160
" />
<path d="M48.5575 17.1160
L48.5575 17.3827
" />
<path d="M48.5575 17.3827
L48.5908 17.4494
" />
<path d="M48.5908 17.4494
L48.6241 17.4827
" />
<path d="M48.6241 17.4827
L48.6908 17.5160
" />
<path d="M48.6908 17.5160
L48.8241 17.5160
" />
<path d="M48.8241 17.5160
L48.8908 17.4827
" />
<path d="M48.8908 17.4827
L48.9241 17.4494
" />
<path d="M48.9241 17.4494
L48.9575 17.3827
" />
<path d="M48.9575 17.3827
L48.9575 17.2160
" />
<path d="M48.9575 17.2160
L48.9241 17.1494
" />
<path d="M48.9241 17.1494
L48.8908 17.1160
" />
<path d="M48.8908 17.1160
L48.8241 17.0827
" />
<path d="M48.8241 17.0827
L48.6908 17.0827
" />
<path d="M48.6908 17.0827
L48.6241 17.1160
" />
<path d="M48.6241 17.1160
L48.5908 17.1494
" />
<path d="M48.5908 17.1494
L48.5575 17.2160
" />
<path d="M49.3575 17.1160
L49.2908 17.0827
" />
<path d="M49.2908 17.0827
L49.2575 17.0494
" />
<path d="M49.2575 17.0494
L49.2241 16.9827
" />
<path d="M49.2241 16.9827
L49.2241 16.9494
" />
<path d="M49.2241 16.9494
L49.2575 16.8827
" />
<path d="M49.2575 16.8827
L49.2908 16.8494
" />
<path d="M49.2908 16.8494
L49.3575 16.8160
" />
<path d="M49.3575 16.8160
L49.4908 16.8160
" />
<path d="M49.4908 16.8160
L49.5575 16.8494
" />
<path d="M49.5575 16.8494
L49.5908 16.8827
" />
<path d="M49.5908 16.8827
L49.6241 16.9494
" />
<path d="M49.6241 16.9494
L49.6241 16.9827
" />
<path d="M49.6241 16.9827
L49.5908 17.0494
" />
<path d="M49.5908 17.0494
L49.5575 17.0827
" />
<path d="M49.5575 17.0827
L49.4908 17.1160
" />
<path d="M49.4908 17.1160
L49.3575 17.1160
" />
<path d="M49.3575 17.1160
L49.2908 17.1494
" />
<path d="M49.2908 17.1494
L49.2575 17.1827
" />
<path d="M49.2575 17.1827
L49.2241 17.2494
" />
<path d="M49.2241 17.2494
L49.2241 17.3827
" />
<path d="M49.2241 17.3827
L49.2575 17.4494
" />
<path d="M49.2575 17.4494
L49.2908 17.4827
" />
<path d="M49.2908 17.4827
L49.3575 17.5160
" />
<path d="M49.3575 17.5160
L49.4908 17.5160
" />
<path d="M49.4908 17.5160
L49.5575 17.4827
" />
<path d="M49.5575 17.4827
L49.5908 17.4494
" />
<path d="M49.5908 17.4494
L49.6241 17.3827
" />
<path d="M49.6241 17.3827
L49.6241 17.2494
" />
<path d="M49.6241 17.2494
L49.5908 17.1827
" />
<path d="M49.5908 17.1827
L49.5575 17.1494
" />
<path d="M49.5575 17.1494
L49.4908 17.1160
" />
<path d="M49.8575 17.5160
L50.2241 17.0494
" />
<path d="M49.8575 17.0494
L50.2241 17.5160
" />
<path d="M50.4241 17.5160
L50.7908 17.0494
" />
<path d="M50.4241 17.0494
L50.7908 17.5160
" />
<path d="M50.8908 17.5827
L51.4241 17.5827
" />
<path d="M51.8575 17.4827
L51.7908 17.5160
" />
<path d="M51.7908 17.5160
L51.6575 17.5160
" />
<path d="M51.6575 17.5160
L51.5908 17.4827
" />
<path d="M51.5908 17.4827
L51.5575 17.4160
" />
<path d="M51.5575 17.4160
L51.5575 17.1494
" />
<path d="M51.5575 17.1494
L51.5908 17.0827
" />
<path d="M51.5908 17.0827
L51.6575 17.0494
" />
<path d="M51.6575 17.0494
L51.7908 17.0494
" />
<path d="M51.7908 17.0494
L51.8575 17.0827
" />
<path d="M51.8575 17.0827
L51.8908 17.1494
" />
<path d="M51.8908 17.1494
L51.8908 17.2160
" />
<path d="M51.8908 17.2160
L51.5575 17.2827
" />
<path d="M52.4908 17.4827
L52.4241 17.5160
" />
<path d="M52.4241 17.5160
L52.2908 17.5160
" />
<path d="M52.2908 17.5160
L52.2241 17.4827
" />
<path d="M52.2241 17.4827
L52.1908 17.4494
" />
<path d="M52.1908 17.4494
L52.1575 17.3827
" />
<path d="M52.1575 17.3827
L52.1575 17.1827
" />
<path d="M52.1575 17.1827
L52.1908 17.1160
" />
<path d="M52.1908 17.1160
L52.2241 17.0827
" />
<path d="M52.2241 17.0827
L52.2908 17.0494
" />
<path d="M52.2908 17.0494
L52.4241 17.0494
" />
<path d="M52.4241 17.0494
L52.4908 17.0827
" />
<path d="M52.7241 16.8160
L53.1575 16.8160
" />
<path d="M53.1575 16.8160
L52.9241 17.0827
" />
<path d="M52.9241 17.0827
L53.0241 17.0827
" />
<path d="M53.0241 17.0827
L53.0908 17.1160
" />
<path d="M53.0908 17.1160
L53.1241 17.1494
" />
<path d="M53.1241 17.1494
L53.1575 17.2160
" />
<path d="M53.1575 17.2160
L53.1575 17.3827
" />
<path d="M53.1575 17.3827
L53.1241 17.4494
" />
<path d="M53.1241 17.4494
L53.0908 17.4827
" />
<path d="M53.0908 17.4827
L53.0241 17.5160
" />
<path d="M53.0241 17.5160
L52.8241 17.5160
" />
<path d="M52.8241 17.5160
L52.7575 17.4827
" />
<path d="M52.7575 17.4827
L52.7241 17.4494
" />
<path d="M53.4241 16.8827
L53.4575 16.8494
" />
<path d="M53.4575 16.8494
L53.5241 16.8160
" />
<path d="M53.5241 16.8160
L53.6908 16.8160
" />
<path d="M53.6908 16.8160
L53.7575 16.8494
" />
<path d="M53.7575 16.8494
L53.7908 16.8827
" />
<path d="M53.7908 16.8827
L53.8241 16.9494
" />
<path d="M53.8241 16.9494
L53.8241 17.0160
" />
<path d="M53.8241 17.0160
L53.7908 17.1160
" />
<path d="M53.7908 17.1160
L53.3908 17.5160
" />
<path d="M53.3908 17.5160
L53.8241 17.5160
" />
<path d="M54.4908 17.5160
L54.0908 17.5160
" />
<path d="M54.2908 17.5160
L54.2908 16.8160
" />
<path d="M54.2908 16.8160
L54.2241 16.9160
" />
<path d="M54.2241 16.9160
L54.1575 16.9827
" />
<path d="M54.1575 16.9827
L54.0908 17.0160
" />
<path d="M54.9241 16.8160
L54.9908 16.8160
" />
<path d="M54.9908 16.8160
L55.0575 16.8494
" />
<path d="M55.0575 16.8494
L55.0908 16.8827
" />
<path d="M55.0908 16.8827
L55.1241 16.9494
" />
<path d="M55.1241 16.9494
L55.1575 17.0827
" />
<path d="M55.1575 17.0827
L55.1575 17.2494
" />
<path d="M55.1575 17.2494
L55.1241 17.3827
" />
<path d="M55.1241 17.3827
L55.0908 17.4494
" />
<path d="M55.0908 17.4494
L55.0575 17.4827
" />
<path d="M55.0575 17.4827
L54.9908 17.5160
" />
<path d="M54.9908 17.5160
L54.9241 17.5160
" />
<path d="M54.9241 17.5160
L54.8575 17.4827
" />
<path d="M54.8575 17.4827
L54.8241 17.4494
" />
<path d="M54.8241 17.4494
L54.7908 17.3827
" />
<path d="M54.7908 17.3827
L54.7575 17.2494
" />
<path d="M54.7575 17.2494
L54.7575 17.0827
" />
<path d="M54.7575 17.0827
L54.7908 16.9494
" />
<path d="M54.7908 16.9494
L54.8241 16.8827
" />
<path d="M54.8241 16.8827
L54.8575 16.8494
" />
<path d="M54.8575 16.8494
L54.9241 16.8160
" />
<path d="M55.4575 17.5160
L55.4575 17.0494
" />
<path d="M55.4575 17.1827
L55.4908 17.1160
" />
<path d="M55.4908 17.1160
L55.5241 17.0827
" />
<path d="M55.5241 17.0827
L55.5908 17.0494
" />
<path d="M55.5908 17.0494
L55.6575 17.0494
" />
</g><g transform="rotate(13.000000 12.7908 41.8000)">
<text x="12.7908" y="42.1500"
textLength="5.5100" font-size="0.9333" lengthAdjust="spacingAndGlyphs"
text-anchor="middle" opacity="0">SFH 4547</text>
</g>
<g class="stroked-text"><desc>SFH 4547</desc>
<path d="M10.3238 41.5206
L10.4137 41.5755
" />
<path d="M10.4137 41.5755
L10.5761 41.6130
" />
<path d="M10.5761 41.6130
L10.6486 41.5956
" />
<path d="M10.6486 41.5956
L10.6885 41.5706
" />
<path d="M10.6885 41.5706
L10.7360 41.5131
" />
<path d="M10.7360 41.5131
L10.7510 41.4482
" />
<path d="M10.7510 41.4482
L10.7335 41.3757
" />
<path d="M10.7335 41.3757
L10.7085 41.3357
" />
<path d="M10.7085 41.3357
L10.6511 41.2883
" />
<path d="M10.6511 41.2883
L10.5287 41.2258
" />
<path d="M10.5287 41.2258
L10.4712 41.1783
" />
<path d="M10.4712 41.1783
L10.4462 41.1383
" />
<path d="M10.4462 41.1383
L10.4287 41.0659
" />
<path d="M10.4287 41.0659
L10.4437 41.0009
" />
<path d="M10.4437 41.0009
L10.4912 40.9435
" />
<path d="M10.4912 40.9435
L10.5312 40.9185
" />
<path d="M10.5312 40.9185
L10.6036 40.9010
" />
<path d="M10.6036 40.9010
L10.7660 40.9385
" />
<path d="M10.7660 40.9385
L10.8560 40.9935
" />
<path d="M11.3082 41.4057
L11.0808 41.3532
" />
<path d="M10.9983 41.7105
L11.1558 41.0285
" />
<path d="M11.1558 41.0285
L11.4806 41.1034
" />
<path d="M11.5829 41.8455
L11.7404 41.1634
" />
<path d="M11.6654 41.4882
L12.0552 41.5782
" />
<path d="M11.9727 41.9355
L12.1302 41.2534
" />
<path d="M13.2144 41.7432
L13.1095 42.1979
" />
<path d="M13.1120 41.4459
L12.8372 41.8956
" />
<path d="M12.8372 41.8956
L13.2594 41.9931
" />
<path d="M13.9490 41.6733
L13.6242 41.5983
" />
<path d="M13.6242 41.5983
L13.5167 41.9156
" />
<path d="M13.5167 41.9156
L13.5567 41.8906
" />
<path d="M13.5567 41.8906
L13.6292 41.8732
" />
<path d="M13.6292 41.8732
L13.7916 41.9107
" />
<path d="M13.7916 41.9107
L13.8490 41.9581
" />
<path d="M13.8490 41.9581
L13.8740 41.9981
" />
<path d="M13.8740 41.9981
L13.8915 42.0706
" />
<path d="M13.8915 42.0706
L13.8540 42.2330
" />
<path d="M13.8540 42.2330
L13.8065 42.2904
" />
<path d="M13.8065 42.2904
L13.7665 42.3154
" />
<path d="M13.7665 42.3154
L13.6941 42.3329
" />
<path d="M13.6941 42.3329
L13.5317 42.2954
" />
<path d="M13.5317 42.2954
L13.4742 42.2479
" />
<path d="M13.4742 42.2479
L13.4492 42.2079
" />
<path d="M14.5136 42.0431
L14.4086 42.4978
" />
<path d="M14.4112 41.7458
L14.1363 42.1955
" />
<path d="M14.1363 42.1955
L14.5585 42.2930
" />
<path d="M14.8584 41.8833
L15.3131 41.9883
" />
<path d="M15.3131 41.9883
L14.8633 42.6028
" />
</g></g>
<g style="fill:#585D84; fill-opacity:0.0; 
stroke:#585D84; stroke-width:0.1000; stroke-opacity:1; 
stroke-linecap:round; stroke-linejoin:round;">
<path d="M52.3908 83.0000
L60.3908 83.0000
" />
<path d="M60.3908 83.0000
L60.3908 76.4000
" />
<path d="M60.3908 76.4000
L52.3908 76.4000
" />
<path d="M52.3908 76.4000
L52.3908 83.0000
" />
</g>
<g style="fill:#585D84; fill-opacity:0.0; 
stroke:#585D84; stroke-width:0.1270; stroke-opacity:1; 
stroke-linecap:round; stroke-linejoin:round;">
<path d="M32.4327 81.1583
L31.9376 81.0887
" />
<path d="M31.9376 81.0887
L27.9765 80.5321
" />
<path d="M27.9765 80.5321
L27.4814 80.4625
" />
<path d="M27.4814 80.4625
L28.8035 71.0549
" />
<path d="M28.8035 71.0549
L33.7549 71.7508
" />
<path d="M33.7549 71.7508
L32.4327 81.1583
" />
<path d="M27.9765 80.5321
L27.6286 83.0077
" />
<path d="M27.6286 83.0077
L31.5896 83.5644
" />
<path d="M31.5896 83.5644
L31.9376 81.0887
" />
</g>
<g style="fill:#585D84; fill-opacity:0.0; 
stroke:#585D84; stroke-width:0.3000; stroke-opacity:1; 
stroke-linecap:round; stroke-linejoin:round;">
<circle cx="31.9426" cy="78.4518" r="0.1500" /> 
</g>
<g style="fill:#585D84; fill-opacity:0.0; 
stroke:#585D84; stroke-width:0.1270; stroke-opacity:1; 
stroke-linecap:round; stroke-linejoin:round;">
<path d="M44.7520 82.1251
L44.2527 82.0990
" />
<path d="M44.2527 82.0990
L40.2582 81.8896
" />
<path d="M40.2582 81.8896
L39.7589 81.8634
" />
<path d="M39.7589 81.8634
L40.2561 72.3765
" />
<path d="M40.2561 72.3765
L45.2492 72.6381
" />
<path d="M45.2492 72.6381
L44.7520 82.1251
" />
<path d="M40.2582 81.8896
L40.1273 84.3862
" />
<path d="M40.1273 84.3862
L44.1219 84.5955
" />
<path d="M44.1219 84.5955
L44.2527 82.0990
" />
</g>
<g style="fill:#585D84; fill-opacity:0.0; 
stroke:#585D84; stroke-width:0.3000; stroke-opacity:1; 
stroke-linecap:round; stroke-linejoin:round;">
<circle cx="44.0279" cy="79.4716" r="0.1500" /> 
</g>
<g style="fill:#585D84; fill-opacity:0.0; 
stroke:#585D84; stroke-width:0.1000; stroke-opacity:1; 
stroke-linecap:round; stroke-linejoin:round;">
<path d="M69.1608 12.5500
L69.1608 6.4500
" />
<path d="M69.1608 12.5500
L64.1608 12.5500
" />
</g>
<g style="fill:#585D84; fill-opacity:1.0000; 
stroke:#585D84; stroke-width:0.0000; stroke-opacity:1; 
stroke-linecap:round; stroke-linejoin:round;">
<circle cx="67.9308" cy="12.5500" r="0.0500" /> 
</g>
<g style="fill:#585D84; fill-opacity:1.0000; 
stroke:#585D84; stroke-width:0.1000; stroke-opacity:1; 
stroke-linecap:round; stroke-linejoin:round;">
</g>
<g style="fill:#585D84; fill-opacity:0.0; 
stroke:#585D84; stroke-width:0.1000; stroke-opacity:1; 
stroke-linecap:round; stroke-linejoin:round;">
<path d="M67.9308 12.5500
L67.9308 18.9000
" />
<path d="M67.9308 18.9000
L67.9308 12.5500
" />
</g>
<g style="fill:#585D84; fill-opacity:1.0000; 
stroke:#585D84; stroke-width:0.0000; stroke-opacity:1; 
stroke-linecap:round; stroke-linejoin:round;">
<circle cx="67.9308" cy="18.9000" r="0.0500" /> 
<circle cx="65.3908" cy="12.5500" r="0.0500" /> 
</g>
<g style="fill:#585D84; fill-opacity:1.0000; 
stroke:#585D84; stroke-width:0.1000; stroke-opacity:1; 
stroke-linecap:round; stroke-linejoin:round;">
</g>
<g style="fill:#585D84; fill-opacity:0.0; 
stroke:#585D84; stroke-width:0.1000; stroke-opacity:1; 
stroke-linecap:round; stroke-linejoin:round;">
<path d="M65.3908 12.5500
L65.3908 18.9000
" />
<path d="M65.3908 18.9000
L65.3908 12.5500
" />
</g>
<g style="fill:#585D84; fill-opacity:1.0000; 
stroke:#585D84; stroke-width:0.0000; stroke-opacity:1; 
stroke-linecap:round; stroke-linejoin:round;">
<circle cx="65.3908" cy="18.9000" r="0.0500" /> 
</g>
<g style="fill:#585D84; fill-opacity:1.0000; 
stroke:#585D84; stroke-width:0.1000; stroke-opacity:1; 
stroke-linecap:round; stroke-linejoin:round;">
</g>
<g style="fill:#585D84; fill-opacity:0.0; 
stroke:#585D84; stroke-width:0.1000; stroke-opacity:1; 
stroke-linecap:round; stroke-linejoin:round;">
<path d="M64.1608 11.5500
L64.1608 12.5500
" />
<path d="M64.1608 12.5500
L64.1608 6.4500
" />
<path d="M64.1608 12.5500
L63.7608 12.5500
" />
<path d="M63.7608 11.5500
L64.1608 11.5500
" />
<path d="M63.7608 12.5500
L63.7608 11.5500
" />
<path d="M69.1608 6.4500 A2.5000 2.5000 0.0 0 0 64.1608 6.4500" />
<path d="M92.3512 50.3163
L98.2949 48.9441
" />
<path d="M92.3512 50.3163
L91.2265 45.4445
" />
</g>
<g style="fill:#585D84; fill-opacity:1.0000; 
stroke:#585D84; stroke-width:0.0000; stroke-opacity:1; 
stroke-linecap:round; stroke-linejoin:round;">
<circle cx="92.0745" cy="49.1178" r="0.0500" /> 
</g>
<g style="fill:#585D84; fill-opacity:1.0000; 
stroke:#585D84; stroke-width:0.1000; stroke-opacity:1; 
stroke-linecap:round; stroke-linejoin:round;">
</g>
<g style="fill:#585D84; fill-opacity:0.0; 
stroke:#585D84; stroke-width:0.1000; stroke-opacity:1; 
stroke-linecap:round; stroke-linejoin:round;">
<path d="M92.0745 49.1178
L88.3622 49.9749
" />
<path d="M88.3622 49.9749
L92.0745 49.1178
" />
</g>
<g style="fill:#585D84; fill-opacity:1.0000; 
stroke:#585D84; stroke-width:0.0000; stroke-opacity:1; 
stroke-linecap:round; stroke-linejoin:round;">
<circle cx="88.3622" cy="49.9749" r="0.0500" /> 
<circle cx="91.5031" cy="46.6429" r="0.0500" /> 
</g>
<g style="fill:#585D84; fill-opacity:1.0000; 
stroke:#585D84; stroke-width:0.1000; stroke-opacity:1; 
stroke-linecap:round; stroke-linejoin:round;">
</g>
<g style="fill:#585D84; fill-opacity:0.0; 
stroke:#585D84; stroke-width:0.1000; stroke-opacity:1; 
stroke-linecap:round; stroke-linejoin:round;">
<path d="M91.5031 46.6429
L87.7908 47.5000
" />
<path d="M87.7908 47.5000
L91.5031 46.6429
" />
</g>
<g style="fill:#585D84; fill-opacity:1.0000; 
stroke:#585D84; stroke-width:0.0000; stroke-opacity:1; 
stroke-linecap:round; stroke-linejoin:round;">
<circle cx="87.7908" cy="47.5000" r="0.0500" /> 
</g>
<g style="fill:#585D84; fill-opacity:1.0000; 
stroke:#585D84; stroke-width:0.1000; stroke-opacity:1; 
stroke-linecap:round; stroke-linejoin:round;">
</g>
<g style="fill:#585D84; fill-opacity:0.0; 
stroke:#585D84; stroke-width:0.1000; stroke-opacity:1; 
stroke-linecap:round; stroke-linejoin:round;">
<path d="M92.2008 45.2195
L91.2265 45.4445
" />
<path d="M91.2265 45.4445
L97.1701 44.0723
" />
<path d="M91.2265 45.4445
L91.1365 45.0547
" />
<path d="M92.1108 44.8298
L92.2008 45.2195
" />
<path d="M91.1365 45.0547
L92.1108 44.8298
" />
<path d="M98.2949 48.9441 A2.5000 2.5000 0.0 1 0 97.1701 44.0723" />
<path d="M39.1608 12.5500
L39.1608 6.4500
" />
<path d="M39.1608 12.5500
L34.1608 12.5500
" />
</g>
<g style="fill:#585D84; fill-opacity:1.0000; 
stroke:#585D84; stroke-width:0.0000; stroke-opacity:1; 
stroke-linecap:round; stroke-linejoin:round;">
<circle cx="37.9308" cy="12.5500" r="0.0500" /> 
</g>
<g style="fill:#585D84; fill-opacity:1.0000; 
stroke:#585D84; stroke-width:0.1000; stroke-opacity:1; 
stroke-linecap:round; stroke-linejoin:round;">
</g>
<g style="fill:#585D84; fill-opacity:0.0; 
stroke:#585D84; stroke-width:0.1000; stroke-opacity:1; 
stroke-linecap:round; stroke-linejoin:round;">
<path d="M37.9308 12.5500
L37.9308 18.9000
" />
<path d="M37.9308 18.9000
L37.9308 12.5500
" />
</g>
<g style="fill:#585D84; fill-opacity:1.0000; 
stroke:#585D84; stroke-width:0.0000; stroke-opacity:1; 
stroke-linecap:round; stroke-linejoin:round;">
<circle cx="37.9308" cy="18.9000" r="0.0500" /> 
<circle cx="35.3908" cy="12.5500" r="0.0500" /> 
</g>
<g style="fill:#585D84; fill-opacity:1.0000; 
stroke:#585D84; stroke-width:0.1000; stroke-opacity:1; 
stroke-linecap:round; stroke-linejoin:round;">
</g>
<g style="fill:#585D84; fill-opacity:0.0; 
stroke:#585D84; stroke-width:0.1000; stroke-opacity:1; 
stroke-linecap:round; stroke-linejoin:round;">
<path d="M35.3908 12.5500
L35.3908 18.9000
" />
<path d="M35.3908 18.9000
L35.3908 12.5500
" />
</g>
<g style="fill:#585D84; fill-opacity:1.0000; 
stroke:#585D84; stroke-width:0.0000; stroke-opacity:1; 
stroke-linecap:round; stroke-linejoin:round;">
<circle cx="35.3908" cy="18.9000" r="0.0500" /> 
</g>
<g style="fill:#585D84; fill-opacity:1.0000; 
stroke:#585D84; stroke-width:0.1000; stroke-opacity:1; 
stroke-linecap:round; stroke-linejoin:round;">
</g>
<g style="fill:#585D84; fill-opacity:0.0; 
stroke:#585D84; stroke-width:0.1000; stroke-opacity:1; 
stroke-linecap:round; stroke-linejoin:round;">
<path d="M34.1608 11.5500
L34.1608 12.5500
" />
<path d="M34.1608 12.5500
L34.1608 6.4500
" />
<path d="M34.1608 12.5500
L33.7608 12.5500
" />
<path d="M33.7608 11.5500
L34.1608 11.5500
" />
<path d="M33.7608 12.5500
L33.7608 11.5500
" />
<path d="M39.1608 6.4500 A2.5000 2.5000 0.0 0 0 34.1608 6.4500" />
</g>
<g style="fill:#585D84; fill-opacity:0.0; 
stroke:#585D84; stroke-width:0.2000; stroke-opacity:1; 
stroke-linecap:round; stroke-linejoin:round;">
<path d="M67.8908 79.1500
L67.8908 76.6500
" />
<path d="M67.8908 76.6500
L70.8908 76.6500
" />
<path d="M68.5408 79.8500
L68.5408 79.1500
" />
<path d="M70.2408 79.8500
L68.5408 79.8500
" />
<path d="M70.2408 79.1500
L70.2408 79.8500
" />
<path d="M70.8908 79.1500
L67.8908 79.1500
" />
<path d="M70.8908 76.6500
L70.8908 79.1500
" />
</g>
<g style="fill:#585D84; fill-opacity:0.0; 
stroke:#585D84; stroke-width:0.1000; stroke-opacity:1; 
stroke-linecap:round; stroke-linejoin:round;">
<path d="M15.0551 45.9445
L9.1115 44.5723
" />
<path d="M15.0551 45.9445
L13.9304 50.8163
" />
</g>
<g style="fill:#585D84; fill-opacity:1.0000; 
stroke:#585D84; stroke-width:0.0000; stroke-opacity:1; 
stroke-linecap:round; stroke-linejoin:round;">
<circle cx="14.7784" cy="47.1429" r="0.0500" /> 
</g>
<g style="fill:#585D84; fill-opacity:1.0000; 
stroke:#585D84; stroke-width:0.1000; stroke-opacity:1; 
stroke-linecap:round; stroke-linejoin:round;">
</g>
<g style="fill:#585D84; fill-opacity:0.0; 
stroke:#585D84; stroke-width:0.1000; stroke-opacity:1; 
stroke-linecap:round; stroke-linejoin:round;">
<path d="M14.7784 47.1429
L18.4908 48.0000
" />
<path d="M18.4908 48.0000
L14.7784 47.1429
" />
</g>
<g style="fill:#585D84; fill-opacity:1.0000; 
stroke:#585D84; stroke-width:0.0000; stroke-opacity:1; 
stroke-linecap:round; stroke-linejoin:round;">
<circle cx="18.4908" cy="48.0000" r="0.0500" /> 
<circle cx="14.2071" cy="49.6178" r="0.0500" /> 
</g>
<g style="fill:#585D84; fill-opacity:1.0000; 
stroke:#585D84; stroke-width:0.1000; stroke-opacity:1; 
stroke-linecap:round; stroke-linejoin:round;">
</g>
<g style="fill:#585D84; fill-opacity:0.0; 
stroke:#585D84; stroke-width:0.1000; stroke-opacity:1; 
stroke-linecap:round; stroke-linejoin:round;">
<path d="M14.2071 49.6178
L17.9194 50.4749
" />
<path d="M17.9194 50.4749
L14.2071 49.6178
" />
</g>
<g style="fill:#585D84; fill-opacity:1.0000; 
stroke:#585D84; stroke-width:0.0000; stroke-opacity:1; 
stroke-linecap:round; stroke-linejoin:round;">
<circle cx="17.9194" cy="50.4749" r="0.0500" /> 
</g>
<g style="fill:#585D84; fill-opacity:1.0000; 
stroke:#585D84; stroke-width:0.1000; stroke-opacity:1; 
stroke-linecap:round; stroke-linejoin:round;">
</g>
<g style="fill:#585D84; fill-opacity:0.0; 
stroke:#585D84; stroke-width:0.1000; stroke-opacity:1; 
stroke-linecap:round; stroke-linejoin:round;">
<path d="M12.9560 50.5914
L13.9304 50.8163
" />
<path d="M13.9304 50.8163
L7.9867 49.4441
" />
<path d="M13.9304 50.8163
L13.8404 51.2061
" />
<path d="M12.8660 50.9811
L12.9560 50.5914
" />
<path d="M13.8404 51.2061
L12.8660 50.9811
" />
<path d="M9.1115 44.5723 A2.5000 2.5000 0.0 0 0 7.9867 49.4441" />
<g >
</g>
<g >
</g>
<g >
</g>
<g >
</g>
<g >
</g>
<g >
</g>
<g >
</g>
<g >
</g>
<g >
</g>
<g >
</g>
<g >
</g>
<g >
</g>
<g >
</g>
<g >
</g>
<g >
</g>
<g >
</g>
<g >
</g>
<g >
</g>
<g >
</g>
<g >
</g>
<g >
</g>
<g >
</g>
<g >
</g>
<g >
</g>
<g >
</g>
<g >
</g>
<g >
</g>
<g >
</g>
<g >
</g>
<g >
</g>
<g >
</g>
<g >
</g>
<g >
</g>
<g >
</g>
<g >
</g>
<g >
</g>
<g >
</g>
<g >
</g>
<g >
</g>
<g >
</g>
<g >
</g>
<g >
</g>
<g >
</g>
<g >
</g>
<g >
</g>
<g >
</g>
<g >
</g>
<g >
</g>
<g >
</g>
<g >
</g>
<g >
</g>
<g >
</g>
<g >
</g>
<g >
</g>
<g >
</g>
<g >
</g>
<g >
</g>
<g >
</g>
<g >
</g>
<g >
</g>
<g >
</g>
</g>
<g style="fill:#000000; fill-opacity:0.0; 
stroke:#000000; stroke-width:0.1000; stroke-opacity:1; 
stroke-linecap:round; stroke-linejoin:round;">
</g>
<g style="fill:#E8B2A7; fill-opacity:0.0; 
stroke:#E8B2A7; stroke-width:0.1000; stroke-opacity:1; 
stroke-linecap:round; stroke-linejoin:round;">
</g>
<g style="fill:#E8B2A7; fill-opacity:0.0; 
stroke:#E8B2A7; stroke-width:0.1500; stroke-opacity:1; 
stroke-linecap:round; stroke-linejoin:round;">
<text x="59.9908" y="74.1000"
textLength="1.9643" font-size="1.3333" lengthAdjust="spacingAndGlyphs"
text-anchor="middle" opacity="0">J1</text>
<g class="stroked-text"><desc>J1</desc>
<path d="M59.6575 73.0548
L59.6575 73.7691
" />
<path d="M59.6575 73.7691
L59.6098 73.9120
" />
<path d="M59.6098 73.9120
L59.5146 74.0072
" />
<path d="M59.5146 74.0072
L59.3718 74.0548
" />
<path d="M59.3718 74.0548
L59.2765 74.0548
" />
<path d="M60.6575 74.0548
L60.0860 74.0548
" />
<path d="M60.3718 74.0548
L60.3718 73.0548
" />
<path d="M60.3718 73.0548
L60.2765 73.1977
" />
<path d="M60.2765 73.1977
L60.1813 73.2929
" />
<path d="M60.1813 73.2929
L60.0860 73.3405
" />
</g><g transform="rotate(8.000000 31.5908 70.3500)">
<text x="31.5908" y="70.8500"
textLength="1.9643" font-size="1.3333" lengthAdjust="spacingAndGlyphs"
text-anchor="middle" opacity="0">J3</text>
</g>
<g class="stroked-text"><desc>J3</desc>
<path d="M31.3366 69.7637
L31.2372 70.4711
" />
<path d="M31.2372 70.4711
L31.1701 70.6059
" />
<path d="M31.1701 70.6059
L31.0626 70.6870
" />
<path d="M31.0626 70.6870
L30.9145 70.7142
" />
<path d="M30.9145 70.7142
L30.8202 70.7010
" />
<path d="M31.7138 69.8168
L32.3269 69.9029
" />
<path d="M32.3269 69.9029
L31.9437 70.2338
" />
<path d="M31.9437 70.2338
L32.0852 70.2536
" />
<path d="M32.0852 70.2536
L32.1729 70.3141
" />
<path d="M32.1729 70.3141
L32.2134 70.3678
" />
<path d="M32.2134 70.3678
L32.2473 70.4688
" />
<path d="M32.2473 70.4688
L32.2142 70.7046
" />
<path d="M32.2142 70.7046
L32.1538 70.7922
" />
<path d="M32.1538 70.7922
L32.1000 70.8328
" />
<path d="M32.1000 70.8328
L31.9991 70.8667
" />
<path d="M31.9991 70.8667
L31.7161 70.8269
" />
<path d="M31.7161 70.8269
L31.6284 70.7665
" />
<path d="M31.6284 70.7665
L31.5879 70.7127
" />
</g><g transform="rotate(3.000000 42.9408 71.4000)">
<text x="42.9408" y="71.9000"
textLength="1.9643" font-size="1.3333" lengthAdjust="spacingAndGlyphs"
text-anchor="middle" opacity="0">J2</text>
</g>
<g class="stroked-text"><desc>J2</desc>
<path d="M42.6365 70.8381
L42.5991 71.5514
" />
<path d="M42.5991 71.5514
L42.5440 71.6916
" />
<path d="M42.5440 71.6916
L42.4440 71.7817
" />
<path d="M42.4440 71.7817
L42.2988 71.8218
" />
<path d="M42.2988 71.8218
L42.2037 71.8168
" />
<path d="M43.0595 70.9557
L43.1095 70.9106
" />
<path d="M43.1095 70.9106
L43.2071 70.8680
" />
<path d="M43.2071 70.8680
L43.4449 70.8805
" />
<path d="M43.4449 70.8805
L43.5375 70.9330
" />
<path d="M43.5375 70.9330
L43.5825 70.9831
" />
<path d="M43.5825 70.9831
L43.6251 71.0807
" />
<path d="M43.6251 71.0807
L43.6201 71.1758
" />
<path d="M43.6201 71.1758
L43.5651 71.3159
" />
<path d="M43.5651 71.3159
L42.9646 71.8567
" />
<path d="M42.9646 71.8567
L43.5827 71.8891
" />
</g><g transform="rotate(90.000000 61.7908 11.8000)">
<text x="61.7908" y="12.3000"
textLength="7.6786" font-size="1.3333" lengthAdjust="spacingAndGlyphs"
text-anchor="middle" opacity="0">D_FRONT1</text>
</g>
<g class="stroked-text"><desc>D_FRONT1</desc>
<path d="M61.3360 8.3238
L62.3360 8.3238
" />
<path d="M62.3360 8.3238
L62.3360 8.5619
" />
<path d="M62.3360 8.5619
L62.2884 8.7048
" />
<path d="M62.2884 8.7048
L62.1931 8.8000
" />
<path d="M62.1931 8.8000
L62.0979 8.8476
" />
<path d="M62.0979 8.8476
L61.9074 8.8952
" />
<path d="M61.9074 8.8952
L61.7646 8.8952
" />
<path d="M61.7646 8.8952
L61.5741 8.8476
" />
<path d="M61.5741 8.8476
L61.4788 8.8000
" />
<path d="M61.4788 8.8000
L61.3836 8.7048
" />
<path d="M61.3836 8.7048
L61.3360 8.5619
" />
<path d="M61.3360 8.5619
L61.3360 8.3238
" />
<path d="M61.2407 9.0857
L61.2407 9.8476
" />
<path d="M61.8598 10.4190
L61.8598 10.0857
" />
<path d="M61.3360 10.0857
L62.3360 10.0857
" />
<path d="M62.3360 10.0857
L62.3360 10.5619
" />
<path d="M61.3360 11.5143
L61.8122 11.1810
" />
<path d="M61.3360 10.9429
L62.3360 10.9429
" />
<path d="M62.3360 10.9429
L62.3360 11.3238
" />
<path d="M62.3360 11.3238
L62.2884 11.4190
" />
<path d="M62.2884 11.4190
L62.2407 11.4667
" />
<path d="M62.2407 11.4667
L62.1455 11.5143
" />
<path d="M62.1455 11.5143
L62.0026 11.5143
" />
<path d="M62.0026 11.5143
L61.9074 11.4667
" />
<path d="M61.9074 11.4667
L61.8598 11.4190
" />
<path d="M61.8598 11.4190
L61.8122 11.3238
" />
<path d="M61.8122 11.3238
L61.8122 10.9429
" />
<path d="M62.3360 12.1333
L62.3360 12.3238
" />
<path d="M62.3360 12.3238
L62.2884 12.4190
" />
<path d="M62.2884 12.4190
L62.1931 12.5143
" />
<path d="M62.1931 12.5143
L62.0026 12.5619
" />
<path d="M62.0026 12.5619
L61.6693 12.5619
" />
<path d="M61.6693 12.5619
L61.4788 12.5143
" />
<path d="M61.4788 12.5143
L61.3836 12.4190
" />
<path d="M61.3836 12.4190
L61.3360 12.3238
" />
<path d="M61.3360 12.3238
L61.3360 12.1333
" />
<path d="M61.3360 12.1333
L61.3836 12.0381
" />
<path d="M61.3836 12.0381
L61.4788 11.9429
" />
<path d="M61.4788 11.9429
L61.6693 11.8952
" />
<path d="M61.6693 11.8952
L62.0026 11.8952
" />
<path d="M62.0026 11.8952
L62.1931 11.9429
" />
<path d="M62.1931 11.9429
L62.2884 12.0381
" />
<path d="M62.2884 12.0381
L62.3360 12.1333
" />
<path d="M61.3360 12.9905
L62.3360 12.9905
" />
<path d="M62.3360 12.9905
L61.3360 13.5619
" />
<path d="M61.3360 13.5619
L62.3360 13.5619
" />
<path d="M62.3360 13.8952
L62.3360 14.4667
" />
<path d="M61.3360 14.1810
L62.3360 14.1810
" />
<path d="M61.3360 15.3238
L61.3360 14.7524
" />
<path d="M61.3360 15.0381
L62.3360 15.0381
" />
<path d="M62.3360 15.0381
L62.1931 14.9429
" />
<path d="M62.1931 14.9429
L62.0979 14.8476
" />
<path d="M62.0979 14.8476
L62.0503 14.7524
" />
</g><g transform="rotate(-13.000000 94.1908 42.6000)">
<text x="94.1908" y="43.1000"
textLength="6.2976" font-size="1.3333" lengthAdjust="spacingAndGlyphs"
text-anchor="middle" opacity="0">D_SIDE1</text>
</g>
<g class="stroked-text"><desc>D_SIDE1</desc>
<path d="M91.5788 43.6698
L91.3538 42.6954
" />
<path d="M91.3538 42.6954
L91.5858 42.6419
" />
<path d="M91.5858 42.6419
L91.7357 42.6561
" />
<path d="M91.7357 42.6561
L91.8500 42.7275
" />
<path d="M91.8500 42.7275
L91.9178 42.8096
" />
<path d="M91.9178 42.8096
L92.0070 42.9845
" />
<path d="M92.0070 42.9845
L92.0392 43.1237
" />
<path d="M92.0392 43.1237
L92.0356 43.3200
" />
<path d="M92.0356 43.3200
L92.0106 43.4235
" />
<path d="M92.0106 43.4235
L91.9393 43.5377
" />
<path d="M91.9393 43.5377
L91.8108 43.6163
" />
<path d="M91.8108 43.6163
L91.5788 43.6698
" />
<path d="M92.3426 43.5912
L93.0850 43.4198
" />
<path d="M93.2384 43.2378
L93.3883 43.2520
" />
<path d="M93.3883 43.2520
L93.6203 43.1985
" />
<path d="M93.6203 43.1985
L93.7024 43.1307
" />
<path d="M93.7024 43.1307
L93.7381 43.0736
" />
<path d="M93.7381 43.0736
L93.7631 42.9700
" />
<path d="M93.7631 42.9700
L93.7417 42.8772
" />
<path d="M93.7417 42.8772
L93.6738 42.7952
" />
<path d="M93.6738 42.7952
L93.6167 42.7595
" />
<path d="M93.6167 42.7595
L93.5132 42.7345
" />
<path d="M93.5132 42.7345
L93.3169 42.7309
" />
<path d="M93.3169 42.7309
L93.2134 42.7060
" />
<path d="M93.2134 42.7060
L93.1563 42.6703
" />
<path d="M93.1563 42.6703
L93.0885 42.5882
" />
<path d="M93.0885 42.5882
L93.0670 42.4954
" />
<path d="M93.0670 42.4954
L93.0920 42.3919
" />
<path d="M93.0920 42.3919
L93.1277 42.3348
" />
<path d="M93.1277 42.3348
L93.2098 42.2670
" />
<path d="M93.2098 42.2670
L93.4418 42.2134
" />
<path d="M93.4418 42.2134
L93.5917 42.2277
" />
<path d="M94.2235 43.0592
L93.9986 42.0849
" />
<path d="M94.6875 42.9521
L94.4625 41.9777
" />
<path d="M94.4625 41.9777
L94.6945 41.9242
" />
<path d="M94.6945 41.9242
L94.8444 41.9384
" />
<path d="M94.8444 41.9384
L94.9587 42.0098
" />
<path d="M94.9587 42.0098
L95.0265 42.0919
" />
<path d="M95.0265 42.0919
L95.1157 42.2668
" />
<path d="M95.1157 42.2668
L95.1479 42.4060
" />
<path d="M95.1479 42.4060
L95.1443 42.6023
" />
<path d="M95.1443 42.6023
L95.1194 42.7058
" />
<path d="M95.1194 42.7058
L95.0480 42.8200
" />
<path d="M95.0480 42.8200
L94.9195 42.8986
" />
<path d="M94.9195 42.8986
L94.6875 42.9521
" />
<path d="M95.5440 42.2168
L95.8688 42.1418
" />
<path d="M96.1259 42.6200
L95.6619 42.7272
" />
<path d="M95.6619 42.7272
L95.4369 41.7528
" />
<path d="M95.4369 41.7528
L95.9009 41.6457
" />
<path d="M97.0538 42.4058
L96.4970 42.5343
" />
<path d="M96.7754 42.4701
L96.5505 41.4957
" />
<path d="M96.5505 41.4957
L96.4898 41.6563
" />
<path d="M96.4898 41.6563
L96.4185 41.7705
" />
<path d="M96.4185 41.7705
L96.3364 41.8384
" />
</g><g transform="rotate(90.000000 31.9908 11.2000)">
<text x="31.9908" y="11.7000"
textLength="7.6786" font-size="1.3333" lengthAdjust="spacingAndGlyphs"
text-anchor="middle" opacity="0">D_FRONT2</text>
</g>
<g class="stroked-text"><desc>D_FRONT2</desc>
<path d="M31.5360 7.7238
L32.5360 7.7238
" />
<path d="M32.5360 7.7238
L32.5360 7.9619
" />
<path d="M32.5360 7.9619
L32.4884 8.1048
" />
<path d="M32.4884 8.1048
L32.3931 8.2000
" />
<path d="M32.3931 8.2000
L32.2979 8.2476
" />
<path d="M32.2979 8.2476
L32.1074 8.2952
" />
<path d="M32.1074 8.2952
L31.9646 8.2952
" />
<path d="M31.9646 8.2952
L31.7741 8.2476
" />
<path d="M31.7741 8.2476
L31.6788 8.2000
" />
<path d="M31.6788 8.2000
L31.5836 8.1048
" />
<path d="M31.5836 8.1048
L31.5360 7.9619
" />
<path d="M31.5360 7.9619
L31.5360 7.7238
" />
<path d="M31.4407 8.4857
L31.4407 9.2476
" />
<path d="M32.0598 9.8190
L32.0598 9.4857
" />
<path d="M31.5360 9.4857
L32.5360 9.4857
" />
<path d="M32.5360 9.4857
L32.5360 9.9619
" />
<path d="M31.5360 10.9143
L32.0122 10.5810
" />
<path d="M31.5360 10.3429
L32.5360 10.3429
" />
<path d="M32.5360 10.3429
L32.5360 10.7238
" />
<path d="M32.5360 10.7238
L32.4884 10.8190
" />
<path d="M32.4884 10.8190
L32.4407 10.8667
" />
<path d="M32.4407 10.8667
L32.3455 10.9143
" />
<path d="M32.3455 10.9143
L32.2026 10.9143
" />
<path d="M32.2026 10.9143
L32.1074 10.8667
" />
<path d="M32.1074 10.8667
L32.0598 10.8190
" />
<path d="M32.0598 10.8190
L32.0122 10.7238
" />
<path d="M32.0122 10.7238
L32.0122 10.3429
" />
<path d="M32.5360 11.5333
L32.5360 11.7238
" />
<path d="M32.5360 11.7238
L32.4884 11.8190
" />
<path d="M32.4884 11.8190
L32.3931 11.9143
" />
<path d="M32.3931 11.9143
L32.2026 11.9619
" />
<path d="M32.2026 11.9619
L31.8693 11.9619
" />
<path d="M31.8693 11.9619
L31.6788 11.9143
" />
<path d="M31.6788 11.9143
L31.5836 11.8190
" />
<path d="M31.5836 11.8190
L31.5360 11.7238
" />
<path d="M31.5360 11.7238
L31.5360 11.5333
" />
<path d="M31.5360 11.5333
L31.5836 11.4381
" />
<path d="M31.5836 11.4381
L31.6788 11.3429
" />
<path d="M31.6788 11.3429
L31.8693 11.2952
" />
<path d="M31.8693 11.2952
L32.2026 11.2952
" />
<path d="M32.2026 11.2952
L32.3931 11.3429
" />
<path d="M32.3931 11.3429
L32.4884 11.4381
" />
<path d="M32.4884 11.4381
L32.5360 11.5333
" />
<path d="M31.5360 12.3905
L32.5360 12.3905
" />
<path d="M32.5360 12.3905
L31.5360 12.9619
" />
<path d="M31.5360 12.9619
L32.5360 12.9619
" />
<path d="M32.5360 13.2952
L32.5360 13.8667
" />
<path d="M31.5360 13.5810
L32.5360 13.5810
" />
<path d="M32.4407 14.1524
L32.4884 14.2000
" />
<path d="M32.4884 14.2000
L32.5360 14.2952
" />
<path d="M32.5360 14.2952
L32.5360 14.5333
" />
<path d="M32.5360 14.5333
L32.4884 14.6286
" />
<path d="M32.4884 14.6286
L32.4407 14.6762
" />
<path d="M32.4407 14.6762
L32.3455 14.7238
" />
<path d="M32.3455 14.7238
L32.2503 14.7238
" />
<path d="M32.2503 14.7238
L32.1074 14.6762
" />
<path d="M32.1074 14.6762
L31.5360 14.1048
" />
<path d="M31.5360 14.1048
L31.5360 14.7238
" />
</g><text x="69.3908" y="75.9000"
textLength="2.1548" font-size="1.3333" lengthAdjust="spacingAndGlyphs"
text-anchor="middle" opacity="0">S1</text>
<g class="stroked-text"><desc>S1</desc>
<path d="M68.6289 75.8072
L68.7718 75.8548
" />
<path d="M68.7718 75.8548
L69.0098 75.8548
" />
<path d="M69.0098 75.8548
L69.1051 75.8072
" />
<path d="M69.1051 75.8072
L69.1527 75.7596
" />
<path d="M69.1527 75.7596
L69.2003 75.6643
" />
<path d="M69.2003 75.6643
L69.2003 75.5691
" />
<path d="M69.2003 75.5691
L69.1527 75.4739
" />
<path d="M69.1527 75.4739
L69.1051 75.4262
" />
<path d="M69.1051 75.4262
L69.0098 75.3786
" />
<path d="M69.0098 75.3786
L68.8194 75.3310
" />
<path d="M68.8194 75.3310
L68.7241 75.2834
" />
<path d="M68.7241 75.2834
L68.6765 75.2358
" />
<path d="M68.6765 75.2358
L68.6289 75.1405
" />
<path d="M68.6289 75.1405
L68.6289 75.0453
" />
<path d="M68.6289 75.0453
L68.6765 74.9501
" />
<path d="M68.6765 74.9501
L68.7241 74.9024
" />
<path d="M68.7241 74.9024
L68.8194 74.8548
" />
<path d="M68.8194 74.8548
L69.0575 74.8548
" />
<path d="M69.0575 74.8548
L69.2003 74.9024
" />
<path d="M70.1527 75.8548
L69.5813 75.8548
" />
<path d="M69.8670 75.8548
L69.8670 74.8548
" />
<path d="M69.8670 74.8548
L69.7718 74.9977
" />
<path d="M69.7718 74.9977
L69.6765 75.0929
" />
<path d="M69.6765 75.0929
L69.5813 75.1405
" />
</g><text x="51.3908" y="16.7000"
textLength="2.2024" font-size="1.3333" lengthAdjust="spacingAndGlyphs"
text-anchor="middle" opacity="0">D1</text>
<g class="stroked-text"><desc>D1</desc>
<path d="M50.6527 16.6548
L50.6527 15.6548
" />
<path d="M50.6527 15.6548
L50.8908 15.6548
" />
<path d="M50.8908 15.6548
L51.0337 15.7024
" />
<path d="M51.0337 15.7024
L51.1289 15.7977
" />
<path d="M51.1289 15.7977
L51.1765 15.8929
" />
<path d="M51.1765 15.8929
L51.2241 16.0834
" />
<path d="M51.2241 16.0834
L51.2241 16.2262
" />
<path d="M51.2241 16.2262
L51.1765 16.4167
" />
<path d="M51.1765 16.4167
L51.1289 16.5120
" />
<path d="M51.1289 16.5120
L51.0337 16.6072
" />
<path d="M51.0337 16.6072
L50.8908 16.6548
" />
<path d="M50.8908 16.6548
L50.6527 16.6548
" />
<path d="M52.1765 16.6548
L51.6051 16.6548
" />
<path d="M51.8908 16.6548
L51.8908 15.6548
" />
<path d="M51.8908 15.6548
L51.7956 15.7977
" />
<path d="M51.7956 15.7977
L51.7003 15.8929
" />
<path d="M51.7003 15.8929
L51.6051 15.9405
" />
</g><g transform="rotate(13.000000 11.9908 43.0000)">
<text x="11.9908" y="43.5000"
textLength="6.2976" font-size="1.3333" lengthAdjust="spacingAndGlyphs"
text-anchor="middle" opacity="0">D_SIDE2</text>
</g>
<g class="stroked-text"><desc>D_SIDE2</desc>
<path d="M9.1742 42.8165
L9.3991 41.8421
" />
<path d="M9.3991 41.8421
L9.6311 41.8957
" />
<path d="M9.6311 41.8957
L9.7596 41.9742
" />
<path d="M9.7596 41.9742
L9.8310 42.0885
" />
<path d="M9.8310 42.0885
L9.8559 42.1920
" />
<path d="M9.8559 42.1920
L9.8595 42.3883
" />
<path d="M9.8595 42.3883
L9.8274 42.5275
" />
<path d="M9.8274 42.5275
L9.7381 42.7024
" />
<path d="M9.7381 42.7024
L9.6703 42.7844
" />
<path d="M9.6703 42.7844
L9.5561 42.8558
" />
<path d="M9.5561 42.8558
L9.4062 42.8701
" />
<path d="M9.4062 42.8701
L9.1742 42.8165
" />
<path d="M9.8951 43.0807
L10.6375 43.2521
" />
<path d="M10.8552 43.1557
L10.9837 43.2343
" />
<path d="M10.9837 43.2343
L11.2157 43.2878
" />
<path d="M11.2157 43.2878
L11.3192 43.2629
" />
<path d="M11.3192 43.2629
L11.3763 43.2272
" />
<path d="M11.3763 43.2272
L11.4442 43.1451
" />
<path d="M11.4442 43.1451
L11.4656 43.0523
" />
<path d="M11.4656 43.0523
L11.4406 42.9488
" />
<path d="M11.4406 42.9488
L11.4049 42.8917
" />
<path d="M11.4049 42.8917
L11.3228 42.8239
" />
<path d="M11.3228 42.8239
L11.1479 42.7346
" />
<path d="M11.1479 42.7346
L11.0659 42.6668
" />
<path d="M11.0659 42.6668
L11.0302 42.6097
" />
<path d="M11.0302 42.6097
L11.0052 42.5062
" />
<path d="M11.0052 42.5062
L11.0266 42.4134
" />
<path d="M11.0266 42.4134
L11.0944 42.3313
" />
<path d="M11.0944 42.3313
L11.1516 42.2956
" />
<path d="M11.1516 42.2956
L11.2551 42.2706
" />
<path d="M11.2551 42.2706
L11.4871 42.3242
" />
<path d="M11.4871 42.3242
L11.6155 42.4027
" />
<path d="M11.8189 43.4271
L12.0438 42.4527
" />
<path d="M12.2829 43.5342
L12.5078 42.5598
" />
<path d="M12.5078 42.5598
L12.7398 42.6134
" />
<path d="M12.7398 42.6134
L12.8683 42.6919
" />
<path d="M12.8683 42.6919
L12.9397 42.8062
" />
<path d="M12.9397 42.8062
L12.9647 42.9097
" />
<path d="M12.9647 42.9097
L12.9682 43.1060
" />
<path d="M12.9682 43.1060
L12.9361 43.2452
" />
<path d="M12.9361 43.2452
L12.8468 43.4201
" />
<path d="M12.8468 43.4201
L12.7790 43.5021
" />
<path d="M12.7790 43.5021
L12.6648 43.5735
" />
<path d="M12.6648 43.5735
L12.5149 43.5878
" />
<path d="M12.5149 43.5878
L12.2829 43.5342
" />
<path d="M13.3751 43.2488
L13.6999 43.3238
" />
<path d="M13.7212 43.8663
L13.2572 43.7592
" />
<path d="M13.2572 43.7592
L13.4822 42.7848
" />
<path d="M13.4822 42.7848
L13.9462 42.8919
" />
<path d="M14.2959 43.0704
L14.3531 43.0347
" />
<path d="M14.3531 43.0347
L14.4566 43.0097
" />
<path d="M14.4566 43.0097
L14.6886 43.0633
" />
<path d="M14.6886 43.0633
L14.7706 43.1311
" />
<path d="M14.7706 43.1311
L14.8063 43.1882
" />
<path d="M14.8063 43.1882
L14.8313 43.2917
" />
<path d="M14.8313 43.2917
L14.8099 43.3845
" />
<path d="M14.8099 43.3845
L14.7313 43.5130
" />
<path d="M14.7313 43.5130
L14.0460 43.9413
" />
<path d="M14.0460 43.9413
L14.6492 44.0805
" />
</g></g>
<g style="fill:#E8B2A7; fill-opacity:0.0; 
stroke:#E8B2A7; stroke-width:0.2000; stroke-opacity:1; 
stroke-linecap:round; stroke-linejoin:round;">
<path d="M52.3908 82.1500
L52.3908 83.0000
" />
<path d="M52.3908 83.0000
L60.3908 83.0000
" />
<path d="M60.3908 83.0000
L60.3908 82.1500
" />
<path d="M60.3908 79.1500
L60.3908 78.3500
" />
<path d="M52.3908 78.3500
L52.3908 79.1500
" />
</g>
<g style="fill:#E8B2A7; fill-opacity:1.0000; 
stroke:#E8B2A7; stroke-width:0.0000; stroke-opacity:1; 
stroke-linecap:round; stroke-linejoin:round;">
<circle cx="55.0908" cy="75.1000" r="0.0500" /> 
<circle cx="55.0908" cy="75.2000" r="0.0500" /> 
</g>
<g style="fill:#E8B2A7; fill-opacity:0.0; 
stroke:#E8B2A7; stroke-width:0.1000; stroke-opacity:1; 
stroke-linecap:round; stroke-linejoin:round;">
<path d="M55.0908 75.1000 A0.0500 0.0500 0.0 0 0 55.0908 75.2000" />
<path d="M55.0908 75.2000 A0.0500 0.0500 0.0 0 0 55.0908 75.1000" />
</g>
<g style="fill:#E8B2A7; fill-opacity:0.0; 
stroke:#E8B2A7; stroke-width:0.1270; stroke-opacity:1; 
stroke-linecap:round; stroke-linejoin:round;">
<path d="M32.4327 81.1583
L31.9376 81.0887
" />
<path d="M31.9376 81.0887
L27.9765 80.5321
" />
<path d="M27.9765 80.5321
L27.4814 80.4625
" />
<path d="M27.9765 80.5321
L27.6286 83.0077
" />
<path d="M27.6286 83.0077
L31.5896 83.5644
" />
<path d="M31.5896 83.5644
L31.9376 81.0887
" />
<path d="M32.9894 77.1973
L33.2677 75.2167
" />
<path d="M28.7288 71.5867
L28.8035 71.0549
" />
<path d="M33.6922 72.1964
L33.7549 71.7508
" />
</g>
<g style="fill:#E8B2A7; fill-opacity:0.0; 
stroke:#E8B2A7; stroke-width:0.3000; stroke-opacity:1; 
stroke-linecap:round; stroke-linejoin:round;">
<circle cx="34.9985" cy="78.9823" r="0.1500" /> 
</g>
<g style="fill:#E8B2A7; fill-opacity:0.0; 
stroke:#E8B2A7; stroke-width:0.1270; stroke-opacity:1; 
stroke-linecap:round; stroke-linejoin:round;">
<path d="M28.0520 76.4024
L28.3164 74.5209
" />
<path d="M28.8035 71.0549
L33.7053 71.7438
" />
<path d="M27.4883 80.4130
L27.6136 79.5217
" />
<path d="M32.4327 81.1583
L32.5580 80.2671
" />
<path d="M44.7520 82.1251
L44.2527 82.0990
" />
<path d="M44.2527 82.0990
L40.2582 81.8896
" />
<path d="M40.2582 81.8896
L39.7589 81.8634
" />
<path d="M40.2582 81.8896
L40.1273 84.3862
" />
<path d="M40.1273 84.3862
L44.1219 84.5955
" />
<path d="M44.1219 84.5955
L44.2527 82.0990
" />
<path d="M44.9614 78.1306
L45.0660 76.1333
" />
<path d="M40.2279 72.9127
L40.2561 72.3765
" />
<path d="M45.2257 73.0875
L45.2492 72.6381
" />
</g>
<g style="fill:#E8B2A7; fill-opacity:0.0; 
stroke:#E8B2A7; stroke-width:0.3000; stroke-opacity:1; 
stroke-linecap:round; stroke-linejoin:round;">
<circle cx="47.1184" cy="79.7337" r="0.1500" /> 
</g>
<g style="fill:#E8B2A7; fill-opacity:0.0; 
stroke:#E8B2A7; stroke-width:0.1270; stroke-opacity:1; 
stroke-linecap:round; stroke-linejoin:round;">
<path d="M39.9734 77.7691
L40.0729 75.8717
" />
<path d="M40.2561 72.3765
L45.1993 72.6355
" />
<path d="M39.7615 81.8135
L39.8086 80.9147
" />
<path d="M44.7520 82.1251
L44.7991 81.2264
" />
</g>
<g style="fill:#E8B2A7; fill-opacity:0.0; 
stroke:#E8B2A7; stroke-width:0.1200; stroke-opacity:1; 
stroke-linecap:round; stroke-linejoin:round;">
<path d="M69.2208 12.6100
L69.2208 6.4500
" />
<path d="M69.2208 12.6100
L64.1008 12.6100
" />
</g>
<g style="fill:#E8B2A7; fill-opacity:1.0000; 
stroke:#E8B2A7; stroke-width:0.0000; stroke-opacity:1; 
stroke-linecap:round; stroke-linejoin:round;">
<circle cx="67.9308" cy="12.6100" r="0.0600" /> 
</g>
<g style="fill:#E8B2A7; fill-opacity:1.0000; 
stroke:#E8B2A7; stroke-width:0.1200; stroke-opacity:1; 
stroke-linecap:round; stroke-linejoin:round;">
</g>
<g style="fill:#E8B2A7; fill-opacity:0.0; 
stroke:#E8B2A7; stroke-width:0.1200; stroke-opacity:1; 
stroke-linecap:round; stroke-linejoin:round;">
<path d="M67.9308 12.6100
L67.9308 17.8200
" />
<path d="M67.9308 17.8200
L67.9308 12.6100
" />
</g>
<g style="fill:#E8B2A7; fill-opacity:1.0000; 
stroke:#E8B2A7; stroke-width:0.0000; stroke-opacity:1; 
stroke-linecap:round; stroke-linejoin:round;">
<circle cx="67.9308" cy="17.8200" r="0.0600" /> 
<circle cx="65.3908" cy="12.6100" r="0.0600" /> 
</g>
<g style="fill:#E8B2A7; fill-opacity:1.0000; 
stroke:#E8B2A7; stroke-width:0.1200; stroke-opacity:1; 
stroke-linecap:round; stroke-linejoin:round;">
</g>
<g style="fill:#E8B2A7; fill-opacity:0.0; 
stroke:#E8B2A7; stroke-width:0.1200; stroke-opacity:1; 
stroke-linecap:round; stroke-linejoin:round;">
<path d="M65.3908 12.6100
L65.3908 17.8200
" />
<path d="M65.3908 17.8200
L65.3908 12.6100
" />
</g>
<g style="fill:#E8B2A7; fill-opacity:1.0000; 
stroke:#E8B2A7; stroke-width:0.0000; stroke-opacity:1; 
stroke-linecap:round; stroke-linejoin:round;">
<circle cx="65.3908" cy="17.8200" r="0.0600" /> 
</g>
<g style="fill:#E8B2A7; fill-opacity:1.0000; 
stroke:#E8B2A7; stroke-width:0.1200; stroke-opacity:1; 
stroke-linecap:round; stroke-linejoin:round;">
</g>
<g style="fill:#E8B2A7; fill-opacity:0.0; 
stroke:#E8B2A7; stroke-width:0.1200; stroke-opacity:1; 
stroke-linecap:round; stroke-linejoin:round;">
<path d="M64.1008 11.4900
L64.1008 12.6100
" />
<path d="M64.1008 12.6100
L64.1008 6.4500
" />
<path d="M64.1008 12.6100
L63.7008 12.6100
" />
<path d="M63.7008 11.4900
L64.1008 11.4900
" />
<path d="M63.7008 12.6100
L63.7008 11.4900
" />
<path d="M69.2208 6.4500 A2.5600 2.5600 0.0 0 0 64.1008 6.4500" />
<path d="M92.3063 50.3883
L98.3084 49.0026
" />
<path d="M92.3063 50.3883
L91.1545 45.3995
" />
</g>
<g style="fill:#E8B2A7; fill-opacity:1.0000; 
stroke:#E8B2A7; stroke-width:0.0000; stroke-opacity:1; 
stroke-linecap:round; stroke-linejoin:round;">
<circle cx="92.0161" cy="49.1313" r="0.0600" /> 
</g>
<g style="fill:#E8B2A7; fill-opacity:1.0000; 
stroke:#E8B2A7; stroke-width:0.1200; stroke-opacity:1; 
stroke-linecap:round; stroke-linejoin:round;">
</g>
<g style="fill:#E8B2A7; fill-opacity:0.0; 
stroke:#E8B2A7; stroke-width:0.1200; stroke-opacity:1; 
stroke-linecap:round; stroke-linejoin:round;">
<path d="M92.0161 49.1313
L89.4145 49.7320
" />
<path d="M89.4145 49.7320
L92.0161 49.1313
" />
</g>
<g style="fill:#E8B2A7; fill-opacity:1.0000; 
stroke:#E8B2A7; stroke-width:0.0000; stroke-opacity:1; 
stroke-linecap:round; stroke-linejoin:round;">
<circle cx="89.4145" cy="49.7320" r="0.0600" /> 
<circle cx="91.4447" cy="46.6564" r="0.0600" /> 
</g>
<g style="fill:#E8B2A7; fill-opacity:1.0000; 
stroke:#E8B2A7; stroke-width:0.1200; stroke-opacity:1; 
stroke-linecap:round; stroke-linejoin:round;">
</g>
<g style="fill:#E8B2A7; fill-opacity:0.0; 
stroke:#E8B2A7; stroke-width:0.1200; stroke-opacity:1; 
stroke-linecap:round; stroke-linejoin:round;">
<path d="M91.4447 46.6564
L88.8431 47.2571
" />
<path d="M88.8431 47.2571
L91.4447 46.6564
" />
</g>
<g style="fill:#E8B2A7; fill-opacity:1.0000; 
stroke:#E8B2A7; stroke-width:0.0000; stroke-opacity:1; 
stroke-linecap:round; stroke-linejoin:round;">
<circle cx="88.8431" cy="47.2571" r="0.0600" /> 
</g>
<g style="fill:#E8B2A7; fill-opacity:1.0000; 
stroke:#E8B2A7; stroke-width:0.1200; stroke-opacity:1; 
stroke-linecap:round; stroke-linejoin:round;">
</g>
<g style="fill:#E8B2A7; fill-opacity:0.0; 
stroke:#E8B2A7; stroke-width:0.1200; stroke-opacity:1; 
stroke-linecap:round; stroke-linejoin:round;">
<path d="M92.2458 45.1476
L91.1545 45.3995
" />
<path d="M91.1545 45.3995
L97.1566 44.0138
" />
<path d="M91.1545 45.3995
L91.0645 45.0097
" />
<path d="M92.1558 44.7578
L92.2458 45.1476
" />
<path d="M91.0645 45.0097
L92.1558 44.7578
" />
<path d="M98.3084 49.0026 A2.5600 2.5600 0.0 1 0 97.1566 44.0138" />
<path d="M39.2208 12.6100
L39.2208 6.4500
" />
<path d="M39.2208 12.6100
L34.1008 12.6100
" />
</g>
<g style="fill:#E8B2A7; fill-opacity:1.0000; 
stroke:#E8B2A7; stroke-width:0.0000; stroke-opacity:1; 
stroke-linecap:round; stroke-linejoin:round;">
<circle cx="37.9308" cy="12.6100" r="0.0600" /> 
</g>
<g style="fill:#E8B2A7; fill-opacity:1.0000; 
stroke:#E8B2A7; stroke-width:0.1200; stroke-opacity:1; 
stroke-linecap:round; stroke-linejoin:round;">
</g>
<g style="fill:#E8B2A7; fill-opacity:0.0; 
stroke:#E8B2A7; stroke-width:0.1200; stroke-opacity:1; 
stroke-linecap:round; stroke-linejoin:round;">
<path d="M37.9308 12.6100
L37.9308 17.8200
" />
<path d="M37.9308 17.8200
L37.9308 12.6100
" />
</g>
<g style="fill:#E8B2A7; fill-opacity:1.0000; 
stroke:#E8B2A7; stroke-width:0.0000; stroke-opacity:1; 
stroke-linecap:round; stroke-linejoin:round;">
<circle cx="37.9308" cy="17.8200" r="0.0600" /> 
<circle cx="35.3908" cy="12.6100" r="0.0600" /> 
</g>
<g style="fill:#E8B2A7; fill-opacity:1.0000; 
stroke:#E8B2A7; stroke-width:0.1200; stroke-opacity:1; 
stroke-linecap:round; stroke-linejoin:round;">
</g>
<g style="fill:#E8B2A7; fill-opacity:0.0; 
stroke:#E8B2A7; stroke-width:0.1200; stroke-opacity:1; 
stroke-linecap:round; stroke-linejoin:round;">
<path d="M35.3908 12.6100
L35.3908 17.8200
" />
<path d="M35.3908 17.8200
L35.3908 12.6100
" />
</g>
<g style="fill:#E8B2A7; fill-opacity:1.0000; 
stroke:#E8B2A7; stroke-width:0.0000; stroke-opacity:1; 
stroke-linecap:round; stroke-linejoin:round;">
<circle cx="35.3908" cy="17.8200" r="0.0600" /> 
</g>
<g style="fill:#E8B2A7; fill-opacity:1.0000; 
stroke:#E8B2A7; stroke-width:0.1200; stroke-opacity:1; 
stroke-linecap:round; stroke-linejoin:round;">
</g>
<g style="fill:#E8B2A7; fill-opacity:0.0; 
stroke:#E8B2A7; stroke-width:0.1200; stroke-opacity:1; 
stroke-linecap:round; stroke-linejoin:round;">
<path d="M34.1008 11.4900
L34.1008 12.6100
" />
<path d="M34.1008 12.6100
L34.1008 6.4500
" />
<path d="M34.1008 12.6100
L33.7008 12.6100
" />
<path d="M33.7008 11.4900
L34.1008 11.4900
" />
<path d="M33.7008 12.6100
L33.7008 11.4900
" />
<path d="M39.2208 6.4500 A2.5600 2.5600 0.0 0 0 34.1008 6.4500" />
</g>
<g style="fill:#E8B2A7; fill-opacity:0.0; 
stroke:#E8B2A7; stroke-width:0.2000; stroke-opacity:1; 
stroke-linecap:round; stroke-linejoin:round;">
<path d="M66.8458 77.9000 A0.1000 0.1000 0.0 0 0 67.0458 77.9000" />
<path d="M67.0458 77.9000 A0.1000 0.1000 0.0 0 0 66.8458 77.9000" />
</g>
<g style="fill:#E8B2A7; fill-opacity:1.0000; 
stroke:#E8B2A7; stroke-width:0.0000; stroke-opacity:1; 
stroke-linecap:round; stroke-linejoin:round;">
<circle cx="66.8458" cy="77.9000" r="0.1000" /> 
<circle cx="67.0458" cy="77.9000" r="0.1000" /> 
</g>
<g style="fill:#E8B2A7; fill-opacity:1.0000; 
stroke:#E8B2A7; stroke-width:0.1000; stroke-opacity:1; 
stroke-linecap:round; stroke-linejoin:round;">
</g>
<g style="fill:#E8B2A7; fill-opacity:0.0; 
stroke:#E8B2A7; stroke-width:0.1000; stroke-opacity:1; 
stroke-linecap:round; stroke-linejoin:round;">
<path d="M68.5408 79.8500
L68.5408 79.1500
" />
<path d="M68.5408 79.1500
L67.8908 79.1500
" />
<path d="M70.2408 79.8500
L68.5408 79.8500
" />
<path d="M70.2408 79.1500
L70.2408 79.8500
" />
<path d="M70.8908 79.1500
L70.2408 79.1500
" />
<path d="M70.8908 76.6500
L67.8908 76.6500
" />
<path d="M52.4908 19.2150
L50.2908 19.2150
" />
<path d="M52.4408 19.6900
L52.1408 19.6900
" />
<path d="M51.4908 19.6900
L51.2908 19.6900
" />
<path d="M50.6408 19.6900
L50.3408 19.6900
" />
<path d="M52.5911 19.1194 A1.2023 1.2023 0.0 0 0 50.1908 19.1150" />
</g>
<g style="fill:#E8B2A7; fill-opacity:0.0; 
stroke:#E8B2A7; stroke-width:0.1200; stroke-opacity:1; 
stroke-linecap:round; stroke-linejoin:round;">
<path d="M15.1271 45.8995
L9.1250 44.5138
" />
<path d="M15.1271 45.8995
L13.9753 50.8883
" />
</g>
<g style="fill:#E8B2A7; fill-opacity:1.0000; 
stroke:#E8B2A7; stroke-width:0.0000; stroke-opacity:1; 
stroke-linecap:round; stroke-linejoin:round;">
<circle cx="14.8369" cy="47.1564" r="0.0600" /> 
</g>
<g style="fill:#E8B2A7; fill-opacity:1.0000; 
stroke:#E8B2A7; stroke-width:0.1200; stroke-opacity:1; 
stroke-linecap:round; stroke-linejoin:round;">
</g>
<g style="fill:#E8B2A7; fill-opacity:0.0; 
stroke:#E8B2A7; stroke-width:0.1200; stroke-opacity:1; 
stroke-linecap:round; stroke-linejoin:round;">
<path d="M14.8369 47.1564
L17.4385 47.7571
" />
<path d="M17.4385 47.7571
L14.8369 47.1564
" />
</g>
<g style="fill:#E8B2A7; fill-opacity:1.0000; 
stroke:#E8B2A7; stroke-width:0.0000; stroke-opacity:1; 
stroke-linecap:round; stroke-linejoin:round;">
<circle cx="17.4385" cy="47.7571" r="0.0600" /> 
<circle cx="14.2655" cy="49.6313" r="0.0600" /> 
</g>
<g style="fill:#E8B2A7; fill-opacity:1.0000; 
stroke:#E8B2A7; stroke-width:0.1200; stroke-opacity:1; 
stroke-linecap:round; stroke-linejoin:round;">
</g>
<g style="fill:#E8B2A7; fill-opacity:0.0; 
stroke:#E8B2A7; stroke-width:0.1200; stroke-opacity:1; 
stroke-linecap:round; stroke-linejoin:round;">
<path d="M14.2655 49.6313
L16.8671 50.2320
" />
<path d="M16.8671 50.2320
L14.2655 49.6313
" />
</g>
<g style="fill:#E8B2A7; fill-opacity:1.0000; 
stroke:#E8B2A7; stroke-width:0.0000; stroke-opacity:1; 
stroke-linecap:round; stroke-linejoin:round;">
<circle cx="16.8671" cy="50.2320" r="0.0600" /> 
</g>
<g style="fill:#E8B2A7; fill-opacity:1.0000; 
stroke:#E8B2A7; stroke-width:0.1200; stroke-opacity:1; 
stroke-linecap:round; stroke-linejoin:round;">
</g>
<g style="fill:#E8B2A7; fill-opacity:0.0; 
stroke:#E8B2A7; stroke-width:0.1200; stroke-opacity:1; 
stroke-linecap:round; stroke-linejoin:round;">
<path d="M12.8841 50.6363
L13.9753 50.8883
" />
<path d="M13.9753 50.8883
L7.9732 49.5026
" />
<path d="M13.9753 50.8883
L13.8854 51.2780
" />
<path d="M12.7941 51.0261
L12.8841 50.6363
" />
<path d="M13.8854 51.2780
L12.7941 51.0261
" />
<path d="M9.1250 44.5138 A2.5600 2.5600 0.0 0 0 7.9732 49.5026" />
<g >
</g>
<g >
</g>
<g >
</g>
<g >
</g>
<g >
</g>
<g >
</g>
<g >
</g>
<g >
</g>
<g >
</g>
<g >
</g>
<g >
</g>
<g >
</g>
<g >
</g>
<g >
</g>
<g >
</g>
<g >
</g>
<g >
</g>
<g >
</g>
<g >
</g>
<g >
</g>
<g >
</g>
<g >
</g>
<g >
</g>
<g >
</g>
<g >
</g>
<g >
</g>
<g >
</g>
<g >
</g>
<g >
</g>
<g >
</g>
<g >
</g>
<g >
</g>
<g >
</g>
<g >
</g>
<g >
</g>
<g >
</g>
<g >
</g>
<g >
</g>
<g >
</g>
<g >
</g>
<g >
</g>
<g >
</g>
<g >
</g>
<g >
</g>
<g >
</g>
<g >
</g>
<g >
</g>
<g >
</g>
<g >
</g>
<g >
</g>
<g >
</g>
<g >
</g>
<g >
</g>
<g >
</g>
<g >
</g>
<g >
</g>
<g >
</g>
<g >
</g>
<g >
</g>
<g >
</g>
<g >
</g>
</g>
<g style="fill:#000000; fill-opacity:0.0; 
stroke:#000000; stroke-width:0.1200; stroke-opacity:1; 
stroke-linecap:round; stroke-linejoin:round;">
</g>
<g style="fill:#D0D2CD; fill-opacity:0.0; 
stroke:#D0D2CD; stroke-width:0.1200; stroke-opacity:1; 
stroke-linecap:round; stroke-linejoin:round;">
</g>
<g style="fill:#D0D2CD; fill-opacity:0.0; 
stroke:#D0D2CD; stroke-width:0.1500; stroke-opacity:1; 
stroke-linecap:round; stroke-linejoin:round;">
<path d="M16.5596 46.8353 A1.5000 1.5000 0.0 0 0 15.4618 45.0428" />
<path d="M13.9244 51.5550 A1.5000 1.5000 0.0 0 0 15.7295 50.4321" />
<path d="M90.8198 44.5428 A1.5000 1.5000 0.0 0 0 89.7220 46.3353" />
<path d="M90.5521 49.9321 A1.5000 1.5000 0.0 0 0 92.3572 51.0550" />
<path d="M85.8908 79.4000
L78.3908 79.4000
" />
<path d="M6.8908 35.9000
L6.8908 42.4000
" />
<path d="M6.8908 18.4000
L6.8908 34.4000
" />
<path d="M61.3908 82.4000 A1.0000 1.0000 0.0 0 0 62.3908 81.4000" />
<path d="M99.3908 26.4000 A1.0000 1.0000 0.0 0 0 98.3908 25.4000" />
<path d="M99.3908 49.4000
L99.3908 61.9000
" />
<path d="M40.8908 6.4000 A1.0000 1.0000 0.0 0 0 39.8908 7.4000" />
<path d="M16.3908 65.9000
L16.3908 76.9000
" />
<path d="M69.8908 14.9000
L69.8908 7.4000
" />
<path d="M99.3908 26.4000
L99.3908 34.4000
" />
<path d="M63.3908 7.4000 A1.0000 1.0000 0.0 0 0 62.3908 6.4000" />
</g>
<g style="fill:#D0D2CD; fill-opacity:0.0; 
stroke:#D0D2CD; stroke-width:0.1000; stroke-opacity:1; 
stroke-linecap:round; stroke-linejoin:round;">
<path d="M18.6408 40.9000
L18.6408 42.9000
" />
</g>
<g style="fill:#D0D2CD; fill-opacity:0.0; 
stroke:#D0D2CD; stroke-width:0.1500; stroke-opacity:1; 
stroke-linecap:round; stroke-linejoin:round;">
<path d="M62.3908 6.4000
L40.8908 6.4000
" />
<path d="M85.8908 79.4000 A1.0000 1.0000 0.0 0 0 86.8908 78.4000" />
</g>
<g style="fill:#D0D2CD; fill-opacity:0.0; 
stroke:#D0D2CD; stroke-width:0.1000; stroke-opacity:1; 
stroke-linecap:round; stroke-linejoin:round;">
<path d="M27.1408 40.9000
L27.1408 42.9000
" />
</g>
<g style="fill:#D0D2CD; fill-opacity:0.0; 
stroke:#D0D2CD; stroke-width:0.1500; stroke-opacity:1; 
stroke-linecap:round; stroke-linejoin:round;">
<path d="M63.3908 14.9000 A1.5000 1.5000 0.0 0 0 64.8908 16.4000" />
<path d="M24.8908 11.4000
L13.8908 11.4000
" />
<path d="M62.3908 80.4000
L62.3908 81.4000
" />
<path d="M6.8908 49.9000
L6.8908 61.9000
" />
<path d="M6.8908 42.4000
L6.8908 42.9000
" />
<path d="M36.8908 81.9000
L48.3908 82.4000
" />
<path d="M24.3908 77.9000
L25.8908 77.9000
" />
<path d="M33.3908 14.9000 A1.5000 1.5000 0.0 0 0 34.8908 16.4000" />
<path d="M98.3908 62.9000
L89.8908 62.9000
" />
<path d="M39.8908 14.9000
L39.8908 7.4000
" />
<path d="M63.3908 79.4000 A1.0000 1.0000 0.0 0 0 62.3908 80.4000" />
</g>
<g style="fill:#D0D2CD; fill-opacity:0.0; 
stroke:#D0D2CD; stroke-width:0.1000; stroke-opacity:1; 
stroke-linecap:round; stroke-linejoin:round;">
<circle cx="25.3908" cy="70.9000" r="1.7500" /> 
</g>
<g style="fill:#D0D2CD; fill-opacity:0.0; 
stroke:#D0D2CD; stroke-width:0.1500; stroke-opacity:1; 
stroke-linecap:round; stroke-linejoin:round;">
<path d="M99.3908 49.4000
L92.3572 51.0550
" />
<path d="M25.8908 77.9000
L25.8908 80.4000
" />
<path d="M77.3908 7.4000
L77.3908 10.4000
" />
<path d="M85.3908 22.4000 A3.0000 3.0000 0.0 0 0 88.3908 25.4000" />
<path d="M64.8908 16.4000
L68.3908 16.4000
" />
<path d="M26.8908 6.4000 A1.0000 1.0000 0.0 0 0 25.8908 7.4000" />
</g>
<g style="fill:#D0D2CD; fill-opacity:0.0; 
stroke:#D0D2CD; stroke-width:0.1000; stroke-opacity:1; 
stroke-linecap:round; stroke-linejoin:round;">
<path d="M18.6408 42.9000 A4.2500 4.2500 0.0 0 0 27.1408 42.9000" />
</g>
<g style="fill:#D0D2CD; fill-opacity:0.0; 
stroke:#D0D2CD; stroke-width:0.1500; stroke-opacity:1; 
stroke-linecap:round; stroke-linejoin:round;">
<path d="M16.3908 76.9000 A1.0000 1.0000 0.0 0 0 16.9436 77.7944" />
<path d="M99.3908 34.4000
L96.8908 34.4000
" />
<path d="M33.3908 7.4000 A1.0000 1.0000 0.0 0 0 32.3908 6.4000" />
<path d="M99.3908 35.9000
L99.3908 42.4000
" />
<path d="M32.3908 6.4000
L26.8908 6.4000
" />
<path d="M6.8908 34.4000
L9.8908 34.4000
" />
<path d="M76.8908 79.4000
L63.3908 79.4000
" />
<path d="M9.8908 34.4000
L9.8908 35.9000
" />
<path d="M24.3908 77.9000
L24.3908 80.2000
" />
<path d="M63.3908 7.4000
L63.3908 14.9000
" />
</g>
<g style="fill:#D0D2CD; fill-opacity:0.0; 
stroke:#D0D2CD; stroke-width:0.1000; stroke-opacity:1; 
stroke-linecap:round; stroke-linejoin:round;">
<path d="M27.1408 40.9000 A4.2500 4.2500 0.0 0 0 18.6408 40.9000" />
</g>
<g style="fill:#D0D2CD; fill-opacity:0.0; 
stroke:#D0D2CD; stroke-width:0.1500; stroke-opacity:1; 
stroke-linecap:round; stroke-linejoin:round;">
<path d="M96.8908 35.9000
L99.3908 35.9000
" />
<path d="M89.8908 62.9000 A3.0000 3.0000 0.0 0 0 86.8908 65.9000" />
<path d="M6.8908 49.9000
L13.9244 51.5550
" />
<path d="M7.8908 62.9000
L13.3908 62.9000
" />
<path d="M6.8908 42.9000
L15.4618 45.0428
" />
<path d="M88.3908 25.4000
L98.3908 25.4000
" />
<path d="M25.8908 7.4000
L25.8908 10.4000
" />
<path d="M6.8908 61.9000 A1.0000 1.0000 0.0 0 0 7.8908 62.9000" />
<path d="M86.8908 65.9000
L86.8908 78.4000
" />
<path d="M96.8908 34.4000
L96.8908 35.9000
" />
<path d="M38.3908 16.4000 A1.5000 1.5000 0.0 0 0 39.8908 14.9000" />
<path d="M85.3908 12.4000
L85.3908 22.4000
" />
<path d="M98.3908 62.9000 A1.0000 1.0000 0.0 0 0 99.3908 61.9000" />
<path d="M78.3908 77.4000
L76.8908 77.4000
" />
<path d="M24.8908 11.4000 A1.0000 1.0000 0.0 0 0 25.8908 10.4000" />
<path d="M85.3908 12.4000 A1.0000 1.0000 0.0 0 0 84.3908 11.4000" />
<path d="M78.3908 11.4000
L84.3908 11.4000
" />
<path d="M33.3908 7.4000
L33.3908 14.9000
" />
<path d="M13.8908 11.4000
L6.8908 18.4000
" />
<path d="M9.8908 35.9000
L6.8908 35.9000
" />
<path d="M77.3908 7.4000 A1.0000 1.0000 0.0 0 0 76.3908 6.4000" />
<path d="M76.8908 77.4000
L76.8908 79.4000
" />
<path d="M25.8908 80.4000
L36.8908 81.9000
" />
<path d="M70.8908 6.4000 A1.0000 1.0000 0.0 0 0 69.8908 7.4000" />
<path d="M77.3908 10.4000 A1.0000 1.0000 0.0 0 0 78.3908 11.4000" />
<path d="M68.3908 16.4000 A1.5000 1.5000 0.0 0 0 69.8908 14.9000" />
<path d="M70.8908 6.4000
L76.3908 6.4000
" />
<path d="M15.7295 50.4321
L16.5596 46.8353
" />
<path d="M61.3908 82.4000
L48.3908 82.4000
" />
<path d="M78.3908 77.4000
L78.3908 79.4000
" />
<path d="M24.3908 80.2000
L16.9436 77.7944
" />
<path d="M34.8908 16.4000
L38.3908 16.4000
" />
<path d="M16.3908 65.9000 A3.0000 3.0000 0.0 0 0 13.3908 62.9000" />
<path d="M99.3908 42.4000
L90.8198 44.5428
" />
<path d="M90.5521 49.9321
L89.7220 46.3353
" />
<g >
</g>
<g >
</g>
<g >
</g>
<g >
</g>
<g >
</g>
<g >
</g>
<g >
</g>
<g >
</g>
<g >
</g>
<g >
</g>
<g >
</g>
<g >
</g>
<g >
</g>
<g >
</g>
<g >
</g>
<g >
</g>
<g >
</g>
<g >
</g>
<g >
</g>
<g >
</g>
<g >
</g>
<g >
</g>
<g >
</g>
<g >
</g>
<g >
</g>
<g >
</g>
<g >
</g>
<g >
</g>
<g >
</g>
<g >
</g>
<g >
</g>
<g >
</g>
<g >
</g>
<g >
</g>
<g >
</g>
<g >
</g>
<g >
</g>
<g >
</g>
<g >
</g>
<g >
</g>
<g >
</g>
<g >
</g>
<g >
</g>
<g >
</g>
<g >
</g>
<g >
</g>
<g >
</g>
<g >
</g>
<g >
</g>
<g >
</g>
<g >
</g>
<g >
</g>
<g >
</g>
<g >
</g>
<g >
</g>
<g >
</g>
<g >
</g>
<g >
</g>
<g >
</g>
<g >
</g>
<g >
</g>
</g> 
</svg>
